<?xml version="1.0" encoding="utf-8" standalone="no"?>
<!DOCTYPE svg PUBLIC "-//W3C//DTD SVG 1.1//EN"
  "http://www.w3.org/Graphics/SVG/1.1/DTD/svg11.dtd">
<svg xmlns:xlink="http://www.w3.org/1999/xlink" width="720pt" height="432pt" viewBox="0 0 720 432" xmlns="http://www.w3.org/2000/svg" version="1.1">
 <metadata>
  <rdf:RDF xmlns:dc="http://purl.org/dc/elements/1.1/" xmlns:cc="http://creativecommons.org/ns#" xmlns:rdf="http://www.w3.org/1999/02/22-rdf-syntax-ns#">
   <cc:Work>
    <dc:type rdf:resource="http://purl.org/dc/dcmitype/StillImage"/>
    <dc:date>2024-05-14T09:54:26.148044</dc:date>
    <dc:format>image/svg+xml</dc:format>
    <dc:creator>
     <cc:Agent>
      <dc:title>Matplotlib v3.8.0, https://matplotlib.org/</dc:title>
     </cc:Agent>
    </dc:creator>
   </cc:Work>
  </rdf:RDF>
 </metadata>
 <defs>
  <style type="text/css">*{stroke-linejoin: round; stroke-linecap: butt}</style>
 </defs>
 <g id="figure_1">
  <g id="patch_1">
   <path d="M 0 432 
L 720 432 
L 720 0 
L 0 0 
z
" style="fill: #ffffff"/>
  </g>
  <g id="axes_1">
   <g id="patch_2">
    <path d="M 90 384.48 
L 648 384.48 
L 648 51.84 
L 90 51.84 
z
" style="fill: #ffffff"/>
   </g>
   <g id="PolyCollection_1">
    <path d="M 142.144867 283.592963 
L 141.911077 283.592963 
L 141.864098 281.666732 
L 141.803196 279.740502 
L 141.727683 277.814271 
L 141.638903 275.888041 
L 141.540252 273.96181 
L 141.4363 272.03558 
L 141.331234 270.10935 
L 141.22724 268.183119 
L 141.123538 266.256889 
L 141.016449 264.330658 
L 140.900331 262.404428 
L 140.768877 260.478197 
L 140.616142 258.551967 
L 140.43702 256.625736 
L 140.227259 254.699506 
L 139.983459 252.773275 
L 139.703566 250.847045 
L 139.388 248.920814 
L 139.041017 246.994584 
L 138.671349 245.068354 
L 138.291162 243.142123 
L 137.912994 241.215893 
L 137.545372 239.289662 
L 137.188699 237.363432 
L 136.833296 235.437201 
L 136.460884 233.510971 
L 136.049657 231.58474 
L 135.581661 229.65851 
L 135.050156 227.732279 
L 134.46431 225.806049 
L 133.849288 223.879819 
L 133.241268 221.953588 
L 132.678692 220.027358 
L 132.192404 218.101127 
L 131.797858 216.174897 
L 131.491917 214.248666 
L 131.255203 212.322436 
L 131.058877 210.396205 
L 130.873075 208.469975 
L 130.674025 206.543744 
L 130.448107 204.617514 
L 130.193065 202.691284 
L 129.917609 200.765053 
L 129.640163 198.838823 
L 129.386302 196.912592 
L 129.184061 194.986362 
L 129.05754 193.060131 
L 129.020979 191.133901 
L 129.076063 189.20767 
L 129.21368 187.28144 
L 129.418803 185.355209 
L 129.675522 183.428979 
L 129.969755 181.502749 
L 130.289286 179.576518 
L 130.622826 177.650288 
L 130.960214 175.724057 
L 131.294529 173.797827 
L 131.62482 171.871596 
L 131.95711 169.945366 
L 132.3022 168.019135 
L 132.67092 166.092905 
L 133.069347 164.166674 
L 133.49658 162.240444 
L 133.945994 160.314214 
L 134.408701 158.387983 
L 134.876863 156.461753 
L 135.345064 154.535522 
L 135.809581 152.609292 
L 136.266776 150.683061 
L 136.712185 148.756831 
L 137.141049 146.8306 
L 137.549812 144.90437 
L 137.93737 142.978139 
L 138.305113 141.051909 
L 138.655738 139.125679 
L 138.991727 137.199448 
L 139.314473 135.273218 
L 139.624314 133.346987 
L 139.920906 131.420757 
L 140.203175 129.494526 
L 140.468654 127.568296 
L 140.712847 125.642065 
L 140.929491 123.715835 
L 141.112093 121.789604 
L 141.256233 119.863374 
L 141.361537 117.937144 
L 141.432379 116.010913 
L 141.477046 114.084683 
L 141.505797 112.158452 
L 141.528632 110.232222 
L 141.553467 108.305991 
L 141.585087 106.379761 
L 141.624935 104.45353 
L 141.671633 102.5273 
L 141.722004 100.601069 
L 141.772324 98.674839 
L 141.819439 96.748609 
L 141.861425 94.822378 
L 141.89764 92.896148 
L 142.158304 92.896148 
L 142.158304 92.896148 
L 142.194519 94.822378 
L 142.236505 96.748609 
L 142.28362 98.674839 
L 142.33394 100.601069 
L 142.384311 102.5273 
L 142.431009 104.45353 
L 142.470858 106.379761 
L 142.502477 108.305991 
L 142.527312 110.232222 
L 142.550147 112.158452 
L 142.578898 114.084683 
L 142.623565 116.010913 
L 142.694407 117.937144 
L 142.799711 119.863374 
L 142.943851 121.789604 
L 143.126453 123.715835 
L 143.343097 125.642065 
L 143.58729 127.568296 
L 143.852769 129.494526 
L 144.135038 131.420757 
L 144.43163 133.346987 
L 144.741471 135.273218 
L 145.064217 137.199448 
L 145.400206 139.125679 
L 145.750831 141.051909 
L 146.118574 142.978139 
L 146.506132 144.90437 
L 146.914895 146.8306 
L 147.343759 148.756831 
L 147.789168 150.683061 
L 148.246363 152.609292 
L 148.71088 154.535522 
L 149.179081 156.461753 
L 149.647243 158.387983 
L 150.10995 160.314214 
L 150.559364 162.240444 
L 150.986597 164.166674 
L 151.385024 166.092905 
L 151.753745 168.019135 
L 152.098834 169.945366 
L 152.431125 171.871596 
L 152.761415 173.797827 
L 153.09573 175.724057 
L 153.433118 177.650288 
L 153.766658 179.576518 
L 154.08619 181.502749 
L 154.380422 183.428979 
L 154.637141 185.355209 
L 154.842264 187.28144 
L 154.979881 189.20767 
L 155.034965 191.133901 
L 154.998404 193.060131 
L 154.871883 194.986362 
L 154.669642 196.912592 
L 154.415781 198.838823 
L 154.138335 200.765053 
L 153.862879 202.691284 
L 153.607837 204.617514 
L 153.381919 206.543744 
L 153.182869 208.469975 
L 152.997068 210.396205 
L 152.800741 212.322436 
L 152.564027 214.248666 
L 152.258086 216.174897 
L 151.86354 218.101127 
L 151.377252 220.027358 
L 150.814676 221.953588 
L 150.206656 223.879819 
L 149.591634 225.806049 
L 149.005788 227.732279 
L 148.474283 229.65851 
L 148.006287 231.58474 
L 147.59506 233.510971 
L 147.222648 235.437201 
L 146.867245 237.363432 
L 146.510573 239.289662 
L 146.14295 241.215893 
L 145.764782 243.142123 
L 145.384596 245.068354 
L 145.014928 246.994584 
L 144.667944 248.920814 
L 144.352378 250.847045 
L 144.072485 252.773275 
L 143.828685 254.699506 
L 143.618924 256.625736 
L 143.439802 258.551967 
L 143.287067 260.478197 
L 143.155613 262.404428 
L 143.039495 264.330658 
L 142.932406 266.256889 
L 142.828704 268.183119 
L 142.72471 270.10935 
L 142.619644 272.03558 
L 142.515692 273.96181 
L 142.417041 275.888041 
L 142.328261 277.814271 
L 142.252748 279.740502 
L 142.191846 281.666732 
L 142.144867 283.592963 
z
" clip-path="url(#p83068b6cca)" style="fill: #1f77b4; fill-opacity: 0.3"/>
   </g>
   <g id="PolyCollection_2">
    <path d="M 194.088128 311.696705 
L 194.023761 311.696705 
L 194.022454 309.59367 
L 194.021094 307.490635 
L 194.017273 305.3876 
L 194.008429 303.284565 
L 193.992721 301.18153 
L 193.969536 299.078495 
L 193.939269 296.97546 
L 193.902426 294.872425 
L 193.858594 292.76939 
L 193.806063 290.666356 
L 193.742552 288.563321 
L 193.666644 286.460286 
L 193.578886 284.357251 
L 193.481638 282.254216 
L 193.37778 280.151181 
L 193.269406 278.048146 
L 193.157651 275.945111 
L 193.043691 273.842076 
L 192.929659 271.739041 
L 192.818055 269.636006 
L 192.709341 267.532971 
L 192.598907 265.429936 
L 192.475239 263.326902 
L 192.320591 261.223867 
L 192.11437 259.120832 
L 191.838621 257.017797 
L 191.484302 254.914762 
L 191.056295 252.811727 
L 190.574596 250.708692 
L 190.069905 248.605657 
L 189.574435 246.502622 
L 189.111782 244.399587 
L 188.690635 242.296552 
L 188.304663 240.193517 
L 187.936897 238.090482 
L 187.56476 235.987448 
L 187.163319 233.884413 
L 186.70784 231.781378 
L 186.178478 229.678343 
L 185.567931 227.575308 
L 184.888635 225.472273 
L 184.173959 223.369238 
L 183.470601 221.266203 
L 182.825296 219.163168 
L 182.27282 217.060133 
L 181.830721 214.957098 
L 181.500954 212.854063 
L 181.274611 210.751028 
L 181.13623 208.647994 
L 181.067118 206.544959 
L 181.048951 204.441924 
L 181.068116 202.338889 
L 181.119365 200.235854 
L 181.206765 198.132819 
L 181.341059 196.029784 
L 181.534421 193.926749 
L 181.794813 191.823714 
L 182.122242 189.720679 
L 182.508321 187.617644 
L 182.938994 185.514609 
L 183.399008 183.411574 
L 183.876014 181.30854 
L 184.362513 179.205505 
L 184.854813 177.10247 
L 185.349741 174.999435 
L 185.84138 172.8964 
L 186.320391 170.793365 
L 186.776916 168.69033 
L 187.205319 166.587295 
L 187.60745 164.48426 
L 187.992047 162.381225 
L 188.370791 160.27819 
L 188.75378 158.175155 
L 189.147139 156.07212 
L 189.55333 153.969086 
L 189.97254 151.866051 
L 190.403049 149.763016 
L 190.83991 147.659981 
L 191.273188 145.556946 
L 191.687865 143.453911 
L 192.066577 141.350876 
L 192.394412 139.247841 
L 192.663494 137.144806 
L 192.875031 135.041771 
L 193.037973 132.938736 
L 193.165334 130.835701 
L 193.270176 128.732666 
L 193.362793 126.629632 
L 193.449516 124.526597 
L 193.53275 122.423562 
L 193.611823 120.320527 
L 193.684397 118.217492 
L 193.748098 116.114457 
L 193.801782 114.011422 
L 193.845984 111.908387 
L 193.88249 109.805352 
L 193.913484 107.702317 
L 193.940772 105.599282 
L 193.965371 103.496247 
L 194.146517 103.496247 
L 194.146517 103.496247 
L 194.171116 105.599282 
L 194.198404 107.702317 
L 194.229399 109.805352 
L 194.265904 111.908387 
L 194.310106 114.011422 
L 194.36379 116.114457 
L 194.427491 118.217492 
L 194.500066 120.320527 
L 194.579138 122.423562 
L 194.662372 124.526597 
L 194.749095 126.629632 
L 194.841712 128.732666 
L 194.946554 130.835701 
L 195.073916 132.938736 
L 195.236857 135.041771 
L 195.448394 137.144806 
L 195.717476 139.247841 
L 196.045311 141.350876 
L 196.424023 143.453911 
L 196.838701 145.556946 
L 197.271978 147.659981 
L 197.708839 149.763016 
L 198.139348 151.866051 
L 198.558558 153.969086 
L 198.964749 156.07212 
L 199.358108 158.175155 
L 199.741097 160.27819 
L 200.119841 162.381225 
L 200.504438 164.48426 
L 200.906569 166.587295 
L 201.334973 168.69033 
L 201.791497 170.793365 
L 202.270508 172.8964 
L 202.762147 174.999435 
L 203.257075 177.10247 
L 203.749375 179.205505 
L 204.235874 181.30854 
L 204.71288 183.411574 
L 205.172894 185.514609 
L 205.603568 187.617644 
L 205.989646 189.720679 
L 206.317075 191.823714 
L 206.577467 193.926749 
L 206.770829 196.029784 
L 206.905123 198.132819 
L 206.992523 200.235854 
L 207.043773 202.338889 
L 207.062937 204.441924 
L 207.04477 206.544959 
L 206.975658 208.647994 
L 206.837277 210.751028 
L 206.610935 212.854063 
L 206.281167 214.957098 
L 205.839068 217.060133 
L 205.286592 219.163168 
L 204.641288 221.266203 
L 203.937929 223.369238 
L 203.223253 225.472273 
L 202.543957 227.575308 
L 201.93341 229.678343 
L 201.404048 231.781378 
L 200.948569 233.884413 
L 200.547128 235.987448 
L 200.174991 238.090482 
L 199.807226 240.193517 
L 199.421253 242.296552 
L 199.000106 244.399587 
L 198.537453 246.502622 
L 198.041983 248.605657 
L 197.537292 250.708692 
L 197.055593 252.811727 
L 196.627586 254.914762 
L 196.273267 257.017797 
L 195.997518 259.120832 
L 195.791297 261.223867 
L 195.636649 263.326902 
L 195.512982 265.429936 
L 195.402547 267.532971 
L 195.293833 269.636006 
L 195.182229 271.739041 
L 195.068197 273.842076 
L 194.954237 275.945111 
L 194.842482 278.048146 
L 194.734108 280.151181 
L 194.63025 282.254216 
L 194.533002 284.357251 
L 194.445245 286.460286 
L 194.369337 288.563321 
L 194.305825 290.666356 
L 194.253294 292.76939 
L 194.209462 294.872425 
L 194.172619 296.97546 
L 194.142353 299.078495 
L 194.119167 301.18153 
L 194.103459 303.284565 
L 194.094615 305.3876 
L 194.090794 307.490635 
L 194.089435 309.59367 
L 194.088128 311.696705 
z
" clip-path="url(#p83068b6cca)" style="fill: #1f77b4; fill-opacity: 0.3"/>
   </g>
   <g id="PolyCollection_3">
    <path d="M 246.113849 291.063185 
L 246.053983 291.063185 
L 246.054419 288.799517 
L 246.056189 286.535848 
L 246.05694 284.27218 
L 246.05411 282.008511 
L 246.046057 279.744843 
L 246.032954 277.481174 
L 246.016981 275.217506 
L 246.001503 272.953837 
L 245.989313 270.690168 
L 245.980655 268.4265 
L 245.972062 266.162831 
L 245.956688 263.899163 
L 245.925935 261.635494 
L 245.871475 259.371826 
L 245.786892 257.108157 
L 245.668713 254.844489 
L 245.516838 252.58082 
L 245.334154 250.317152 
L 245.125101 248.053483 
L 244.893549 245.789815 
L 244.641178 243.526146 
L 244.367464 241.262477 
L 244.071435 238.998809 
L 243.754217 236.73514 
L 243.42087 234.471472 
L 243.080212 232.207803 
L 242.742168 229.944135 
L 242.413675 227.680466 
L 242.095482 225.416798 
L 241.781939 223.153129 
L 241.463553 220.889461 
L 241.129566 218.625792 
L 240.768109 216.362124 
L 240.364734 214.098455 
L 239.903132 211.834786 
L 239.370881 209.571118 
L 238.768268 207.307449 
L 238.114112 205.043781 
L 237.443135 202.780112 
L 236.794641 200.516444 
L 236.198018 198.252775 
L 235.662794 195.989107 
L 235.178649 193.725438 
L 234.725635 191.46177 
L 234.289703 189.198101 
L 233.875736 186.934433 
L 233.510941 184.670764 
L 233.235815 182.407095 
L 233.086412 180.143427 
L 233.076923 177.879758 
L 233.192183 175.61609 
L 233.394618 173.352421 
L 233.642135 171.088753 
L 233.906985 168.825084 
L 234.184829 166.561416 
L 234.489452 164.297747 
L 234.838352 162.034079 
L 235.240531 159.77041 
L 235.694752 157.506742 
L 236.196639 155.243073 
L 236.745549 152.979404 
L 237.34378 150.715736 
L 237.988829 148.452067 
L 238.665769 146.188399 
L 239.346528 143.92473 
L 239.997656 141.661062 
L 240.592626 139.397393 
L 241.12183 137.133725 
L 241.594503 134.870056 
L 242.031482 132.606388 
L 242.453343 130.342719 
L 242.870893 128.079051 
L 243.28236 125.815382 
L 243.676576 123.551713 
L 244.038443 121.288045 
L 244.353741 119.024376 
L 244.612683 116.760708 
L 244.812579 114.497039 
L 244.959153 112.233371 
L 245.065409 109.969702 
L 245.147922 107.706034 
L 245.222183 105.442365 
L 245.299159 103.178697 
L 245.38397 100.915028 
L 245.476077 98.65136 
L 245.570196 96.387691 
L 245.658014 94.124022 
L 245.731098 91.860354 
L 245.784319 89.596685 
L 245.817996 87.333017 
L 245.837399 85.069348 
L 245.85003 82.80568 
L 245.862549 80.542011 
L 245.878985 78.278343 
L 245.900529 76.014674 
L 245.926248 73.751006 
L 245.954037 71.487337 
L 245.98151 69.223669 
L 246.006701 66.96 
L 246.161131 66.96 
L 246.161131 66.96 
L 246.186322 69.223669 
L 246.213796 71.487337 
L 246.241584 73.751006 
L 246.267303 76.014674 
L 246.288847 78.278343 
L 246.305283 80.542011 
L 246.317802 82.80568 
L 246.330433 85.069348 
L 246.349837 87.333017 
L 246.383514 89.596685 
L 246.436734 91.860354 
L 246.509818 94.124022 
L 246.597636 96.387691 
L 246.691755 98.65136 
L 246.783863 100.915028 
L 246.868673 103.178697 
L 246.945649 105.442365 
L 247.019911 107.706034 
L 247.102423 109.969702 
L 247.208679 112.233371 
L 247.355253 114.497039 
L 247.555149 116.760708 
L 247.814091 119.024376 
L 248.129389 121.288045 
L 248.491256 123.551713 
L 248.885472 125.815382 
L 249.296939 128.079051 
L 249.714489 130.342719 
L 250.136351 132.606388 
L 250.573329 134.870056 
L 251.046002 137.133725 
L 251.575206 139.397393 
L 252.170176 141.661062 
L 252.821304 143.92473 
L 253.502063 146.188399 
L 254.179003 148.452067 
L 254.824052 150.715736 
L 255.422283 152.979404 
L 255.971193 155.243073 
L 256.47308 157.506742 
L 256.927301 159.77041 
L 257.32948 162.034079 
L 257.67838 164.297747 
L 257.983003 166.561416 
L 258.260847 168.825084 
L 258.525697 171.088753 
L 258.773214 173.352421 
L 258.975649 175.61609 
L 259.090909 177.879758 
L 259.081421 180.143427 
L 258.932017 182.407095 
L 258.656891 184.670764 
L 258.292096 186.934433 
L 257.878129 189.198101 
L 257.442197 191.46177 
L 256.989183 193.725438 
L 256.505038 195.989107 
L 255.969814 198.252775 
L 255.373191 200.516444 
L 254.724698 202.780112 
L 254.05372 205.043781 
L 253.399564 207.307449 
L 252.796951 209.571118 
L 252.264701 211.834786 
L 251.803098 214.098455 
L 251.399723 216.362124 
L 251.038267 218.625792 
L 250.70428 220.889461 
L 250.385893 223.153129 
L 250.072351 225.416798 
L 249.754157 227.680466 
L 249.425664 229.944135 
L 249.087621 232.207803 
L 248.746962 234.471472 
L 248.413615 236.73514 
L 248.096397 238.998809 
L 247.800368 241.262477 
L 247.526654 243.526146 
L 247.274283 245.789815 
L 247.042731 248.053483 
L 246.833678 250.317152 
L 246.650995 252.58082 
L 246.499119 254.844489 
L 246.38094 257.108157 
L 246.296357 259.371826 
L 246.241897 261.635494 
L 246.211144 263.899163 
L 246.19577 266.162831 
L 246.187177 268.4265 
L 246.17852 270.690168 
L 246.166329 272.953837 
L 246.150851 275.217506 
L 246.134878 277.481174 
L 246.121775 279.744843 
L 246.113723 282.008511 
L 246.110893 284.27218 
L 246.111643 286.535848 
L 246.113413 288.799517 
L 246.113849 291.063185 
z
" clip-path="url(#p83068b6cca)" style="fill: #1f77b4; fill-opacity: 0.3"/>
   </g>
   <g id="PolyCollection_4">
    <path d="M 298.428085 273.006728 
L 297.795692 273.006728 
L 297.718685 271.186633 
L 297.64104 269.366539 
L 297.565525 267.546444 
L 297.493076 265.726349 
L 297.422151 263.906254 
L 297.348566 262.086159 
L 297.265929 260.266064 
L 297.166637 258.445969 
L 297.043209 256.625874 
L 296.889624 254.805779 
L 296.702385 252.985684 
L 296.481153 251.165589 
L 296.228874 249.345494 
L 295.951381 247.525399 
L 295.656416 245.705305 
L 295.352143 243.88521 
L 295.045417 242.065115 
L 294.740239 240.24502 
L 294.436895 238.424925 
L 294.132049 236.60483 
L 293.819736 234.784735 
L 293.492756 232.96464 
L 293.143854 231.144545 
L 292.766251 229.32445 
L 292.353664 227.504355 
L 291.900588 225.68426 
L 291.403644 223.864166 
L 290.864221 222.044071 
L 290.291432 220.223976 
L 289.703526 218.403881 
L 289.126004 216.583786 
L 288.585959 214.763691 
L 288.104211 212.943596 
L 287.68838 211.123501 
L 287.330262 209.303406 
L 287.009357 207.483311 
L 286.701706 205.663216 
L 286.390581 203.843121 
L 286.074364 202.023027 
L 285.767965 200.202932 
L 285.497017 198.382837 
L 285.287555 196.562742 
L 285.156128 194.742647 
L 285.104895 192.922552 
L 285.123574 191.102457 
L 285.196381 189.282362 
L 285.309763 187.462267 
L 285.456811 185.642172 
L 285.636759 183.822077 
L 285.851007 182.001982 
L 286.098947 180.181887 
L 286.3763 178.361793 
L 286.676595 176.541698 
L 286.994227 174.721603 
L 287.326895 172.901508 
L 287.676064 171.081413 
L 288.045609 169.261318 
L 288.439615 167.441223 
L 288.860305 165.621128 
L 289.306576 163.801033 
L 289.773373 161.980938 
L 290.25212 160.160843 
L 290.732289 158.340748 
L 291.203778 156.520654 
L 291.659256 154.700559 
L 292.095543 152.880464 
L 292.513457 151.060369 
L 292.916247 149.240274 
L 293.307349 147.420179 
L 293.688379 145.600084 
L 294.058115 143.779989 
L 294.412743 141.959894 
L 294.747119 140.139799 
L 295.056512 138.319704 
L 295.338173 136.499609 
L 295.592279 134.679514 
L 295.82197 132.85942 
L 296.032511 131.039325 
L 296.229823 129.21923 
L 296.418875 127.399135 
L 296.602422 125.57904 
L 296.780467 123.758945 
L 296.950506 121.93885 
L 297.108408 120.118755 
L 297.24966 118.29866 
L 297.370667 116.478565 
L 297.469827 114.65847 
L 297.5481 112.838375 
L 297.608894 111.018281 
L 297.657289 109.198186 
L 297.698827 107.378091 
L 297.738262 105.557996 
L 297.778645 103.737901 
L 297.821 101.917806 
L 297.864586 100.097711 
L 297.907591 98.277616 
L 297.94795 96.457521 
L 297.984009 94.637426 
L 298.014847 92.817331 
L 298.208929 92.817331 
L 298.208929 92.817331 
L 298.239767 94.637426 
L 298.275826 96.457521 
L 298.316186 98.277616 
L 298.35919 100.097711 
L 298.402776 101.917806 
L 298.445131 103.737901 
L 298.485515 105.557996 
L 298.524949 107.378091 
L 298.566487 109.198186 
L 298.614882 111.018281 
L 298.675676 112.838375 
L 298.753949 114.65847 
L 298.853109 116.478565 
L 298.974116 118.29866 
L 299.115368 120.118755 
L 299.27327 121.93885 
L 299.443309 123.758945 
L 299.621354 125.57904 
L 299.804901 127.399135 
L 299.993953 129.21923 
L 300.191265 131.039325 
L 300.401806 132.85942 
L 300.631497 134.679514 
L 300.885603 136.499609 
L 301.167265 138.319704 
L 301.476657 140.139799 
L 301.811034 141.959894 
L 302.165661 143.779989 
L 302.535397 145.600084 
L 302.916427 147.420179 
L 303.307529 149.240274 
L 303.710319 151.060369 
L 304.128233 152.880464 
L 304.56452 154.700559 
L 305.019998 156.520654 
L 305.491487 158.340748 
L 305.971657 160.160843 
L 306.450403 161.980938 
L 306.9172 163.801033 
L 307.363471 165.621128 
L 307.784161 167.441223 
L 308.178167 169.261318 
L 308.547712 171.081413 
L 308.896881 172.901508 
L 309.229549 174.721603 
L 309.547182 176.541698 
L 309.847476 178.361793 
L 310.124829 180.181887 
L 310.372769 182.001982 
L 310.587018 183.822077 
L 310.766965 185.642172 
L 310.914014 187.462267 
L 311.027395 189.282362 
L 311.100203 191.102457 
L 311.118881 192.922552 
L 311.067649 194.742647 
L 310.936221 196.562742 
L 310.72676 198.382837 
L 310.455811 200.202932 
L 310.149412 202.023027 
L 309.833195 203.843121 
L 309.52207 205.663216 
L 309.214419 207.483311 
L 308.893514 209.303406 
L 308.535396 211.123501 
L 308.119565 212.943596 
L 307.637818 214.763691 
L 307.097772 216.583786 
L 306.52025 218.403881 
L 305.932345 220.223976 
L 305.359555 222.044071 
L 304.820133 223.864166 
L 304.323189 225.68426 
L 303.870112 227.504355 
L 303.457525 229.32445 
L 303.079922 231.144545 
L 302.731021 232.96464 
L 302.40404 234.784735 
L 302.091727 236.60483 
L 301.786881 238.424925 
L 301.483537 240.24502 
L 301.178359 242.065115 
L 300.871633 243.88521 
L 300.567361 245.705305 
L 300.272395 247.525399 
L 299.994902 249.345494 
L 299.742623 251.165589 
L 299.521391 252.985684 
L 299.334153 254.805779 
L 299.180567 256.625874 
L 299.057139 258.445969 
L 298.957847 260.266064 
L 298.87521 262.086159 
L 298.801625 263.906254 
L 298.7307 265.726349 
L 298.658251 267.546444 
L 298.582736 269.366539 
L 298.505091 271.186633 
L 298.428085 273.006728 
z
" clip-path="url(#p83068b6cca)" style="fill: #1f77b4; fill-opacity: 0.3"/>
   </g>
   <g id="PolyCollection_5">
    <path d="M 350.343045 369.36 
L 349.936676 369.36 
L 349.891019 367.462026 
L 349.847782 365.564052 
L 349.807825 363.666078 
L 349.769574 361.768104 
L 349.729273 359.870129 
L 349.682173 357.972155 
L 349.624159 356.074181 
L 349.552895 354.176207 
L 349.467687 352.278233 
L 349.36791 350.380259 
L 349.250856 348.482285 
L 349.110564 346.584311 
L 348.938941 344.686336 
L 348.729119 342.788362 
L 348.479355 340.890388 
L 348.194925 338.992414 
L 347.886426 337.09444 
L 347.565179 335.196466 
L 347.238476 333.298492 
L 346.907613 331.400518 
L 346.569678 329.502544 
L 346.221403 327.604569 
L 345.862155 325.706595 
L 345.494195 323.808621 
L 345.120611 321.910647 
L 344.74289 320.012673 
L 344.359909 318.114699 
L 343.968657 316.216725 
L 343.565727 314.318751 
L 343.148417 312.420777 
L 342.715062 310.522802 
L 342.265127 308.624828 
L 341.799903 306.726854 
L 341.324052 304.82888 
L 340.847212 302.930906 
L 340.384163 301.032932 
L 339.952333 299.134958 
L 339.566877 297.236984 
L 339.235279 295.339009 
L 338.954353 293.441035 
L 338.711663 291.543061 
L 338.490982 289.645087 
L 338.278978 287.747113 
L 338.06946 285.849139 
L 337.863324 283.951165 
L 337.665467 282.053191 
L 337.482147 280.155217 
L 337.321648 278.257242 
L 337.197837 276.359268 
L 337.132867 274.461294 
L 337.154663 272.56332 
L 337.288041 270.665346 
L 337.543209 268.767372 
L 337.908422 266.869398 
L 338.352029 264.971424 
L 338.833744 263.073449 
L 339.319384 261.175475 
L 339.79148 259.277501 
L 340.251115 257.379527 
L 340.711685 255.481553 
L 341.189252 253.583579 
L 341.69453 251.685605 
L 342.229142 249.787631 
L 342.785979 247.889657 
L 343.351977 245.991682 
L 343.911651 244.093708 
L 344.450357 242.195734 
L 344.956719 240.29776 
L 345.423901 238.399786 
L 345.849616 236.501812 
L 346.235099 234.603838 
L 346.58365 232.705864 
L 346.899379 230.80789 
L 347.186509 228.909915 
L 347.449102 227.011941 
L 347.690866 225.113967 
L 347.914853 223.215993 
L 348.123166 221.318019 
L 348.316928 219.420045 
L 348.496509 217.522071 
L 348.661849 215.624097 
L 348.812729 213.726122 
L 348.949125 211.828148 
L 349.071802 209.930174 
L 349.18296 208.0322 
L 349.286355 206.134226 
L 349.386438 204.236252 
L 349.486704 202.338278 
L 349.588104 200.440304 
L 349.688512 198.54233 
L 349.783556 196.644355 
L 349.868335 194.746381 
L 349.939107 192.848407 
L 349.994247 190.950433 
L 350.034331 189.052459 
L 350.061609 187.154485 
L 350.079256 185.256511 
L 350.090628 183.358537 
L 350.098646 181.460563 
L 350.181075 181.460563 
L 350.181075 181.460563 
L 350.189092 183.358537 
L 350.200464 185.256511 
L 350.218111 187.154485 
L 350.245389 189.052459 
L 350.285473 190.950433 
L 350.340614 192.848407 
L 350.411386 194.746381 
L 350.496165 196.644355 
L 350.591208 198.54233 
L 350.691616 200.440304 
L 350.793017 202.338278 
L 350.893282 204.236252 
L 350.993365 206.134226 
L 351.09676 208.0322 
L 351.207918 209.930174 
L 351.330596 211.828148 
L 351.466992 213.726122 
L 351.617871 215.624097 
L 351.783211 217.522071 
L 351.962792 219.420045 
L 352.156554 221.318019 
L 352.364868 223.215993 
L 352.588854 225.113967 
L 352.830619 227.011941 
L 353.093211 228.909915 
L 353.380341 230.80789 
L 353.69607 232.705864 
L 354.044621 234.603838 
L 354.430104 236.501812 
L 354.855819 238.399786 
L 355.323001 240.29776 
L 355.829363 242.195734 
L 356.368069 244.093708 
L 356.927743 245.991682 
L 357.493741 247.889657 
L 358.050578 249.787631 
L 358.585191 251.685605 
L 359.090469 253.583579 
L 359.568036 255.481553 
L 360.028605 257.379527 
L 360.48824 259.277501 
L 360.960336 261.175475 
L 361.445976 263.073449 
L 361.927691 264.971424 
L 362.371299 266.869398 
L 362.736512 268.767372 
L 362.991679 270.665346 
L 363.125057 272.56332 
L 363.146853 274.461294 
L 363.081883 276.359268 
L 362.958073 278.257242 
L 362.797573 280.155217 
L 362.614254 282.053191 
L 362.416397 283.951165 
L 362.210261 285.849139 
L 362.000742 287.747113 
L 361.788738 289.645087 
L 361.568058 291.543061 
L 361.325367 293.441035 
L 361.044441 295.339009 
L 360.712843 297.236984 
L 360.327387 299.134958 
L 359.895558 301.032932 
L 359.432508 302.930906 
L 358.955669 304.82888 
L 358.479817 306.726854 
L 358.014593 308.624828 
L 357.564659 310.522802 
L 357.131303 312.420777 
L 356.713993 314.318751 
L 356.311063 316.216725 
L 355.919811 318.114699 
L 355.53683 320.012673 
L 355.15911 321.910647 
L 354.785525 323.808621 
L 354.417565 325.706595 
L 354.058317 327.604569 
L 353.710042 329.502544 
L 353.372108 331.400518 
L 353.041244 333.298492 
L 352.714541 335.196466 
L 352.393295 337.09444 
L 352.084796 338.992414 
L 351.800365 340.890388 
L 351.550601 342.788362 
L 351.34078 344.686336 
L 351.169156 346.584311 
L 351.028865 348.482285 
L 350.91181 350.380259 
L 350.812033 352.278233 
L 350.726826 354.176207 
L 350.655561 356.074181 
L 350.597547 357.972155 
L 350.550448 359.870129 
L 350.510146 361.768104 
L 350.471896 363.666078 
L 350.431938 365.564052 
L 350.388701 367.462026 
L 350.343045 369.36 
z
" clip-path="url(#p83068b6cca)" style="fill: #1f77b4; fill-opacity: 0.3"/>
   </g>
   <g id="PolyCollection_6">
    <path d="M 402.213512 310.968695 
L 402.122152 310.968695 
L 402.11763 308.810757 
L 402.11619 306.652818 
L 402.117772 304.49488 
L 402.121479 302.336941 
L 402.125392 300.179003 
L 402.126487 298.021065 
L 402.120833 295.863126 
L 402.104173 293.705188 
L 402.072862 291.547249 
L 402.024966 289.389311 
L 401.961145 287.231372 
L 401.884858 285.073434 
L 401.80157 282.915495 
L 401.717011 280.757557 
L 401.635122 278.599618 
L 401.556562 276.44168 
L 401.478491 274.283742 
L 401.395775 272.125803 
L 401.303044 269.967865 
L 401.196559 267.809926 
L 401.074649 265.651988 
L 400.935989 263.494049 
L 400.776218 261.336111 
L 400.585 259.178172 
L 400.346244 257.020234 
L 400.042843 254.862296 
L 399.664158 252.704357 
L 399.211945 250.546419 
L 398.700808 248.38848 
L 398.15262 246.230542 
L 397.588216 244.072603 
L 397.021068 241.914665 
L 396.455889 239.756726 
L 395.892055 237.598788 
L 395.329216 235.440849 
L 394.771467 233.282911 
L 394.227113 231.124973 
L 393.703491 228.967034 
L 393.199885 226.809096 
L 392.704071 224.651157 
L 392.197019 222.493219 
L 391.665078 220.33528 
L 391.112833 218.177342 
L 390.567671 216.019403 
L 390.071885 213.861465 
L 389.666747 211.703527 
L 389.378412 209.545588 
L 389.21304 207.38765 
L 389.160839 205.229711 
L 389.202918 203.071773 
L 389.3156 200.913834 
L 389.47184 198.755896 
L 389.643023 196.597957 
L 389.803596 194.440019 
L 389.937515 192.28208 
L 390.043139 190.124142 
L 390.133959 187.966204 
L 390.235034 185.808265 
L 390.376958 183.650327 
L 390.589397 181.492388 
L 390.89549 179.33445 
L 391.307996 177.176511 
L 391.827789 175.018573 
L 392.444693 172.860634 
L 393.139735 170.702696 
L 393.8875 168.544757 
L 394.657905 166.386819 
L 395.417768 164.228881 
L 396.133179 162.070942 
L 396.773639 159.913004 
L 397.318022 157.755065 
L 397.760626 155.597127 
L 398.113982 153.439188 
L 398.405458 151.28125 
L 398.667844 149.123311 
L 398.928027 146.965373 
L 399.199228 144.807435 
L 399.480002 142.649496 
L 399.759164 140.491558 
L 400.023181 138.333619 
L 400.262405 136.175681 
L 400.474048 134.017742 
L 400.661648 131.859804 
L 400.832136 129.701865 
L 400.99232 127.543927 
L 401.146416 125.385988 
L 401.295401 123.22805 
L 401.437857 121.070112 
L 401.57138 118.912173 
L 401.693632 116.754235 
L 401.802668 114.596296 
L 401.896783 112.438358 
L 401.974407 110.280419 
L 402.034455 108.122481 
L 402.077045 105.964542 
L 402.104088 103.806604 
L 402.119238 101.648665 
L 402.127076 99.490727 
L 402.13187 97.332789 
L 402.203794 97.332789 
L 402.203794 97.332789 
L 402.208588 99.490727 
L 402.216426 101.648665 
L 402.231576 103.806604 
L 402.258619 105.964542 
L 402.301209 108.122481 
L 402.361257 110.280419 
L 402.438881 112.438358 
L 402.532996 114.596296 
L 402.642033 116.754235 
L 402.764284 118.912173 
L 402.897807 121.070112 
L 403.040263 123.22805 
L 403.189248 125.385988 
L 403.343345 127.543927 
L 403.503528 129.701865 
L 403.674016 131.859804 
L 403.861616 134.017742 
L 404.073259 136.175681 
L 404.312483 138.333619 
L 404.5765 140.491558 
L 404.855663 142.649496 
L 405.136436 144.807435 
L 405.407638 146.965373 
L 405.66782 149.123311 
L 405.930207 151.28125 
L 406.221682 153.439188 
L 406.575038 155.597127 
L 407.017642 157.755065 
L 407.562025 159.913004 
L 408.202486 162.070942 
L 408.917896 164.228881 
L 409.677759 166.386819 
L 410.448164 168.544757 
L 411.195929 170.702696 
L 411.890972 172.860634 
L 412.507876 175.018573 
L 413.027668 177.176511 
L 413.440175 179.33445 
L 413.746268 181.492388 
L 413.958706 183.650327 
L 414.100631 185.808265 
L 414.201705 187.966204 
L 414.292525 190.124142 
L 414.39815 192.28208 
L 414.532068 194.440019 
L 414.692642 196.597957 
L 414.863824 198.755896 
L 415.020064 200.913834 
L 415.132746 203.071773 
L 415.174825 205.229711 
L 415.122624 207.38765 
L 414.957253 209.545588 
L 414.668917 211.703527 
L 414.26378 213.861465 
L 413.767994 216.019403 
L 413.222832 218.177342 
L 412.670587 220.33528 
L 412.138646 222.493219 
L 411.631593 224.651157 
L 411.13578 226.809096 
L 410.632173 228.967034 
L 410.108552 231.124973 
L 409.564197 233.282911 
L 409.006448 235.440849 
L 408.443609 237.598788 
L 407.879776 239.756726 
L 407.314597 241.914665 
L 406.747449 244.072603 
L 406.183045 246.230542 
L 405.634856 248.38848 
L 405.12372 250.546419 
L 404.671507 252.704357 
L 404.292821 254.862296 
L 403.989421 257.020234 
L 403.750664 259.178172 
L 403.559446 261.336111 
L 403.399676 263.494049 
L 403.261015 265.651988 
L 403.139105 267.809926 
L 403.03262 269.967865 
L 402.93989 272.125803 
L 402.857174 274.283742 
L 402.779103 276.44168 
L 402.700542 278.599618 
L 402.618654 280.757557 
L 402.534095 282.915495 
L 402.450806 285.073434 
L 402.37452 287.231372 
L 402.310698 289.389311 
L 402.262802 291.547249 
L 402.231491 293.705188 
L 402.214831 295.863126 
L 402.209178 298.021065 
L 402.210273 300.179003 
L 402.214185 302.336941 
L 402.217892 304.49488 
L 402.219475 306.652818 
L 402.218034 308.810757 
L 402.213512 310.968695 
z
" clip-path="url(#p83068b6cca)" style="fill: #1f77b4; fill-opacity: 0.3"/>
   </g>
   <g id="PolyCollection_7">
    <path d="M 454.313523 268.60939 
L 454.078085 268.60939 
L 454.047619 266.619216 
L 454.01388 264.629041 
L 453.975308 262.638867 
L 453.929534 260.648692 
L 453.874216 258.658518 
L 453.808155 256.668343 
L 453.732117 254.678169 
L 453.648729 252.687994 
L 453.561183 250.69782 
L 453.471144 248.707645 
L 453.3768 246.717471 
L 453.272112 244.727296 
L 453.147736 242.737122 
L 452.99337 240.746947 
L 452.800497 238.756773 
L 452.564307 236.766598 
L 452.283955 234.776424 
L 451.961269 232.786249 
L 451.599024 230.796075 
L 451.200178 228.8059 
L 450.768624 226.815726 
L 450.310674 224.825551 
L 449.835659 222.835377 
L 449.354507 220.845202 
L 448.876675 218.855028 
L 448.40717 216.864853 
L 447.945596 214.874679 
L 447.487888 212.884504 
L 447.029634 210.89433 
L 446.568863 208.904155 
L 446.106699 206.913981 
L 445.64589 204.923806 
L 445.188588 202.933632 
L 444.735078 200.943457 
L 444.284275 198.953283 
L 443.83564 196.963108 
L 443.391356 194.972933 
L 442.9576 192.982759 
L 442.5444 190.992584 
L 442.164365 189.00241 
L 441.831055 187.012235 
L 441.557501 185.022061 
L 441.354855 183.031886 
L 441.230933 181.041712 
L 441.188811 179.051537 
L 441.226193 177.061363 
L 441.336193 175.071188 
L 441.509336 173.081014 
L 441.735707 171.090839 
L 442.006114 169.100665 
L 442.311963 167.11049 
L 442.644597 165.120316 
L 442.995192 163.130141 
L 443.355863 161.139967 
L 443.721552 159.149792 
L 444.091453 157.159618 
L 444.468791 155.169443 
L 444.858896 153.179269 
L 445.266796 151.189094 
L 445.695781 149.19892 
L 446.147303 147.208745 
L 446.621193 145.218571 
L 447.115068 143.228396 
L 447.622939 141.238222 
L 448.134353 139.248047 
L 448.635485 137.257873 
L 449.112346 135.267698 
L 449.554787 133.277524 
L 449.959312 131.287349 
L 450.329347 129.297175 
L 450.672884 127.307 
L 450.998628 125.316826 
L 451.312326 123.326651 
L 451.614804 121.336477 
L 451.9024 119.346302 
L 452.169325 117.356128 
L 452.410629 115.365953 
L 452.624242 113.375779 
L 452.811316 111.385604 
L 452.97516 109.39543 
L 453.119748 107.405255 
L 453.248722 105.41508 
L 453.365144 103.424906 
L 453.471631 101.434731 
L 453.570343 99.444557 
L 453.662656 97.454382 
L 453.748797 95.464208 
L 453.82785 93.474033 
L 453.898298 91.483859 
L 453.958841 89.493684 
L 454.009009 87.50351 
L 454.049284 85.513335 
L 454.080778 83.523161 
L 454.104775 81.532986 
L 454.122488 79.542812 
L 454.135095 77.552637 
L 454.143913 75.562463 
L 454.15043 73.572288 
L 454.156086 71.582114 
L 454.235523 71.582114 
L 454.235523 71.582114 
L 454.241178 73.572288 
L 454.247695 75.562463 
L 454.256513 77.552637 
L 454.26912 79.542812 
L 454.286833 81.532986 
L 454.310831 83.523161 
L 454.342324 85.513335 
L 454.3826 87.50351 
L 454.432767 89.493684 
L 454.49331 91.483859 
L 454.563759 93.474033 
L 454.642811 95.464208 
L 454.728952 97.454382 
L 454.821266 99.444557 
L 454.919978 101.434731 
L 455.026465 103.424906 
L 455.142887 105.41508 
L 455.271861 107.405255 
L 455.416448 109.39543 
L 455.580292 111.385604 
L 455.767366 113.375779 
L 455.980979 115.365953 
L 456.222284 117.356128 
L 456.489209 119.346302 
L 456.776804 121.336477 
L 457.079283 123.326651 
L 457.392981 125.316826 
L 457.718724 127.307 
L 458.062262 129.297175 
L 458.432296 131.287349 
L 458.836821 133.277524 
L 459.279262 135.267698 
L 459.756124 137.257873 
L 460.257255 139.248047 
L 460.76867 141.238222 
L 461.276541 143.228396 
L 461.770416 145.218571 
L 462.244306 147.208745 
L 462.695827 149.19892 
L 463.124813 151.189094 
L 463.532712 153.179269 
L 463.922817 155.169443 
L 464.300155 157.159618 
L 464.670056 159.149792 
L 465.035745 161.139967 
L 465.396416 163.130141 
L 465.747011 165.120316 
L 466.079645 167.11049 
L 466.385495 169.100665 
L 466.655901 171.090839 
L 466.882272 173.081014 
L 467.055415 175.071188 
L 467.165415 177.061363 
L 467.202797 179.051537 
L 467.160676 181.041712 
L 467.036754 183.031886 
L 466.834108 185.022061 
L 466.560553 187.012235 
L 466.227243 189.00241 
L 465.847208 190.992584 
L 465.434008 192.982759 
L 465.000253 194.972933 
L 464.555968 196.963108 
L 464.107334 198.953283 
L 463.656531 200.943457 
L 463.20302 202.933632 
L 462.745718 204.923806 
L 462.284909 206.913981 
L 461.822746 208.904155 
L 461.361975 210.89433 
L 460.903721 212.884504 
L 460.446012 214.874679 
L 459.984438 216.864853 
L 459.514933 218.855028 
L 459.037101 220.845202 
L 458.55595 222.835377 
L 458.080934 224.825551 
L 457.622985 226.815726 
L 457.19143 228.8059 
L 456.792585 230.796075 
L 456.43034 232.786249 
L 456.107653 234.776424 
L 455.827301 236.766598 
L 455.591111 238.756773 
L 455.398238 240.746947 
L 455.243872 242.737122 
L 455.119497 244.727296 
L 455.014808 246.717471 
L 454.920465 248.707645 
L 454.830425 250.69782 
L 454.74288 252.687994 
L 454.659492 254.678169 
L 454.583454 256.668343 
L 454.517393 258.658518 
L 454.462075 260.648692 
L 454.416301 262.638867 
L 454.377729 264.629041 
L 454.343989 266.619216 
L 454.313523 268.60939 
z
" clip-path="url(#p83068b6cca)" style="fill: #1f77b4; fill-opacity: 0.3"/>
   </g>
   <g id="PolyCollection_8">
    <path d="M 506.348532 280.248716 
L 506.09902 280.248716 
L 506.063645 278.193844 
L 506.024918 276.138973 
L 505.982139 274.084101 
L 505.933721 272.029229 
L 505.877918 269.974357 
L 505.81383 267.919485 
L 505.74198 265.864613 
L 505.663861 263.809742 
L 505.580515 261.75487 
L 505.491089 259.699998 
L 505.392524 257.645126 
L 505.280819 255.590254 
L 505.153054 253.535382 
L 505.008663 251.480511 
L 504.848953 249.425639 
L 504.675212 247.370767 
L 504.486847 245.315895 
L 504.28087 243.261023 
L 504.052985 241.206151 
L 503.799352 239.15128 
L 503.517846 237.096408 
L 503.20828 235.041536 
L 502.871924 232.986664 
L 502.510951 230.931792 
L 502.128155 228.87692 
L 501.726837 226.822049 
L 501.3107 224.767177 
L 500.883758 222.712305 
L 500.45025 220.657433 
L 500.014275 218.602561 
L 499.578548 216.547689 
L 499.142092 214.492818 
L 498.697888 212.437946 
L 498.232882 210.383074 
L 497.732561 208.328202 
L 497.189764 206.27333 
L 496.613544 204.218458 
L 496.031869 202.163587 
L 495.484351 200.108715 
L 495.007333 198.053843 
L 494.619225 195.998971 
L 494.31454 193.944099 
L 494.069833 191.889227 
L 493.857537 189.834356 
L 493.659792 187.779484 
L 493.475942 185.724612 
L 493.322161 183.66974 
L 493.225638 181.614868 
L 493.216783 179.559996 
L 493.321718 177.505125 
L 493.555979 175.450253 
L 493.91986 173.395381 
L 494.396146 171.340509 
L 494.951412 169.285637 
L 495.541839 167.230765 
L 496.123098 165.175894 
L 496.661634 163.121022 
L 497.143094 161.06615 
L 497.574221 159.011278 
L 497.97725 156.956406 
L 498.379306 154.901534 
L 498.801379 152.846663 
L 499.251281 150.791791 
L 499.722808 148.736919 
L 500.200449 146.682047 
L 500.666786 144.627175 
L 501.109222 142.572303 
L 501.523764 140.517432 
L 501.91516 138.46256 
L 502.293879 136.407688 
L 502.670989 134.352816 
L 503.052533 132.297944 
L 503.435529 130.243072 
L 503.807603 128.188201 
L 504.150875 126.133329 
L 504.448585 124.078457 
L 504.691479 122.023585 
L 504.881077 119.968713 
L 505.028637 117.913841 
L 505.15059 115.85897 
L 505.262684 113.804098 
L 505.375326 111.749226 
L 505.491742 109.694354 
L 505.609161 107.639482 
L 505.72179 105.58461 
L 505.823866 103.529739 
L 505.9115 101.474867 
L 505.983054 99.419995 
L 506.038603 97.365123 
L 506.079227 95.310251 
L 506.106535 93.255379 
L 506.122451 91.200508 
L 506.129124 89.145636 
L 506.128927 87.090764 
L 506.124521 85.035892 
L 506.118897 82.98102 
L 506.115195 80.926148 
L 506.116142 78.871277 
L 506.123273 76.816405 
L 506.324279 76.816405 
L 506.324279 76.816405 
L 506.331411 78.871277 
L 506.332357 80.926148 
L 506.328655 82.98102 
L 506.323032 85.035892 
L 506.318625 87.090764 
L 506.318429 89.145636 
L 506.325102 91.200508 
L 506.341017 93.255379 
L 506.368326 95.310251 
L 506.40895 97.365123 
L 506.464499 99.419995 
L 506.536053 101.474867 
L 506.623687 103.529739 
L 506.725763 105.58461 
L 506.838391 107.639482 
L 506.95581 109.694354 
L 507.072227 111.749226 
L 507.184868 113.804098 
L 507.296963 115.85897 
L 507.418915 117.913841 
L 507.566475 119.968713 
L 507.756074 122.023585 
L 507.998967 124.078457 
L 508.296678 126.133329 
L 508.639949 128.188201 
L 509.012023 130.243072 
L 509.395019 132.297944 
L 509.776563 134.352816 
L 510.153673 136.407688 
L 510.532392 138.46256 
L 510.923789 140.517432 
L 511.338331 142.572303 
L 511.780767 144.627175 
L 512.247103 146.682047 
L 512.724745 148.736919 
L 513.196272 150.791791 
L 513.646173 152.846663 
L 514.068246 154.901534 
L 514.470303 156.956406 
L 514.873332 159.011278 
L 515.304459 161.06615 
L 515.785919 163.121022 
L 516.324454 165.175894 
L 516.905714 167.230765 
L 517.49614 169.285637 
L 518.051406 171.340509 
L 518.527693 173.395381 
L 518.891574 175.450253 
L 519.125834 177.505125 
L 519.230769 179.559996 
L 519.221915 181.614868 
L 519.125392 183.66974 
L 518.97161 185.724612 
L 518.78776 187.779484 
L 518.590015 189.834356 
L 518.377719 191.889227 
L 518.133012 193.944099 
L 517.828327 195.998971 
L 517.440219 198.053843 
L 516.963201 200.108715 
L 516.415684 202.163587 
L 515.834008 204.218458 
L 515.257789 206.27333 
L 514.714991 208.328202 
L 514.21467 210.383074 
L 513.749665 212.437946 
L 513.305461 214.492818 
L 512.869004 216.547689 
L 512.433278 218.602561 
L 511.997302 220.657433 
L 511.563794 222.712305 
L 511.136852 224.767177 
L 510.720716 226.822049 
L 510.319397 228.87692 
L 509.936601 230.931792 
L 509.575628 232.986664 
L 509.239272 235.041536 
L 508.929707 237.096408 
L 508.648201 239.15128 
L 508.394568 241.206151 
L 508.166683 243.261023 
L 507.960706 245.315895 
L 507.772341 247.370767 
L 507.5986 249.425639 
L 507.438889 251.480511 
L 507.294499 253.535382 
L 507.166734 255.590254 
L 507.055028 257.645126 
L 506.956463 259.699998 
L 506.867037 261.75487 
L 506.783691 263.809742 
L 506.705572 265.864613 
L 506.633723 267.919485 
L 506.569634 269.974357 
L 506.513831 272.029229 
L 506.465414 274.084101 
L 506.422635 276.138973 
L 506.383908 278.193844 
L 506.348532 280.248716 
z
" clip-path="url(#p83068b6cca)" style="fill: #1f77b4; fill-opacity: 0.3"/>
   </g>
   <g id="PolyCollection_9">
    <path d="M 558.281324 364.044954 
L 558.222172 364.044954 
L 558.224161 361.500616 
L 558.229358 358.956277 
L 558.235934 356.411939 
L 558.242012 353.867601 
L 558.246463 351.323262 
L 558.249015 348.778924 
L 558.249817 346.234585 
L 558.248904 343.690247 
L 558.245878 341.145909 
L 558.239979 338.60157 
L 558.230493 336.057232 
L 558.217274 333.512894 
L 558.20093 330.968555 
L 558.182361 328.424217 
L 558.16186 325.879878 
L 558.138615 323.33554 
L 558.111342 320.791202 
L 558.079616 318.246863 
L 558.0443 315.702525 
L 558.005643 313.158186 
L 557.959806 310.613848 
L 557.896847 308.06951 
L 557.802904 305.525171 
L 557.665721 302.980833 
L 557.478936 300.436495 
L 557.241062 297.892156 
L 556.95037 295.347818 
L 556.602026 292.803479 
L 556.192918 290.259141 
L 555.73193 287.714803 
L 555.245832 285.170464 
L 554.771743 282.626126 
L 554.337833 280.081787 
L 553.945515 277.537449 
L 553.567422 274.993111 
L 553.163665 272.448772 
L 552.704875 269.904434 
L 552.186736 267.360096 
L 551.628769 264.815757 
L 551.061258 262.271419 
L 550.509825 259.72708 
L 549.985973 257.182742 
L 549.486992 254.638404 
L 549.00309 252.094065 
L 548.525721 249.549727 
L 548.050692 247.005388 
L 547.574503 244.46105 
L 547.090649 241.916712 
L 546.59594 239.372373 
L 546.107203 236.828035 
L 545.673259 234.283697 
L 545.365015 231.739358 
L 545.244755 229.19502 
L 545.335658 226.650681 
L 545.612455 224.106343 
L 546.015768 221.562005 
L 546.476542 219.017666 
L 546.9362 216.473328 
L 547.357398 213.928989 
L 547.727761 211.384651 
L 548.059669 208.840313 
L 548.385735 206.295974 
L 548.747864 203.751636 
L 549.180784 201.207298 
L 549.696829 198.662959 
L 550.281257 196.118621 
L 550.902117 193.574282 
L 551.528534 191.029944 
L 552.144707 188.485606 
L 552.750378 185.941267 
L 553.349828 183.396929 
L 553.940332 180.85259 
L 554.509074 178.308252 
L 555.038102 175.763914 
L 555.510947 173.219575 
L 555.916902 170.675237 
L 556.253457 168.130899 
L 556.527466 165.58656 
L 556.753408 163.042222 
L 556.948046 160.497883 
L 557.124299 157.953545 
L 557.288214 155.409207 
L 557.440034 152.864868 
L 557.577236 150.32053 
L 557.69723 147.776191 
L 557.799037 145.231853 
L 557.884095 142.687515 
L 557.955951 140.143176 
L 558.018655 137.598838 
L 558.074743 135.0545 
L 558.124273 132.510161 
L 558.165526 129.965823 
L 558.196605 127.421484 
L 558.216732 124.877146 
L 558.226722 122.332808 
L 558.228849 119.788469 
L 558.226417 117.244131 
L 558.223073 114.699792 
L 558.221815 112.155454 
L 558.281681 112.155454 
L 558.281681 112.155454 
L 558.280424 114.699792 
L 558.27708 117.244131 
L 558.274648 119.788469 
L 558.276774 122.332808 
L 558.286765 124.877146 
L 558.306892 127.421484 
L 558.337971 129.965823 
L 558.379224 132.510161 
L 558.428754 135.0545 
L 558.484842 137.598838 
L 558.547546 140.143176 
L 558.619402 142.687515 
L 558.70446 145.231853 
L 558.806266 147.776191 
L 558.92626 150.32053 
L 559.063463 152.864868 
L 559.215283 155.409207 
L 559.379198 157.953545 
L 559.55545 160.497883 
L 559.750088 163.042222 
L 559.976031 165.58656 
L 560.25004 168.130899 
L 560.586595 170.675237 
L 560.99255 173.219575 
L 561.465395 175.763914 
L 561.994423 178.308252 
L 562.563165 180.85259 
L 563.153668 183.396929 
L 563.753118 185.941267 
L 564.358789 188.485606 
L 564.974962 191.029944 
L 565.601379 193.574282 
L 566.222239 196.118621 
L 566.806668 198.662959 
L 567.322713 201.207298 
L 567.755632 203.751636 
L 568.117762 206.295974 
L 568.443828 208.840313 
L 568.775735 211.384651 
L 569.146099 213.928989 
L 569.567296 216.473328 
L 570.026955 219.017666 
L 570.487728 221.562005 
L 570.891041 224.106343 
L 571.167838 226.650681 
L 571.258741 229.19502 
L 571.138482 231.739358 
L 570.830238 234.283697 
L 570.396293 236.828035 
L 569.907556 239.372373 
L 569.412848 241.916712 
L 568.928994 244.46105 
L 568.452805 247.005388 
L 567.977776 249.549727 
L 567.500406 252.094065 
L 567.016504 254.638404 
L 566.517523 257.182742 
L 565.993672 259.72708 
L 565.442238 262.271419 
L 564.874728 264.815757 
L 564.316761 267.360096 
L 563.798621 269.904434 
L 563.339832 272.448772 
L 562.936075 274.993111 
L 562.557982 277.537449 
L 562.165664 280.081787 
L 561.731754 282.626126 
L 561.257665 285.170464 
L 560.771566 287.714803 
L 560.310579 290.259141 
L 559.901471 292.803479 
L 559.553126 295.347818 
L 559.262434 297.892156 
L 559.024561 300.436495 
L 558.837776 302.980833 
L 558.700592 305.525171 
L 558.60665 308.06951 
L 558.543691 310.613848 
L 558.497854 313.158186 
L 558.459197 315.702525 
L 558.423881 318.246863 
L 558.392155 320.791202 
L 558.364881 323.33554 
L 558.341637 325.879878 
L 558.321136 328.424217 
L 558.302567 330.968555 
L 558.286222 333.512894 
L 558.273003 336.057232 
L 558.263518 338.60157 
L 558.257619 341.145909 
L 558.254592 343.690247 
L 558.253679 346.234585 
L 558.254482 348.778924 
L 558.257033 351.323262 
L 558.261484 353.867601 
L 558.267562 356.411939 
L 558.274138 358.956277 
L 558.279336 361.500616 
L 558.281324 364.044954 
z
" clip-path="url(#p83068b6cca)" style="fill: #1f77b4; fill-opacity: 0.3"/>
   </g>
   <g id="PolyCollection_10">
    <path d="M 610.332024 310.108007 
L 610.227417 310.108007 
L 610.214172 308.019108 
L 610.199094 305.930208 
L 610.182195 303.841309 
L 610.163521 301.75241 
L 610.142474 299.66351 
L 610.11714 297.574611 
L 610.084421 295.485712 
L 610.041288 293.396812 
L 609.986519 291.307913 
L 609.9217 289.219014 
L 609.850645 287.130114 
L 609.777441 285.041215 
L 609.704296 282.952316 
L 609.630328 280.863416 
L 609.551682 278.774517 
L 609.462474 276.685618 
L 609.355811 274.596718 
L 609.224443 272.507819 
L 609.061245 270.41892 
L 608.860055 268.33002 
L 608.617284 266.241121 
L 608.333972 264.152221 
L 608.017082 262.063322 
L 607.678567 259.974423 
L 607.331699 257.885523 
L 606.985975 255.796624 
L 606.643269 253.707725 
L 606.297565 251.618825 
L 605.938444 249.529926 
L 605.556052 247.441027 
L 605.144624 245.352127 
L 604.703218 243.263228 
L 604.234656 241.174329 
L 603.744327 239.085429 
L 603.239099 236.99653 
L 602.725275 234.907631 
L 602.205382 232.818731 
L 601.675975 230.729832 
L 601.12938 228.640932 
L 600.559827 226.552033 
L 599.97071 224.463134 
L 599.378453 222.374234 
L 598.8108 220.285335 
L 598.300721 218.196436 
L 597.878678 216.107536 
L 597.565519 214.018637 
L 597.367697 211.929738 
L 597.276562 209.840838 
L 597.272727 207.751939 
L 597.334036 205.66304 
L 597.443026 203.57414 
L 597.589836 201.485241 
L 597.770119 199.396342 
L 597.981598 197.307442 
L 598.223581 195.218543 
L 598.499915 193.129644 
L 598.821399 191.040744 
L 599.203057 188.951845 
L 599.655957 186.862945 
L 600.178517 184.774046 
L 600.753364 182.685147 
L 601.351832 180.596247 
L 601.942971 178.507348 
L 602.501957 176.418449 
L 603.015048 174.329549 
L 603.481209 172.24065 
L 603.911316 170.151751 
L 604.324613 168.062851 
L 604.741866 165.973952 
L 605.176847 163.885053 
L 605.630259 161.796153 
L 606.089854 159.707254 
L 606.536744 157.618355 
L 606.953924 155.529455 
L 607.332095 153.440556 
L 607.67044 151.351657 
L 607.97349 149.262757 
L 608.247034 147.173858 
L 608.495441 145.084958 
L 608.721071 142.996059 
L 608.925087 140.90716 
L 609.108534 138.81826 
L 609.272809 136.729361 
L 609.419321 134.640462 
L 609.548788 132.551562 
L 609.660942 130.462663 
L 609.755091 128.373764 
L 609.831267 126.284864 
L 609.891146 124.195965 
L 609.938093 122.107066 
L 609.976331 120.018166 
L 610.009737 117.929267 
L 610.040893 115.840368 
L 610.070767 113.751468 
L 610.099094 111.662569 
L 610.12519 109.57367 
L 610.148746 107.48477 
L 610.170132 105.395871 
L 610.190085 103.306971 
L 610.369356 103.306971 
L 610.369356 103.306971 
L 610.389309 105.395871 
L 610.410695 107.48477 
L 610.434251 109.57367 
L 610.460347 111.662569 
L 610.488674 113.751468 
L 610.518548 115.840368 
L 610.549704 117.929267 
L 610.58311 120.018166 
L 610.621348 122.107066 
L 610.668295 124.195965 
L 610.728173 126.284864 
L 610.80435 128.373764 
L 610.898499 130.462663 
L 611.010652 132.551562 
L 611.14012 134.640462 
L 611.286632 136.729361 
L 611.450906 138.81826 
L 611.634353 140.90716 
L 611.83837 142.996059 
L 612.063999 145.084958 
L 612.312407 147.173858 
L 612.585951 149.262757 
L 612.889001 151.351657 
L 613.227345 153.440556 
L 613.605517 155.529455 
L 614.022696 157.618355 
L 614.469586 159.707254 
L 614.929181 161.796153 
L 615.382594 163.885053 
L 615.817575 165.973952 
L 616.234828 168.062851 
L 616.648124 170.151751 
L 617.078232 172.24065 
L 617.544393 174.329549 
L 618.057483 176.418449 
L 618.61647 178.507348 
L 619.207608 180.596247 
L 619.806077 182.685147 
L 620.380923 184.774046 
L 620.903484 186.862945 
L 621.356384 188.951845 
L 621.738042 191.040744 
L 622.059526 193.129644 
L 622.335859 195.218543 
L 622.577842 197.307442 
L 622.789322 199.396342 
L 622.969604 201.485241 
L 623.116415 203.57414 
L 623.225404 205.66304 
L 623.286713 207.751939 
L 623.282879 209.840838 
L 623.191744 211.929738 
L 622.993921 214.018637 
L 622.680762 216.107536 
L 622.25872 218.196436 
L 621.748641 220.285335 
L 621.180987 222.374234 
L 620.588731 224.463134 
L 619.999614 226.552033 
L 619.43006 228.640932 
L 618.883465 230.729832 
L 618.354059 232.818731 
L 617.834166 234.907631 
L 617.320341 236.99653 
L 616.815114 239.085429 
L 616.324785 241.174329 
L 615.856223 243.263228 
L 615.414816 245.352127 
L 615.003389 247.441027 
L 614.620997 249.529926 
L 614.261875 251.618825 
L 613.916171 253.707725 
L 613.573465 255.796624 
L 613.227741 257.885523 
L 612.880874 259.974423 
L 612.542358 262.063322 
L 612.225469 264.152221 
L 611.942157 266.241121 
L 611.699386 268.33002 
L 611.498195 270.41892 
L 611.334998 272.507819 
L 611.20363 274.596718 
L 611.096966 276.685618 
L 611.007758 278.774517 
L 610.929112 280.863416 
L 610.855145 282.952316 
L 610.781999 285.041215 
L 610.708795 287.130114 
L 610.63774 289.219014 
L 610.572922 291.307913 
L 610.518152 293.396812 
L 610.475019 295.485712 
L 610.442301 297.574611 
L 610.416967 299.66351 
L 610.39592 301.75241 
L 610.377246 303.841309 
L 610.360347 305.930208 
L 610.345269 308.019108 
L 610.332024 310.108007 
z
" clip-path="url(#p83068b6cca)" style="fill: #1f77b4; fill-opacity: 0.3"/>
   </g>
   <g id="matplotlib.axis_1">
    <g id="xtick_1">
     <g id="line2d_1">
      <defs>
       <path id="m4f53f11d9c" d="M 0 0 
L 0 3.5 
" style="stroke: #000000; stroke-width: 0.8"/>
      </defs>
      <g>
       <use xlink:href="#m4f53f11d9c" x="90" y="384.48" style="stroke: #000000; stroke-width: 0.8"/>
      </g>
     </g>
     <g id="text_1">
      <!-- 0 -->
      <g transform="translate(86.1825 400.598125) scale(0.12 -0.12)">
       <defs>
        <path id="DejaVuSans-30" d="M 2034 4250 
Q 1547 4250 1301 3770 
Q 1056 3291 1056 2328 
Q 1056 1369 1301 889 
Q 1547 409 2034 409 
Q 2525 409 2770 889 
Q 3016 1369 3016 2328 
Q 3016 3291 2770 3770 
Q 2525 4250 2034 4250 
z
M 2034 4750 
Q 2819 4750 3233 4129 
Q 3647 3509 3647 2328 
Q 3647 1150 3233 529 
Q 2819 -91 2034 -91 
Q 1250 -91 836 529 
Q 422 1150 422 2328 
Q 422 3509 836 4129 
Q 1250 4750 2034 4750 
z
" transform="scale(0.015625)"/>
       </defs>
       <use xlink:href="#DejaVuSans-30"/>
      </g>
     </g>
    </g>
    <g id="xtick_2">
     <g id="line2d_2">
      <g>
       <use xlink:href="#m4f53f11d9c" x="142.027972" y="384.48" style="stroke: #000000; stroke-width: 0.8"/>
      </g>
     </g>
     <g id="text_2">
      <!-- 1 -->
      <g transform="translate(138.210472 400.598125) scale(0.12 -0.12)">
       <defs>
        <path id="DejaVuSans-31" d="M 794 531 
L 1825 531 
L 1825 4091 
L 703 3866 
L 703 4441 
L 1819 4666 
L 2450 4666 
L 2450 531 
L 3481 531 
L 3481 0 
L 794 0 
L 794 531 
z
" transform="scale(0.015625)"/>
       </defs>
       <use xlink:href="#DejaVuSans-31"/>
      </g>
     </g>
    </g>
    <g id="xtick_3">
     <g id="line2d_3">
      <g>
       <use xlink:href="#m4f53f11d9c" x="194.055944" y="384.48" style="stroke: #000000; stroke-width: 0.8"/>
      </g>
     </g>
     <g id="text_3">
      <!-- 2 -->
      <g transform="translate(190.238444 400.598125) scale(0.12 -0.12)">
       <defs>
        <path id="DejaVuSans-32" d="M 1228 531 
L 3431 531 
L 3431 0 
L 469 0 
L 469 531 
Q 828 903 1448 1529 
Q 2069 2156 2228 2338 
Q 2531 2678 2651 2914 
Q 2772 3150 2772 3378 
Q 2772 3750 2511 3984 
Q 2250 4219 1831 4219 
Q 1534 4219 1204 4116 
Q 875 4013 500 3803 
L 500 4441 
Q 881 4594 1212 4672 
Q 1544 4750 1819 4750 
Q 2544 4750 2975 4387 
Q 3406 4025 3406 3419 
Q 3406 3131 3298 2873 
Q 3191 2616 2906 2266 
Q 2828 2175 2409 1742 
Q 1991 1309 1228 531 
z
" transform="scale(0.015625)"/>
       </defs>
       <use xlink:href="#DejaVuSans-32"/>
      </g>
     </g>
    </g>
    <g id="xtick_4">
     <g id="line2d_4">
      <g>
       <use xlink:href="#m4f53f11d9c" x="246.083916" y="384.48" style="stroke: #000000; stroke-width: 0.8"/>
      </g>
     </g>
     <g id="text_4">
      <!-- 3 -->
      <g transform="translate(242.266416 400.598125) scale(0.12 -0.12)">
       <defs>
        <path id="DejaVuSans-33" d="M 2597 2516 
Q 3050 2419 3304 2112 
Q 3559 1806 3559 1356 
Q 3559 666 3084 287 
Q 2609 -91 1734 -91 
Q 1441 -91 1130 -33 
Q 819 25 488 141 
L 488 750 
Q 750 597 1062 519 
Q 1375 441 1716 441 
Q 2309 441 2620 675 
Q 2931 909 2931 1356 
Q 2931 1769 2642 2001 
Q 2353 2234 1838 2234 
L 1294 2234 
L 1294 2753 
L 1863 2753 
Q 2328 2753 2575 2939 
Q 2822 3125 2822 3475 
Q 2822 3834 2567 4026 
Q 2313 4219 1838 4219 
Q 1578 4219 1281 4162 
Q 984 4106 628 3988 
L 628 4550 
Q 988 4650 1302 4700 
Q 1616 4750 1894 4750 
Q 2613 4750 3031 4423 
Q 3450 4097 3450 3541 
Q 3450 3153 3228 2886 
Q 3006 2619 2597 2516 
z
" transform="scale(0.015625)"/>
       </defs>
       <use xlink:href="#DejaVuSans-33"/>
      </g>
     </g>
    </g>
    <g id="xtick_5">
     <g id="line2d_5">
      <g>
       <use xlink:href="#m4f53f11d9c" x="298.111888" y="384.48" style="stroke: #000000; stroke-width: 0.8"/>
      </g>
     </g>
     <g id="text_5">
      <!-- 4 -->
      <g transform="translate(294.294388 400.598125) scale(0.12 -0.12)">
       <defs>
        <path id="DejaVuSans-34" d="M 2419 4116 
L 825 1625 
L 2419 1625 
L 2419 4116 
z
M 2253 4666 
L 3047 4666 
L 3047 1625 
L 3713 1625 
L 3713 1100 
L 3047 1100 
L 3047 0 
L 2419 0 
L 2419 1100 
L 313 1100 
L 313 1709 
L 2253 4666 
z
" transform="scale(0.015625)"/>
       </defs>
       <use xlink:href="#DejaVuSans-34"/>
      </g>
     </g>
    </g>
    <g id="xtick_6">
     <g id="line2d_6">
      <g>
       <use xlink:href="#m4f53f11d9c" x="350.13986" y="384.48" style="stroke: #000000; stroke-width: 0.8"/>
      </g>
     </g>
     <g id="text_6">
      <!-- 5 -->
      <g transform="translate(346.32236 400.598125) scale(0.12 -0.12)">
       <defs>
        <path id="DejaVuSans-35" d="M 691 4666 
L 3169 4666 
L 3169 4134 
L 1269 4134 
L 1269 2991 
Q 1406 3038 1543 3061 
Q 1681 3084 1819 3084 
Q 2600 3084 3056 2656 
Q 3513 2228 3513 1497 
Q 3513 744 3044 326 
Q 2575 -91 1722 -91 
Q 1428 -91 1123 -41 
Q 819 9 494 109 
L 494 744 
Q 775 591 1075 516 
Q 1375 441 1709 441 
Q 2250 441 2565 725 
Q 2881 1009 2881 1497 
Q 2881 1984 2565 2268 
Q 2250 2553 1709 2553 
Q 1456 2553 1204 2497 
Q 953 2441 691 2322 
L 691 4666 
z
" transform="scale(0.015625)"/>
       </defs>
       <use xlink:href="#DejaVuSans-35"/>
      </g>
     </g>
    </g>
    <g id="xtick_7">
     <g id="line2d_7">
      <g>
       <use xlink:href="#m4f53f11d9c" x="402.167832" y="384.48" style="stroke: #000000; stroke-width: 0.8"/>
      </g>
     </g>
     <g id="text_7">
      <!-- 6 -->
      <g transform="translate(398.350332 400.598125) scale(0.12 -0.12)">
       <defs>
        <path id="DejaVuSans-36" d="M 2113 2584 
Q 1688 2584 1439 2293 
Q 1191 2003 1191 1497 
Q 1191 994 1439 701 
Q 1688 409 2113 409 
Q 2538 409 2786 701 
Q 3034 994 3034 1497 
Q 3034 2003 2786 2293 
Q 2538 2584 2113 2584 
z
M 3366 4563 
L 3366 3988 
Q 3128 4100 2886 4159 
Q 2644 4219 2406 4219 
Q 1781 4219 1451 3797 
Q 1122 3375 1075 2522 
Q 1259 2794 1537 2939 
Q 1816 3084 2150 3084 
Q 2853 3084 3261 2657 
Q 3669 2231 3669 1497 
Q 3669 778 3244 343 
Q 2819 -91 2113 -91 
Q 1303 -91 875 529 
Q 447 1150 447 2328 
Q 447 3434 972 4092 
Q 1497 4750 2381 4750 
Q 2619 4750 2861 4703 
Q 3103 4656 3366 4563 
z
" transform="scale(0.015625)"/>
       </defs>
       <use xlink:href="#DejaVuSans-36"/>
      </g>
     </g>
    </g>
    <g id="xtick_8">
     <g id="line2d_8">
      <g>
       <use xlink:href="#m4f53f11d9c" x="454.195804" y="384.48" style="stroke: #000000; stroke-width: 0.8"/>
      </g>
     </g>
     <g id="text_8">
      <!-- 7 -->
      <g transform="translate(450.378304 400.598125) scale(0.12 -0.12)">
       <defs>
        <path id="DejaVuSans-37" d="M 525 4666 
L 3525 4666 
L 3525 4397 
L 1831 0 
L 1172 0 
L 2766 4134 
L 525 4134 
L 525 4666 
z
" transform="scale(0.015625)"/>
       </defs>
       <use xlink:href="#DejaVuSans-37"/>
      </g>
     </g>
    </g>
    <g id="xtick_9">
     <g id="line2d_9">
      <g>
       <use xlink:href="#m4f53f11d9c" x="506.223776" y="384.48" style="stroke: #000000; stroke-width: 0.8"/>
      </g>
     </g>
     <g id="text_9">
      <!-- 8 -->
      <g transform="translate(502.406276 400.598125) scale(0.12 -0.12)">
       <defs>
        <path id="DejaVuSans-38" d="M 2034 2216 
Q 1584 2216 1326 1975 
Q 1069 1734 1069 1313 
Q 1069 891 1326 650 
Q 1584 409 2034 409 
Q 2484 409 2743 651 
Q 3003 894 3003 1313 
Q 3003 1734 2745 1975 
Q 2488 2216 2034 2216 
z
M 1403 2484 
Q 997 2584 770 2862 
Q 544 3141 544 3541 
Q 544 4100 942 4425 
Q 1341 4750 2034 4750 
Q 2731 4750 3128 4425 
Q 3525 4100 3525 3541 
Q 3525 3141 3298 2862 
Q 3072 2584 2669 2484 
Q 3125 2378 3379 2068 
Q 3634 1759 3634 1313 
Q 3634 634 3220 271 
Q 2806 -91 2034 -91 
Q 1263 -91 848 271 
Q 434 634 434 1313 
Q 434 1759 690 2068 
Q 947 2378 1403 2484 
z
M 1172 3481 
Q 1172 3119 1398 2916 
Q 1625 2713 2034 2713 
Q 2441 2713 2670 2916 
Q 2900 3119 2900 3481 
Q 2900 3844 2670 4047 
Q 2441 4250 2034 4250 
Q 1625 4250 1398 4047 
Q 1172 3844 1172 3481 
z
" transform="scale(0.015625)"/>
       </defs>
       <use xlink:href="#DejaVuSans-38"/>
      </g>
     </g>
    </g>
    <g id="xtick_10">
     <g id="line2d_10">
      <g>
       <use xlink:href="#m4f53f11d9c" x="558.251748" y="384.48" style="stroke: #000000; stroke-width: 0.8"/>
      </g>
     </g>
     <g id="text_10">
      <!-- 9 -->
      <g transform="translate(554.434248 400.598125) scale(0.12 -0.12)">
       <defs>
        <path id="DejaVuSans-39" d="M 703 97 
L 703 672 
Q 941 559 1184 500 
Q 1428 441 1663 441 
Q 2288 441 2617 861 
Q 2947 1281 2994 2138 
Q 2813 1869 2534 1725 
Q 2256 1581 1919 1581 
Q 1219 1581 811 2004 
Q 403 2428 403 3163 
Q 403 3881 828 4315 
Q 1253 4750 1959 4750 
Q 2769 4750 3195 4129 
Q 3622 3509 3622 2328 
Q 3622 1225 3098 567 
Q 2575 -91 1691 -91 
Q 1453 -91 1209 -44 
Q 966 3 703 97 
z
M 1959 2075 
Q 2384 2075 2632 2365 
Q 2881 2656 2881 3163 
Q 2881 3666 2632 3958 
Q 2384 4250 1959 4250 
Q 1534 4250 1286 3958 
Q 1038 3666 1038 3163 
Q 1038 2656 1286 2365 
Q 1534 2075 1959 2075 
z
" transform="scale(0.015625)"/>
       </defs>
       <use xlink:href="#DejaVuSans-39"/>
      </g>
     </g>
    </g>
    <g id="xtick_11">
     <g id="line2d_11">
      <g>
       <use xlink:href="#m4f53f11d9c" x="610.27972" y="384.48" style="stroke: #000000; stroke-width: 0.8"/>
      </g>
     </g>
     <g id="text_11">
      <!-- 10 -->
      <g transform="translate(602.64472 400.598125) scale(0.12 -0.12)">
       <use xlink:href="#DejaVuSans-31"/>
       <use xlink:href="#DejaVuSans-30" x="63.623047"/>
      </g>
     </g>
    </g>
    <g id="text_12">
     <!-- Bandit -->
     <g transform="translate(346.338594 417.731562) scale(0.14 -0.14)">
      <defs>
       <path id="DejaVuSans-42" d="M 1259 2228 
L 1259 519 
L 2272 519 
Q 2781 519 3026 730 
Q 3272 941 3272 1375 
Q 3272 1813 3026 2020 
Q 2781 2228 2272 2228 
L 1259 2228 
z
M 1259 4147 
L 1259 2741 
L 2194 2741 
Q 2656 2741 2882 2914 
Q 3109 3088 3109 3444 
Q 3109 3797 2882 3972 
Q 2656 4147 2194 4147 
L 1259 4147 
z
M 628 4666 
L 2241 4666 
Q 2963 4666 3353 4366 
Q 3744 4066 3744 3513 
Q 3744 3084 3544 2831 
Q 3344 2578 2956 2516 
Q 3422 2416 3680 2098 
Q 3938 1781 3938 1306 
Q 3938 681 3513 340 
Q 3088 0 2303 0 
L 628 0 
L 628 4666 
z
" transform="scale(0.015625)"/>
       <path id="DejaVuSans-61" d="M 2194 1759 
Q 1497 1759 1228 1600 
Q 959 1441 959 1056 
Q 959 750 1161 570 
Q 1363 391 1709 391 
Q 2188 391 2477 730 
Q 2766 1069 2766 1631 
L 2766 1759 
L 2194 1759 
z
M 3341 1997 
L 3341 0 
L 2766 0 
L 2766 531 
Q 2569 213 2275 61 
Q 1981 -91 1556 -91 
Q 1019 -91 701 211 
Q 384 513 384 1019 
Q 384 1609 779 1909 
Q 1175 2209 1959 2209 
L 2766 2209 
L 2766 2266 
Q 2766 2663 2505 2880 
Q 2244 3097 1772 3097 
Q 1472 3097 1187 3025 
Q 903 2953 641 2809 
L 641 3341 
Q 956 3463 1253 3523 
Q 1550 3584 1831 3584 
Q 2591 3584 2966 3190 
Q 3341 2797 3341 1997 
z
" transform="scale(0.015625)"/>
       <path id="DejaVuSans-6e" d="M 3513 2113 
L 3513 0 
L 2938 0 
L 2938 2094 
Q 2938 2591 2744 2837 
Q 2550 3084 2163 3084 
Q 1697 3084 1428 2787 
Q 1159 2491 1159 1978 
L 1159 0 
L 581 0 
L 581 3500 
L 1159 3500 
L 1159 2956 
Q 1366 3272 1645 3428 
Q 1925 3584 2291 3584 
Q 2894 3584 3203 3211 
Q 3513 2838 3513 2113 
z
" transform="scale(0.015625)"/>
       <path id="DejaVuSans-64" d="M 2906 2969 
L 2906 4863 
L 3481 4863 
L 3481 0 
L 2906 0 
L 2906 525 
Q 2725 213 2448 61 
Q 2172 -91 1784 -91 
Q 1150 -91 751 415 
Q 353 922 353 1747 
Q 353 2572 751 3078 
Q 1150 3584 1784 3584 
Q 2172 3584 2448 3432 
Q 2725 3281 2906 2969 
z
M 947 1747 
Q 947 1113 1208 752 
Q 1469 391 1925 391 
Q 2381 391 2643 752 
Q 2906 1113 2906 1747 
Q 2906 2381 2643 2742 
Q 2381 3103 1925 3103 
Q 1469 3103 1208 2742 
Q 947 2381 947 1747 
z
" transform="scale(0.015625)"/>
       <path id="DejaVuSans-69" d="M 603 3500 
L 1178 3500 
L 1178 0 
L 603 0 
L 603 3500 
z
M 603 4863 
L 1178 4863 
L 1178 4134 
L 603 4134 
L 603 4863 
z
" transform="scale(0.015625)"/>
       <path id="DejaVuSans-74" d="M 1172 4494 
L 1172 3500 
L 2356 3500 
L 2356 3053 
L 1172 3053 
L 1172 1153 
Q 1172 725 1289 603 
Q 1406 481 1766 481 
L 2356 481 
L 2356 0 
L 1766 0 
Q 1100 0 847 248 
Q 594 497 594 1153 
L 594 3053 
L 172 3053 
L 172 3500 
L 594 3500 
L 594 4494 
L 1172 4494 
z
" transform="scale(0.015625)"/>
      </defs>
      <use xlink:href="#DejaVuSans-42"/>
      <use xlink:href="#DejaVuSans-61" x="68.603516"/>
      <use xlink:href="#DejaVuSans-6e" x="129.882812"/>
      <use xlink:href="#DejaVuSans-64" x="193.261719"/>
      <use xlink:href="#DejaVuSans-69" x="256.738281"/>
      <use xlink:href="#DejaVuSans-74" x="284.521484"/>
     </g>
    </g>
   </g>
   <g id="matplotlib.axis_2">
    <g id="ytick_1">
     <g id="line2d_12">
      <defs>
       <path id="me23592ac1e" d="M 0 0 
L -3.5 0 
" style="stroke: #000000; stroke-width: 0.8"/>
      </defs>
      <g>
       <use xlink:href="#me23592ac1e" x="90" y="323.984026" style="stroke: #000000; stroke-width: 0.8"/>
      </g>
     </g>
     <g id="text_13">
      <!-- 4 -->
      <g transform="translate(65.309375 328.543089) scale(0.12 -0.12)">
       <defs>
        <path id="DejaVuSans-2212" d="M 678 2272 
L 4684 2272 
L 4684 1741 
L 678 1741 
L 678 2272 
z
" transform="scale(0.015625)"/>
       </defs>
       <use xlink:href="#DejaVuSans-2212"/>
       <use xlink:href="#DejaVuSans-34" x="83.789062"/>
      </g>
     </g>
    </g>
    <g id="ytick_2">
     <g id="line2d_13">
      <g>
       <use xlink:href="#me23592ac1e" x="90" y="262.907264" style="stroke: #000000; stroke-width: 0.8"/>
      </g>
     </g>
     <g id="text_14">
      <!-- 2 -->
      <g transform="translate(65.309375 267.466326) scale(0.12 -0.12)">
       <use xlink:href="#DejaVuSans-2212"/>
       <use xlink:href="#DejaVuSans-32" x="83.789062"/>
      </g>
     </g>
    </g>
    <g id="ytick_3">
     <g id="line2d_14">
      <g>
       <use xlink:href="#me23592ac1e" x="90" y="201.830501" style="stroke: #000000; stroke-width: 0.8"/>
      </g>
     </g>
     <g id="text_15">
      <!-- 0 -->
      <g transform="translate(75.365 206.389564) scale(0.12 -0.12)">
       <use xlink:href="#DejaVuSans-30"/>
      </g>
     </g>
    </g>
    <g id="ytick_4">
     <g id="line2d_15">
      <g>
       <use xlink:href="#me23592ac1e" x="90" y="140.753739" style="stroke: #000000; stroke-width: 0.8"/>
      </g>
     </g>
     <g id="text_16">
      <!-- 2 -->
      <g transform="translate(75.365 145.312801) scale(0.12 -0.12)">
       <use xlink:href="#DejaVuSans-32"/>
      </g>
     </g>
    </g>
    <g id="ytick_5">
     <g id="line2d_16">
      <g>
       <use xlink:href="#me23592ac1e" x="90" y="79.676976" style="stroke: #000000; stroke-width: 0.8"/>
      </g>
     </g>
     <g id="text_17">
      <!-- 4 -->
      <g transform="translate(75.365 84.236038) scale(0.12 -0.12)">
       <use xlink:href="#DejaVuSans-34"/>
      </g>
     </g>
    </g>
    <g id="text_18">
     <!-- Reward -->
     <g transform="translate(58.397813 244.229531) rotate(-90) scale(0.14 -0.14)">
      <defs>
       <path id="DejaVuSans-52" d="M 2841 2188 
Q 3044 2119 3236 1894 
Q 3428 1669 3622 1275 
L 4263 0 
L 3584 0 
L 2988 1197 
Q 2756 1666 2539 1819 
Q 2322 1972 1947 1972 
L 1259 1972 
L 1259 0 
L 628 0 
L 628 4666 
L 2053 4666 
Q 2853 4666 3247 4331 
Q 3641 3997 3641 3322 
Q 3641 2881 3436 2590 
Q 3231 2300 2841 2188 
z
M 1259 4147 
L 1259 2491 
L 2053 2491 
Q 2509 2491 2742 2702 
Q 2975 2913 2975 3322 
Q 2975 3731 2742 3939 
Q 2509 4147 2053 4147 
L 1259 4147 
z
" transform="scale(0.015625)"/>
       <path id="DejaVuSans-65" d="M 3597 1894 
L 3597 1613 
L 953 1613 
Q 991 1019 1311 708 
Q 1631 397 2203 397 
Q 2534 397 2845 478 
Q 3156 559 3463 722 
L 3463 178 
Q 3153 47 2828 -22 
Q 2503 -91 2169 -91 
Q 1331 -91 842 396 
Q 353 884 353 1716 
Q 353 2575 817 3079 
Q 1281 3584 2069 3584 
Q 2775 3584 3186 3129 
Q 3597 2675 3597 1894 
z
M 3022 2063 
Q 3016 2534 2758 2815 
Q 2500 3097 2075 3097 
Q 1594 3097 1305 2825 
Q 1016 2553 972 2059 
L 3022 2063 
z
" transform="scale(0.015625)"/>
       <path id="DejaVuSans-77" d="M 269 3500 
L 844 3500 
L 1563 769 
L 2278 3500 
L 2956 3500 
L 3675 769 
L 4391 3500 
L 4966 3500 
L 4050 0 
L 3372 0 
L 2619 2869 
L 1863 0 
L 1184 0 
L 269 3500 
z
" transform="scale(0.015625)"/>
       <path id="DejaVuSans-72" d="M 2631 2963 
Q 2534 3019 2420 3045 
Q 2306 3072 2169 3072 
Q 1681 3072 1420 2755 
Q 1159 2438 1159 1844 
L 1159 0 
L 581 0 
L 581 3500 
L 1159 3500 
L 1159 2956 
Q 1341 3275 1631 3429 
Q 1922 3584 2338 3584 
Q 2397 3584 2469 3576 
Q 2541 3569 2628 3553 
L 2631 2963 
z
" transform="scale(0.015625)"/>
      </defs>
      <use xlink:href="#DejaVuSans-52"/>
      <use xlink:href="#DejaVuSans-65" x="64.982422"/>
      <use xlink:href="#DejaVuSans-77" x="126.505859"/>
      <use xlink:href="#DejaVuSans-61" x="208.292969"/>
      <use xlink:href="#DejaVuSans-72" x="269.572266"/>
      <use xlink:href="#DejaVuSans-64" x="308.935547"/>
     </g>
    </g>
   </g>
   <g id="LineCollection_1">
    <path d="M 135.524476 92.896148 
L 148.531469 92.896148 
" clip-path="url(#p83068b6cca)" style="fill: none; stroke: #1f77b4; stroke-width: 1.5"/>
    <path d="M 187.552448 103.496247 
L 200.559441 103.496247 
" clip-path="url(#p83068b6cca)" style="fill: none; stroke: #1f77b4; stroke-width: 1.5"/>
    <path d="M 239.58042 66.96 
L 252.587413 66.96 
" clip-path="url(#p83068b6cca)" style="fill: none; stroke: #1f77b4; stroke-width: 1.5"/>
    <path d="M 291.608392 92.817331 
L 304.615385 92.817331 
" clip-path="url(#p83068b6cca)" style="fill: none; stroke: #1f77b4; stroke-width: 1.5"/>
    <path d="M 343.636364 181.460563 
L 356.643357 181.460563 
" clip-path="url(#p83068b6cca)" style="fill: none; stroke: #1f77b4; stroke-width: 1.5"/>
    <path d="M 395.664336 97.332789 
L 408.671329 97.332789 
" clip-path="url(#p83068b6cca)" style="fill: none; stroke: #1f77b4; stroke-width: 1.5"/>
    <path d="M 447.692308 71.582114 
L 460.699301 71.582114 
" clip-path="url(#p83068b6cca)" style="fill: none; stroke: #1f77b4; stroke-width: 1.5"/>
    <path d="M 499.72028 76.816405 
L 512.727273 76.816405 
" clip-path="url(#p83068b6cca)" style="fill: none; stroke: #1f77b4; stroke-width: 1.5"/>
    <path d="M 551.748252 112.155454 
L 564.755245 112.155454 
" clip-path="url(#p83068b6cca)" style="fill: none; stroke: #1f77b4; stroke-width: 1.5"/>
    <path d="M 603.776224 103.306971 
L 616.783217 103.306971 
" clip-path="url(#p83068b6cca)" style="fill: none; stroke: #1f77b4; stroke-width: 1.5"/>
   </g>
   <g id="LineCollection_2">
    <path d="M 135.524476 283.592963 
L 148.531469 283.592963 
" clip-path="url(#p83068b6cca)" style="fill: none; stroke: #1f77b4; stroke-width: 1.5"/>
    <path d="M 187.552448 311.696705 
L 200.559441 311.696705 
" clip-path="url(#p83068b6cca)" style="fill: none; stroke: #1f77b4; stroke-width: 1.5"/>
    <path d="M 239.58042 291.063185 
L 252.587413 291.063185 
" clip-path="url(#p83068b6cca)" style="fill: none; stroke: #1f77b4; stroke-width: 1.5"/>
    <path d="M 291.608392 273.006728 
L 304.615385 273.006728 
" clip-path="url(#p83068b6cca)" style="fill: none; stroke: #1f77b4; stroke-width: 1.5"/>
    <path d="M 343.636364 369.36 
L 356.643357 369.36 
" clip-path="url(#p83068b6cca)" style="fill: none; stroke: #1f77b4; stroke-width: 1.5"/>
    <path d="M 395.664336 310.968695 
L 408.671329 310.968695 
" clip-path="url(#p83068b6cca)" style="fill: none; stroke: #1f77b4; stroke-width: 1.5"/>
    <path d="M 447.692308 268.60939 
L 460.699301 268.60939 
" clip-path="url(#p83068b6cca)" style="fill: none; stroke: #1f77b4; stroke-width: 1.5"/>
    <path d="M 499.72028 280.248716 
L 512.727273 280.248716 
" clip-path="url(#p83068b6cca)" style="fill: none; stroke: #1f77b4; stroke-width: 1.5"/>
    <path d="M 551.748252 364.044954 
L 564.755245 364.044954 
" clip-path="url(#p83068b6cca)" style="fill: none; stroke: #1f77b4; stroke-width: 1.5"/>
    <path d="M 603.776224 310.108007 
L 616.783217 310.108007 
" clip-path="url(#p83068b6cca)" style="fill: none; stroke: #1f77b4; stroke-width: 1.5"/>
   </g>
   <g id="LineCollection_3">
    <path d="M 142.027972 283.592963 
L 142.027972 92.896148 
" clip-path="url(#p83068b6cca)" style="fill: none; stroke: #1f77b4; stroke-width: 1.5"/>
    <path d="M 194.055944 311.696705 
L 194.055944 103.496247 
" clip-path="url(#p83068b6cca)" style="fill: none; stroke: #1f77b4; stroke-width: 1.5"/>
    <path d="M 246.083916 291.063185 
L 246.083916 66.96 
" clip-path="url(#p83068b6cca)" style="fill: none; stroke: #1f77b4; stroke-width: 1.5"/>
    <path d="M 298.111888 273.006728 
L 298.111888 92.817331 
" clip-path="url(#p83068b6cca)" style="fill: none; stroke: #1f77b4; stroke-width: 1.5"/>
    <path d="M 350.13986 369.36 
L 350.13986 181.460563 
" clip-path="url(#p83068b6cca)" style="fill: none; stroke: #1f77b4; stroke-width: 1.5"/>
    <path d="M 402.167832 310.968695 
L 402.167832 97.332789 
" clip-path="url(#p83068b6cca)" style="fill: none; stroke: #1f77b4; stroke-width: 1.5"/>
    <path d="M 454.195804 268.60939 
L 454.195804 71.582114 
" clip-path="url(#p83068b6cca)" style="fill: none; stroke: #1f77b4; stroke-width: 1.5"/>
    <path d="M 506.223776 280.248716 
L 506.223776 76.816405 
" clip-path="url(#p83068b6cca)" style="fill: none; stroke: #1f77b4; stroke-width: 1.5"/>
    <path d="M 558.251748 364.044954 
L 558.251748 112.155454 
" clip-path="url(#p83068b6cca)" style="fill: none; stroke: #1f77b4; stroke-width: 1.5"/>
    <path d="M 610.27972 310.108007 
L 610.27972 103.306971 
" clip-path="url(#p83068b6cca)" style="fill: none; stroke: #1f77b4; stroke-width: 1.5"/>
   </g>
   <g id="patch_3">
    <path d="M 90 384.48 
L 90 51.84 
" style="fill: none; stroke: #000000; stroke-width: 0.8; stroke-linejoin: miter; stroke-linecap: square"/>
   </g>
   <g id="patch_4">
    <path d="M 648 384.48 
L 648 51.84 
" style="fill: none; stroke: #000000; stroke-width: 0.8; stroke-linejoin: miter; stroke-linecap: square"/>
   </g>
   <g id="patch_5">
    <path d="M 90 384.48 
L 648 384.48 
" style="fill: none; stroke: #000000; stroke-width: 0.8; stroke-linejoin: miter; stroke-linecap: square"/>
   </g>
   <g id="patch_6">
    <path d="M 90 51.84 
L 648 51.84 
" style="fill: none; stroke: #000000; stroke-width: 0.8; stroke-linejoin: miter; stroke-linecap: square"/>
   </g>
   <g id="text_19">
    <!-- Violin plot for 10-armed bandits -->
    <g transform="translate(242.005 45.84) scale(0.16 -0.16)">
     <defs>
      <path id="DejaVuSans-56" d="M 1831 0 
L 50 4666 
L 709 4666 
L 2188 738 
L 3669 4666 
L 4325 4666 
L 2547 0 
L 1831 0 
z
" transform="scale(0.015625)"/>
      <path id="DejaVuSans-6f" d="M 1959 3097 
Q 1497 3097 1228 2736 
Q 959 2375 959 1747 
Q 959 1119 1226 758 
Q 1494 397 1959 397 
Q 2419 397 2687 759 
Q 2956 1122 2956 1747 
Q 2956 2369 2687 2733 
Q 2419 3097 1959 3097 
z
M 1959 3584 
Q 2709 3584 3137 3096 
Q 3566 2609 3566 1747 
Q 3566 888 3137 398 
Q 2709 -91 1959 -91 
Q 1206 -91 779 398 
Q 353 888 353 1747 
Q 353 2609 779 3096 
Q 1206 3584 1959 3584 
z
" transform="scale(0.015625)"/>
      <path id="DejaVuSans-6c" d="M 603 4863 
L 1178 4863 
L 1178 0 
L 603 0 
L 603 4863 
z
" transform="scale(0.015625)"/>
      <path id="DejaVuSans-20" transform="scale(0.015625)"/>
      <path id="DejaVuSans-70" d="M 1159 525 
L 1159 -1331 
L 581 -1331 
L 581 3500 
L 1159 3500 
L 1159 2969 
Q 1341 3281 1617 3432 
Q 1894 3584 2278 3584 
Q 2916 3584 3314 3078 
Q 3713 2572 3713 1747 
Q 3713 922 3314 415 
Q 2916 -91 2278 -91 
Q 1894 -91 1617 61 
Q 1341 213 1159 525 
z
M 3116 1747 
Q 3116 2381 2855 2742 
Q 2594 3103 2138 3103 
Q 1681 3103 1420 2742 
Q 1159 2381 1159 1747 
Q 1159 1113 1420 752 
Q 1681 391 2138 391 
Q 2594 391 2855 752 
Q 3116 1113 3116 1747 
z
" transform="scale(0.015625)"/>
      <path id="DejaVuSans-66" d="M 2375 4863 
L 2375 4384 
L 1825 4384 
Q 1516 4384 1395 4259 
Q 1275 4134 1275 3809 
L 1275 3500 
L 2222 3500 
L 2222 3053 
L 1275 3053 
L 1275 0 
L 697 0 
L 697 3053 
L 147 3053 
L 147 3500 
L 697 3500 
L 697 3744 
Q 697 4328 969 4595 
Q 1241 4863 1831 4863 
L 2375 4863 
z
" transform="scale(0.015625)"/>
      <path id="DejaVuSans-2d" d="M 313 2009 
L 1997 2009 
L 1997 1497 
L 313 1497 
L 313 2009 
z
" transform="scale(0.015625)"/>
      <path id="DejaVuSans-6d" d="M 3328 2828 
Q 3544 3216 3844 3400 
Q 4144 3584 4550 3584 
Q 5097 3584 5394 3201 
Q 5691 2819 5691 2113 
L 5691 0 
L 5113 0 
L 5113 2094 
Q 5113 2597 4934 2840 
Q 4756 3084 4391 3084 
Q 3944 3084 3684 2787 
Q 3425 2491 3425 1978 
L 3425 0 
L 2847 0 
L 2847 2094 
Q 2847 2600 2669 2842 
Q 2491 3084 2119 3084 
Q 1678 3084 1418 2786 
Q 1159 2488 1159 1978 
L 1159 0 
L 581 0 
L 581 3500 
L 1159 3500 
L 1159 2956 
Q 1356 3278 1631 3431 
Q 1906 3584 2284 3584 
Q 2666 3584 2933 3390 
Q 3200 3197 3328 2828 
z
" transform="scale(0.015625)"/>
      <path id="DejaVuSans-62" d="M 3116 1747 
Q 3116 2381 2855 2742 
Q 2594 3103 2138 3103 
Q 1681 3103 1420 2742 
Q 1159 2381 1159 1747 
Q 1159 1113 1420 752 
Q 1681 391 2138 391 
Q 2594 391 2855 752 
Q 3116 1113 3116 1747 
z
M 1159 2969 
Q 1341 3281 1617 3432 
Q 1894 3584 2278 3584 
Q 2916 3584 3314 3078 
Q 3713 2572 3713 1747 
Q 3713 922 3314 415 
Q 2916 -91 2278 -91 
Q 1894 -91 1617 61 
Q 1341 213 1159 525 
L 1159 0 
L 581 0 
L 581 4863 
L 1159 4863 
L 1159 2969 
z
" transform="scale(0.015625)"/>
      <path id="DejaVuSans-73" d="M 2834 3397 
L 2834 2853 
Q 2591 2978 2328 3040 
Q 2066 3103 1784 3103 
Q 1356 3103 1142 2972 
Q 928 2841 928 2578 
Q 928 2378 1081 2264 
Q 1234 2150 1697 2047 
L 1894 2003 
Q 2506 1872 2764 1633 
Q 3022 1394 3022 966 
Q 3022 478 2636 193 
Q 2250 -91 1575 -91 
Q 1294 -91 989 -36 
Q 684 19 347 128 
L 347 722 
Q 666 556 975 473 
Q 1284 391 1588 391 
Q 1994 391 2212 530 
Q 2431 669 2431 922 
Q 2431 1156 2273 1281 
Q 2116 1406 1581 1522 
L 1381 1569 
Q 847 1681 609 1914 
Q 372 2147 372 2553 
Q 372 3047 722 3315 
Q 1072 3584 1716 3584 
Q 2034 3584 2315 3537 
Q 2597 3491 2834 3397 
z
" transform="scale(0.015625)"/>
     </defs>
     <use xlink:href="#DejaVuSans-56"/>
     <use xlink:href="#DejaVuSans-69" x="66.158203"/>
     <use xlink:href="#DejaVuSans-6f" x="93.941406"/>
     <use xlink:href="#DejaVuSans-6c" x="155.123047"/>
     <use xlink:href="#DejaVuSans-69" x="182.90625"/>
     <use xlink:href="#DejaVuSans-6e" x="210.689453"/>
     <use xlink:href="#DejaVuSans-20" x="274.068359"/>
     <use xlink:href="#DejaVuSans-70" x="305.855469"/>
     <use xlink:href="#DejaVuSans-6c" x="369.332031"/>
     <use xlink:href="#DejaVuSans-6f" x="397.115234"/>
     <use xlink:href="#DejaVuSans-74" x="458.296875"/>
     <use xlink:href="#DejaVuSans-20" x="497.505859"/>
     <use xlink:href="#DejaVuSans-66" x="529.292969"/>
     <use xlink:href="#DejaVuSans-6f" x="564.498047"/>
     <use xlink:href="#DejaVuSans-72" x="625.679688"/>
     <use xlink:href="#DejaVuSans-20" x="666.792969"/>
     <use xlink:href="#DejaVuSans-31" x="698.580078"/>
     <use xlink:href="#DejaVuSans-30" x="762.203125"/>
     <use xlink:href="#DejaVuSans-2d" x="825.826172"/>
     <use xlink:href="#DejaVuSans-61" x="861.910156"/>
     <use xlink:href="#DejaVuSans-72" x="923.189453"/>
     <use xlink:href="#DejaVuSans-6d" x="962.552734"/>
     <use xlink:href="#DejaVuSans-65" x="1059.964844"/>
     <use xlink:href="#DejaVuSans-64" x="1121.488281"/>
     <use xlink:href="#DejaVuSans-20" x="1184.964844"/>
     <use xlink:href="#DejaVuSans-62" x="1216.751953"/>
     <use xlink:href="#DejaVuSans-61" x="1280.228516"/>
     <use xlink:href="#DejaVuSans-6e" x="1341.507812"/>
     <use xlink:href="#DejaVuSans-64" x="1404.886719"/>
     <use xlink:href="#DejaVuSans-69" x="1468.363281"/>
     <use xlink:href="#DejaVuSans-74" x="1496.146484"/>
     <use xlink:href="#DejaVuSans-73" x="1535.355469"/>
    </g>
   </g>
  </g>
 </g>
 <defs>
  <clipPath id="p83068b6cca">
   <rect x="90" y="51.84" width="558" height="332.64"/>
  </clipPath>
 </defs>
</svg>
