<?xml version="1.0" encoding="utf-8" standalone="no"?>
<!DOCTYPE svg PUBLIC "-//W3C//DTD SVG 1.1//EN"
  "http://www.w3.org/Graphics/SVG/1.1/DTD/svg11.dtd">
<svg xmlns:xlink="http://www.w3.org/1999/xlink" width="720pt" height="432pt" viewBox="0 0 720 432" xmlns="http://www.w3.org/2000/svg" version="1.1">
 <metadata>
  <rdf:RDF xmlns:dc="http://purl.org/dc/elements/1.1/" xmlns:cc="http://creativecommons.org/ns#" xmlns:rdf="http://www.w3.org/1999/02/22-rdf-syntax-ns#">
   <cc:Work>
    <dc:type rdf:resource="http://purl.org/dc/dcmitype/StillImage"/>
    <dc:date>2024-05-14T09:57:14.449013</dc:date>
    <dc:format>image/svg+xml</dc:format>
    <dc:creator>
     <cc:Agent>
      <dc:title>Matplotlib v3.8.0, https://matplotlib.org/</dc:title>
     </cc:Agent>
    </dc:creator>
   </cc:Work>
  </rdf:RDF>
 </metadata>
 <defs>
  <style type="text/css">*{stroke-linejoin: round; stroke-linecap: butt}</style>
 </defs>
 <g id="figure_1">
  <g id="patch_1">
   <path d="M 0 432 
L 720 432 
L 720 0 
L 0 0 
z
" style="fill: #ffffff"/>
  </g>
  <g id="axes_1">
   <g id="patch_2">
    <path d="M 90 384.48 
L 648 384.48 
L 648 51.84 
L 90 51.84 
z
" style="fill: #ffffff"/>
   </g>
   <g id="matplotlib.axis_1">
    <g id="xtick_1">
     <g id="line2d_1">
      <defs>
       <path id="mfc28e76a14" d="M 0 0 
L 0 3.5 
" style="stroke: #000000; stroke-width: 0.8"/>
      </defs>
      <g>
       <use xlink:href="#mfc28e76a14" x="115.363636" y="384.48" style="stroke: #000000; stroke-width: 0.8"/>
      </g>
     </g>
     <g id="text_1">
      <!-- 0 -->
      <g transform="translate(111.546136 400.598125) scale(0.12 -0.12)">
       <defs>
        <path id="DejaVuSans-30" d="M 2034 4250 
Q 1547 4250 1301 3770 
Q 1056 3291 1056 2328 
Q 1056 1369 1301 889 
Q 1547 409 2034 409 
Q 2525 409 2770 889 
Q 3016 1369 3016 2328 
Q 3016 3291 2770 3770 
Q 2525 4250 2034 4250 
z
M 2034 4750 
Q 2819 4750 3233 4129 
Q 3647 3509 3647 2328 
Q 3647 1150 3233 529 
Q 2819 -91 2034 -91 
Q 1250 -91 836 529 
Q 422 1150 422 2328 
Q 422 3509 836 4129 
Q 1250 4750 2034 4750 
z
" transform="scale(0.015625)"/>
       </defs>
       <use xlink:href="#DejaVuSans-30"/>
      </g>
     </g>
    </g>
    <g id="xtick_2">
     <g id="line2d_2">
      <g>
       <use xlink:href="#mfc28e76a14" x="178.804448" y="384.48" style="stroke: #000000; stroke-width: 0.8"/>
      </g>
     </g>
     <g id="text_2">
      <!-- 250 -->
      <g transform="translate(167.351948 400.598125) scale(0.12 -0.12)">
       <defs>
        <path id="DejaVuSans-32" d="M 1228 531 
L 3431 531 
L 3431 0 
L 469 0 
L 469 531 
Q 828 903 1448 1529 
Q 2069 2156 2228 2338 
Q 2531 2678 2651 2914 
Q 2772 3150 2772 3378 
Q 2772 3750 2511 3984 
Q 2250 4219 1831 4219 
Q 1534 4219 1204 4116 
Q 875 4013 500 3803 
L 500 4441 
Q 881 4594 1212 4672 
Q 1544 4750 1819 4750 
Q 2544 4750 2975 4387 
Q 3406 4025 3406 3419 
Q 3406 3131 3298 2873 
Q 3191 2616 2906 2266 
Q 2828 2175 2409 1742 
Q 1991 1309 1228 531 
z
" transform="scale(0.015625)"/>
        <path id="DejaVuSans-35" d="M 691 4666 
L 3169 4666 
L 3169 4134 
L 1269 4134 
L 1269 2991 
Q 1406 3038 1543 3061 
Q 1681 3084 1819 3084 
Q 2600 3084 3056 2656 
Q 3513 2228 3513 1497 
Q 3513 744 3044 326 
Q 2575 -91 1722 -91 
Q 1428 -91 1123 -41 
Q 819 9 494 109 
L 494 744 
Q 775 591 1075 516 
Q 1375 441 1709 441 
Q 2250 441 2565 725 
Q 2881 1009 2881 1497 
Q 2881 1984 2565 2268 
Q 2250 2553 1709 2553 
Q 1456 2553 1204 2497 
Q 953 2441 691 2322 
L 691 4666 
z
" transform="scale(0.015625)"/>
       </defs>
       <use xlink:href="#DejaVuSans-32"/>
       <use xlink:href="#DejaVuSans-35" x="63.623047"/>
       <use xlink:href="#DejaVuSans-30" x="127.246094"/>
      </g>
     </g>
    </g>
    <g id="xtick_3">
     <g id="line2d_3">
      <g>
       <use xlink:href="#mfc28e76a14" x="242.245259" y="384.48" style="stroke: #000000; stroke-width: 0.8"/>
      </g>
     </g>
     <g id="text_3">
      <!-- 500 -->
      <g transform="translate(230.792759 400.598125) scale(0.12 -0.12)">
       <use xlink:href="#DejaVuSans-35"/>
       <use xlink:href="#DejaVuSans-30" x="63.623047"/>
       <use xlink:href="#DejaVuSans-30" x="127.246094"/>
      </g>
     </g>
    </g>
    <g id="xtick_4">
     <g id="line2d_4">
      <g>
       <use xlink:href="#mfc28e76a14" x="305.68607" y="384.48" style="stroke: #000000; stroke-width: 0.8"/>
      </g>
     </g>
     <g id="text_4">
      <!-- 750 -->
      <g transform="translate(294.23357 400.598125) scale(0.12 -0.12)">
       <defs>
        <path id="DejaVuSans-37" d="M 525 4666 
L 3525 4666 
L 3525 4397 
L 1831 0 
L 1172 0 
L 2766 4134 
L 525 4134 
L 525 4666 
z
" transform="scale(0.015625)"/>
       </defs>
       <use xlink:href="#DejaVuSans-37"/>
       <use xlink:href="#DejaVuSans-35" x="63.623047"/>
       <use xlink:href="#DejaVuSans-30" x="127.246094"/>
      </g>
     </g>
    </g>
    <g id="xtick_5">
     <g id="line2d_5">
      <g>
       <use xlink:href="#mfc28e76a14" x="369.126882" y="384.48" style="stroke: #000000; stroke-width: 0.8"/>
      </g>
     </g>
     <g id="text_5">
      <!-- 1000 -->
      <g transform="translate(353.856882 400.598125) scale(0.12 -0.12)">
       <defs>
        <path id="DejaVuSans-31" d="M 794 531 
L 1825 531 
L 1825 4091 
L 703 3866 
L 703 4441 
L 1819 4666 
L 2450 4666 
L 2450 531 
L 3481 531 
L 3481 0 
L 794 0 
L 794 531 
z
" transform="scale(0.015625)"/>
       </defs>
       <use xlink:href="#DejaVuSans-31"/>
       <use xlink:href="#DejaVuSans-30" x="63.623047"/>
       <use xlink:href="#DejaVuSans-30" x="127.246094"/>
       <use xlink:href="#DejaVuSans-30" x="190.869141"/>
      </g>
     </g>
    </g>
    <g id="xtick_6">
     <g id="line2d_6">
      <g>
       <use xlink:href="#mfc28e76a14" x="432.567693" y="384.48" style="stroke: #000000; stroke-width: 0.8"/>
      </g>
     </g>
     <g id="text_6">
      <!-- 1250 -->
      <g transform="translate(417.297693 400.598125) scale(0.12 -0.12)">
       <use xlink:href="#DejaVuSans-31"/>
       <use xlink:href="#DejaVuSans-32" x="63.623047"/>
       <use xlink:href="#DejaVuSans-35" x="127.246094"/>
       <use xlink:href="#DejaVuSans-30" x="190.869141"/>
      </g>
     </g>
    </g>
    <g id="xtick_7">
     <g id="line2d_7">
      <g>
       <use xlink:href="#mfc28e76a14" x="496.008504" y="384.48" style="stroke: #000000; stroke-width: 0.8"/>
      </g>
     </g>
     <g id="text_7">
      <!-- 1500 -->
      <g transform="translate(480.738504 400.598125) scale(0.12 -0.12)">
       <use xlink:href="#DejaVuSans-31"/>
       <use xlink:href="#DejaVuSans-35" x="63.623047"/>
       <use xlink:href="#DejaVuSans-30" x="127.246094"/>
       <use xlink:href="#DejaVuSans-30" x="190.869141"/>
      </g>
     </g>
    </g>
    <g id="xtick_8">
     <g id="line2d_8">
      <g>
       <use xlink:href="#mfc28e76a14" x="559.449316" y="384.48" style="stroke: #000000; stroke-width: 0.8"/>
      </g>
     </g>
     <g id="text_8">
      <!-- 1750 -->
      <g transform="translate(544.179316 400.598125) scale(0.12 -0.12)">
       <use xlink:href="#DejaVuSans-31"/>
       <use xlink:href="#DejaVuSans-37" x="63.623047"/>
       <use xlink:href="#DejaVuSans-35" x="127.246094"/>
       <use xlink:href="#DejaVuSans-30" x="190.869141"/>
      </g>
     </g>
    </g>
    <g id="xtick_9">
     <g id="line2d_9">
      <g>
       <use xlink:href="#mfc28e76a14" x="622.890127" y="384.48" style="stroke: #000000; stroke-width: 0.8"/>
      </g>
     </g>
     <g id="text_9">
      <!-- 2000 -->
      <g transform="translate(607.620127 400.598125) scale(0.12 -0.12)">
       <use xlink:href="#DejaVuSans-32"/>
       <use xlink:href="#DejaVuSans-30" x="63.623047"/>
       <use xlink:href="#DejaVuSans-30" x="127.246094"/>
       <use xlink:href="#DejaVuSans-30" x="190.869141"/>
      </g>
     </g>
    </g>
    <g id="text_10">
     <!-- Steps -->
     <g transform="translate(349.414219 417.731562) scale(0.14 -0.14)">
      <defs>
       <path id="DejaVuSans-53" d="M 3425 4513 
L 3425 3897 
Q 3066 4069 2747 4153 
Q 2428 4238 2131 4238 
Q 1616 4238 1336 4038 
Q 1056 3838 1056 3469 
Q 1056 3159 1242 3001 
Q 1428 2844 1947 2747 
L 2328 2669 
Q 3034 2534 3370 2195 
Q 3706 1856 3706 1288 
Q 3706 609 3251 259 
Q 2797 -91 1919 -91 
Q 1588 -91 1214 -16 
Q 841 59 441 206 
L 441 856 
Q 825 641 1194 531 
Q 1563 422 1919 422 
Q 2459 422 2753 634 
Q 3047 847 3047 1241 
Q 3047 1584 2836 1778 
Q 2625 1972 2144 2069 
L 1759 2144 
Q 1053 2284 737 2584 
Q 422 2884 422 3419 
Q 422 4038 858 4394 
Q 1294 4750 2059 4750 
Q 2388 4750 2728 4690 
Q 3069 4631 3425 4513 
z
" transform="scale(0.015625)"/>
       <path id="DejaVuSans-74" d="M 1172 4494 
L 1172 3500 
L 2356 3500 
L 2356 3053 
L 1172 3053 
L 1172 1153 
Q 1172 725 1289 603 
Q 1406 481 1766 481 
L 2356 481 
L 2356 0 
L 1766 0 
Q 1100 0 847 248 
Q 594 497 594 1153 
L 594 3053 
L 172 3053 
L 172 3500 
L 594 3500 
L 594 4494 
L 1172 4494 
z
" transform="scale(0.015625)"/>
       <path id="DejaVuSans-65" d="M 3597 1894 
L 3597 1613 
L 953 1613 
Q 991 1019 1311 708 
Q 1631 397 2203 397 
Q 2534 397 2845 478 
Q 3156 559 3463 722 
L 3463 178 
Q 3153 47 2828 -22 
Q 2503 -91 2169 -91 
Q 1331 -91 842 396 
Q 353 884 353 1716 
Q 353 2575 817 3079 
Q 1281 3584 2069 3584 
Q 2775 3584 3186 3129 
Q 3597 2675 3597 1894 
z
M 3022 2063 
Q 3016 2534 2758 2815 
Q 2500 3097 2075 3097 
Q 1594 3097 1305 2825 
Q 1016 2553 972 2059 
L 3022 2063 
z
" transform="scale(0.015625)"/>
       <path id="DejaVuSans-70" d="M 1159 525 
L 1159 -1331 
L 581 -1331 
L 581 3500 
L 1159 3500 
L 1159 2969 
Q 1341 3281 1617 3432 
Q 1894 3584 2278 3584 
Q 2916 3584 3314 3078 
Q 3713 2572 3713 1747 
Q 3713 922 3314 415 
Q 2916 -91 2278 -91 
Q 1894 -91 1617 61 
Q 1341 213 1159 525 
z
M 3116 1747 
Q 3116 2381 2855 2742 
Q 2594 3103 2138 3103 
Q 1681 3103 1420 2742 
Q 1159 2381 1159 1747 
Q 1159 1113 1420 752 
Q 1681 391 2138 391 
Q 2594 391 2855 752 
Q 3116 1113 3116 1747 
z
" transform="scale(0.015625)"/>
       <path id="DejaVuSans-73" d="M 2834 3397 
L 2834 2853 
Q 2591 2978 2328 3040 
Q 2066 3103 1784 3103 
Q 1356 3103 1142 2972 
Q 928 2841 928 2578 
Q 928 2378 1081 2264 
Q 1234 2150 1697 2047 
L 1894 2003 
Q 2506 1872 2764 1633 
Q 3022 1394 3022 966 
Q 3022 478 2636 193 
Q 2250 -91 1575 -91 
Q 1294 -91 989 -36 
Q 684 19 347 128 
L 347 722 
Q 666 556 975 473 
Q 1284 391 1588 391 
Q 1994 391 2212 530 
Q 2431 669 2431 922 
Q 2431 1156 2273 1281 
Q 2116 1406 1581 1522 
L 1381 1569 
Q 847 1681 609 1914 
Q 372 2147 372 2553 
Q 372 3047 722 3315 
Q 1072 3584 1716 3584 
Q 2034 3584 2315 3537 
Q 2597 3491 2834 3397 
z
" transform="scale(0.015625)"/>
      </defs>
      <use xlink:href="#DejaVuSans-53"/>
      <use xlink:href="#DejaVuSans-74" x="63.476562"/>
      <use xlink:href="#DejaVuSans-65" x="102.685547"/>
      <use xlink:href="#DejaVuSans-70" x="164.208984"/>
      <use xlink:href="#DejaVuSans-73" x="227.685547"/>
     </g>
    </g>
   </g>
   <g id="matplotlib.axis_2">
    <g id="ytick_1">
     <g id="line2d_10">
      <defs>
       <path id="m9faae81f78" d="M 0 0 
L -3.5 0 
" style="stroke: #000000; stroke-width: 0.8"/>
      </defs>
      <g>
       <use xlink:href="#m9faae81f78" x="90" y="369.994627" style="stroke: #000000; stroke-width: 0.8"/>
      </g>
     </g>
     <g id="text_11">
      <!-- −2.00 -->
      <g transform="translate(46.225625 374.55369) scale(0.12 -0.12)">
       <defs>
        <path id="DejaVuSans-2212" d="M 678 2272 
L 4684 2272 
L 4684 1741 
L 678 1741 
L 678 2272 
z
" transform="scale(0.015625)"/>
        <path id="DejaVuSans-2e" d="M 684 794 
L 1344 794 
L 1344 0 
L 684 0 
L 684 794 
z
" transform="scale(0.015625)"/>
       </defs>
       <use xlink:href="#DejaVuSans-2212"/>
       <use xlink:href="#DejaVuSans-32" x="83.789062"/>
       <use xlink:href="#DejaVuSans-2e" x="147.412109"/>
       <use xlink:href="#DejaVuSans-30" x="179.199219"/>
       <use xlink:href="#DejaVuSans-30" x="242.822266"/>
      </g>
     </g>
    </g>
    <g id="ytick_2">
     <g id="line2d_11">
      <g>
       <use xlink:href="#m9faae81f78" x="90" y="330.330409" style="stroke: #000000; stroke-width: 0.8"/>
      </g>
     </g>
     <g id="text_12">
      <!-- −1.75 -->
      <g transform="translate(46.225625 334.889472) scale(0.12 -0.12)">
       <use xlink:href="#DejaVuSans-2212"/>
       <use xlink:href="#DejaVuSans-31" x="83.789062"/>
       <use xlink:href="#DejaVuSans-2e" x="147.412109"/>
       <use xlink:href="#DejaVuSans-37" x="179.199219"/>
       <use xlink:href="#DejaVuSans-35" x="242.822266"/>
      </g>
     </g>
    </g>
    <g id="ytick_3">
     <g id="line2d_12">
      <g>
       <use xlink:href="#m9faae81f78" x="90" y="290.666191" style="stroke: #000000; stroke-width: 0.8"/>
      </g>
     </g>
     <g id="text_13">
      <!-- −1.50 -->
      <g transform="translate(46.225625 295.225253) scale(0.12 -0.12)">
       <use xlink:href="#DejaVuSans-2212"/>
       <use xlink:href="#DejaVuSans-31" x="83.789062"/>
       <use xlink:href="#DejaVuSans-2e" x="147.412109"/>
       <use xlink:href="#DejaVuSans-35" x="179.199219"/>
       <use xlink:href="#DejaVuSans-30" x="242.822266"/>
      </g>
     </g>
    </g>
    <g id="ytick_4">
     <g id="line2d_13">
      <g>
       <use xlink:href="#m9faae81f78" x="90" y="251.001973" style="stroke: #000000; stroke-width: 0.8"/>
      </g>
     </g>
     <g id="text_14">
      <!-- −1.25 -->
      <g transform="translate(46.225625 255.561035) scale(0.12 -0.12)">
       <use xlink:href="#DejaVuSans-2212"/>
       <use xlink:href="#DejaVuSans-31" x="83.789062"/>
       <use xlink:href="#DejaVuSans-2e" x="147.412109"/>
       <use xlink:href="#DejaVuSans-32" x="179.199219"/>
       <use xlink:href="#DejaVuSans-35" x="242.822266"/>
      </g>
     </g>
    </g>
    <g id="ytick_5">
     <g id="line2d_14">
      <g>
       <use xlink:href="#m9faae81f78" x="90" y="211.337754" style="stroke: #000000; stroke-width: 0.8"/>
      </g>
     </g>
     <g id="text_15">
      <!-- −1.00 -->
      <g transform="translate(46.225625 215.896817) scale(0.12 -0.12)">
       <use xlink:href="#DejaVuSans-2212"/>
       <use xlink:href="#DejaVuSans-31" x="83.789062"/>
       <use xlink:href="#DejaVuSans-2e" x="147.412109"/>
       <use xlink:href="#DejaVuSans-30" x="179.199219"/>
       <use xlink:href="#DejaVuSans-30" x="242.822266"/>
      </g>
     </g>
    </g>
    <g id="ytick_6">
     <g id="line2d_15">
      <g>
       <use xlink:href="#m9faae81f78" x="90" y="171.673536" style="stroke: #000000; stroke-width: 0.8"/>
      </g>
     </g>
     <g id="text_16">
      <!-- −0.75 -->
      <g transform="translate(46.225625 176.232599) scale(0.12 -0.12)">
       <use xlink:href="#DejaVuSans-2212"/>
       <use xlink:href="#DejaVuSans-30" x="83.789062"/>
       <use xlink:href="#DejaVuSans-2e" x="147.412109"/>
       <use xlink:href="#DejaVuSans-37" x="179.199219"/>
       <use xlink:href="#DejaVuSans-35" x="242.822266"/>
      </g>
     </g>
    </g>
    <g id="ytick_7">
     <g id="line2d_16">
      <g>
       <use xlink:href="#m9faae81f78" x="90" y="132.009318" style="stroke: #000000; stroke-width: 0.8"/>
      </g>
     </g>
     <g id="text_17">
      <!-- −0.50 -->
      <g transform="translate(46.225625 136.56838) scale(0.12 -0.12)">
       <use xlink:href="#DejaVuSans-2212"/>
       <use xlink:href="#DejaVuSans-30" x="83.789062"/>
       <use xlink:href="#DejaVuSans-2e" x="147.412109"/>
       <use xlink:href="#DejaVuSans-35" x="179.199219"/>
       <use xlink:href="#DejaVuSans-30" x="242.822266"/>
      </g>
     </g>
    </g>
    <g id="ytick_8">
     <g id="line2d_17">
      <g>
       <use xlink:href="#m9faae81f78" x="90" y="92.3451" style="stroke: #000000; stroke-width: 0.8"/>
      </g>
     </g>
     <g id="text_18">
      <!-- −0.25 -->
      <g transform="translate(46.225625 96.904162) scale(0.12 -0.12)">
       <use xlink:href="#DejaVuSans-2212"/>
       <use xlink:href="#DejaVuSans-30" x="83.789062"/>
       <use xlink:href="#DejaVuSans-2e" x="147.412109"/>
       <use xlink:href="#DejaVuSans-32" x="179.199219"/>
       <use xlink:href="#DejaVuSans-35" x="242.822266"/>
      </g>
     </g>
    </g>
    <g id="ytick_9">
     <g id="line2d_18">
      <g>
       <use xlink:href="#m9faae81f78" x="90" y="52.680881" style="stroke: #000000; stroke-width: 0.8"/>
      </g>
     </g>
     <g id="text_19">
      <!-- 0.00 -->
      <g transform="translate(56.28125 57.239944) scale(0.12 -0.12)">
       <use xlink:href="#DejaVuSans-30"/>
       <use xlink:href="#DejaVuSans-2e" x="63.623047"/>
       <use xlink:href="#DejaVuSans-30" x="95.410156"/>
       <use xlink:href="#DejaVuSans-30" x="159.033203"/>
      </g>
     </g>
    </g>
    <g id="text_20">
     <!-- Average Reward -->
     <g transform="translate(39.314062 275.200156) rotate(-90) scale(0.14 -0.14)">
      <defs>
       <path id="DejaVuSans-41" d="M 2188 4044 
L 1331 1722 
L 3047 1722 
L 2188 4044 
z
M 1831 4666 
L 2547 4666 
L 4325 0 
L 3669 0 
L 3244 1197 
L 1141 1197 
L 716 0 
L 50 0 
L 1831 4666 
z
" transform="scale(0.015625)"/>
       <path id="DejaVuSans-76" d="M 191 3500 
L 800 3500 
L 1894 563 
L 2988 3500 
L 3597 3500 
L 2284 0 
L 1503 0 
L 191 3500 
z
" transform="scale(0.015625)"/>
       <path id="DejaVuSans-72" d="M 2631 2963 
Q 2534 3019 2420 3045 
Q 2306 3072 2169 3072 
Q 1681 3072 1420 2755 
Q 1159 2438 1159 1844 
L 1159 0 
L 581 0 
L 581 3500 
L 1159 3500 
L 1159 2956 
Q 1341 3275 1631 3429 
Q 1922 3584 2338 3584 
Q 2397 3584 2469 3576 
Q 2541 3569 2628 3553 
L 2631 2963 
z
" transform="scale(0.015625)"/>
       <path id="DejaVuSans-61" d="M 2194 1759 
Q 1497 1759 1228 1600 
Q 959 1441 959 1056 
Q 959 750 1161 570 
Q 1363 391 1709 391 
Q 2188 391 2477 730 
Q 2766 1069 2766 1631 
L 2766 1759 
L 2194 1759 
z
M 3341 1997 
L 3341 0 
L 2766 0 
L 2766 531 
Q 2569 213 2275 61 
Q 1981 -91 1556 -91 
Q 1019 -91 701 211 
Q 384 513 384 1019 
Q 384 1609 779 1909 
Q 1175 2209 1959 2209 
L 2766 2209 
L 2766 2266 
Q 2766 2663 2505 2880 
Q 2244 3097 1772 3097 
Q 1472 3097 1187 3025 
Q 903 2953 641 2809 
L 641 3341 
Q 956 3463 1253 3523 
Q 1550 3584 1831 3584 
Q 2591 3584 2966 3190 
Q 3341 2797 3341 1997 
z
" transform="scale(0.015625)"/>
       <path id="DejaVuSans-67" d="M 2906 1791 
Q 2906 2416 2648 2759 
Q 2391 3103 1925 3103 
Q 1463 3103 1205 2759 
Q 947 2416 947 1791 
Q 947 1169 1205 825 
Q 1463 481 1925 481 
Q 2391 481 2648 825 
Q 2906 1169 2906 1791 
z
M 3481 434 
Q 3481 -459 3084 -895 
Q 2688 -1331 1869 -1331 
Q 1566 -1331 1297 -1286 
Q 1028 -1241 775 -1147 
L 775 -588 
Q 1028 -725 1275 -790 
Q 1522 -856 1778 -856 
Q 2344 -856 2625 -561 
Q 2906 -266 2906 331 
L 2906 616 
Q 2728 306 2450 153 
Q 2172 0 1784 0 
Q 1141 0 747 490 
Q 353 981 353 1791 
Q 353 2603 747 3093 
Q 1141 3584 1784 3584 
Q 2172 3584 2450 3431 
Q 2728 3278 2906 2969 
L 2906 3500 
L 3481 3500 
L 3481 434 
z
" transform="scale(0.015625)"/>
       <path id="DejaVuSans-20" transform="scale(0.015625)"/>
       <path id="DejaVuSans-52" d="M 2841 2188 
Q 3044 2119 3236 1894 
Q 3428 1669 3622 1275 
L 4263 0 
L 3584 0 
L 2988 1197 
Q 2756 1666 2539 1819 
Q 2322 1972 1947 1972 
L 1259 1972 
L 1259 0 
L 628 0 
L 628 4666 
L 2053 4666 
Q 2853 4666 3247 4331 
Q 3641 3997 3641 3322 
Q 3641 2881 3436 2590 
Q 3231 2300 2841 2188 
z
M 1259 4147 
L 1259 2491 
L 2053 2491 
Q 2509 2491 2742 2702 
Q 2975 2913 2975 3322 
Q 2975 3731 2742 3939 
Q 2509 4147 2053 4147 
L 1259 4147 
z
" transform="scale(0.015625)"/>
       <path id="DejaVuSans-77" d="M 269 3500 
L 844 3500 
L 1563 769 
L 2278 3500 
L 2956 3500 
L 3675 769 
L 4391 3500 
L 4966 3500 
L 4050 0 
L 3372 0 
L 2619 2869 
L 1863 0 
L 1184 0 
L 269 3500 
z
" transform="scale(0.015625)"/>
       <path id="DejaVuSans-64" d="M 2906 2969 
L 2906 4863 
L 3481 4863 
L 3481 0 
L 2906 0 
L 2906 525 
Q 2725 213 2448 61 
Q 2172 -91 1784 -91 
Q 1150 -91 751 415 
Q 353 922 353 1747 
Q 353 2572 751 3078 
Q 1150 3584 1784 3584 
Q 2172 3584 2448 3432 
Q 2725 3281 2906 2969 
z
M 947 1747 
Q 947 1113 1208 752 
Q 1469 391 1925 391 
Q 2381 391 2643 752 
Q 2906 1113 2906 1747 
Q 2906 2381 2643 2742 
Q 2381 3103 1925 3103 
Q 1469 3103 1208 2742 
Q 947 2381 947 1747 
z
" transform="scale(0.015625)"/>
      </defs>
      <use xlink:href="#DejaVuSans-41"/>
      <use xlink:href="#DejaVuSans-76" x="62.533203"/>
      <use xlink:href="#DejaVuSans-65" x="121.712891"/>
      <use xlink:href="#DejaVuSans-72" x="183.236328"/>
      <use xlink:href="#DejaVuSans-61" x="224.349609"/>
      <use xlink:href="#DejaVuSans-67" x="285.628906"/>
      <use xlink:href="#DejaVuSans-65" x="349.105469"/>
      <use xlink:href="#DejaVuSans-20" x="410.628906"/>
      <use xlink:href="#DejaVuSans-52" x="442.416016"/>
      <use xlink:href="#DejaVuSans-65" x="507.398438"/>
      <use xlink:href="#DejaVuSans-77" x="568.921875"/>
      <use xlink:href="#DejaVuSans-61" x="650.708984"/>
      <use xlink:href="#DejaVuSans-72" x="711.988281"/>
      <use xlink:href="#DejaVuSans-64" x="751.351562"/>
     </g>
    </g>
   </g>
   <g id="line2d_19">
    <path d="M 115.363636 283.685289 
L 115.6174 258.934816 
L 115.871163 258.934816 
L 116.124926 226.251501 
L 116.378689 328.743841 
L 116.632453 369.36 
L 117.139979 161.519496 
L 117.393742 314.147408 
L 117.901269 170.404281 
L 118.408795 131.692004 
L 118.662559 119.951396 
L 118.916322 148.192319 
L 119.170085 78.383295 
L 119.423848 189.125792 
L 119.677612 131.37469 
L 119.931375 128.518867 
L 120.185138 109.162728 
L 120.438901 104.085708 
L 120.692665 119.951396 
L 120.946428 125.980357 
L 121.200191 181.192949 
L 121.453954 103.768395 
L 121.707717 122.807219 
L 121.961481 128.518867 
L 122.215244 119.951396 
L 122.72277 92.662413 
L 122.976534 120.586023 
L 123.230297 186.904596 
L 123.737823 89.171962 
L 124.24535 134.230514 
L 124.499113 133.9132 
L 125.00664 95.518237 
L 125.260403 94.88361 
L 125.514166 106.306905 
L 125.767929 100.595257 
L 126.021693 83.777629 
L 126.275456 122.807219 
L 126.529219 72.671647 
L 126.782982 189.125792 
L 127.036746 117.412886 
L 127.290509 89.80659 
L 127.544272 95.200923 
L 127.798035 98.056747 
L 128.051799 97.739433 
L 128.305562 167.548458 
L 128.559325 86.633452 
L 128.813088 131.37469 
L 129.066852 95.200923 
L 129.320615 156.125163 
L 129.574378 123.124533 
L 129.828141 178.337125 
L 130.081905 94.88361 
L 130.335668 103.451081 
L 130.589431 142.480672 
L 130.843194 145.019182 
L 131.096958 106.624218 
L 131.350721 131.37469 
L 131.604484 92.027786 
L 131.858247 106.306905 
L 132.112011 150.730829 
L 132.365774 92.027786 
L 132.619537 84.094942 
L 132.8733 139.624848 
L 133.127064 80.921805 
L 133.380827 145.336495 
L 133.63459 97.739433 
L 133.888353 98.056747 
L 134.142117 78.065981 
L 134.39588 75.210157 
L 134.649643 161.83681 
L 134.903406 139.624848 
L 135.157169 103.451081 
L 135.410933 153.269339 
L 135.664696 92.3451 
L 135.918459 165.009948 
L 136.172222 145.336495 
L 136.425986 106.306905 
L 136.679749 86.633452 
L 136.933512 89.489276 
L 137.187275 95.200923 
L 137.694802 153.903966 
L 137.948565 106.624218 
L 138.202328 80.921805 
L 138.456092 136.45171 
L 138.709855 75.527471 
L 138.963618 120.268709 
L 139.217381 94.566296 
L 139.471145 147.875005 
L 139.724908 97.739433 
L 139.978671 100.912571 
L 140.232434 92.3451 
L 140.486198 119.951396 
L 140.993724 89.80659 
L 141.247487 100.912571 
L 141.501251 186.904596 
L 141.755014 86.633452 
L 142.008777 131.057377 
L 142.26254 109.162728 
L 142.516304 128.83618 
L 142.770067 86.633452 
L 143.277593 158.980986 
L 143.531357 108.845414 
L 144.038883 98.056747 
L 144.292646 69.815824 
L 144.54641 161.83681 
L 144.800173 150.730829 
L 145.053936 158.663673 
L 145.307699 80.921805 
L 145.561463 137.086338 
L 145.815226 128.518867 
L 146.068989 103.451081 
L 146.322752 181.192949 
L 146.576516 103.451081 
L 146.830279 97.739433 
L 147.084042 175.481301 
L 147.337805 109.162728 
L 147.591569 108.845414 
L 147.845332 114.557062 
L 148.099095 167.231144 
L 148.352858 86.633452 
L 148.860385 162.154124 
L 149.114148 98.374061 
L 149.367911 84.094942 
L 149.875438 111.383924 
L 150.129201 153.269339 
L 150.636727 95.200923 
L 150.890491 95.518237 
L 151.398017 117.095572 
L 151.65178 103.451081 
L 151.905544 103.768395 
L 152.159307 117.412886 
L 152.41307 83.777629 
L 152.920597 139.624848 
L 153.17436 139.624848 
L 153.428123 78.383295 
L 153.681886 89.80659 
L 153.93565 95.200923 
L 154.189413 125.663043 
L 154.443176 104.085708 
L 154.696939 142.480672 
L 154.950703 109.162728 
L 155.204466 125.345729 
L 155.458229 109.162728 
L 155.711992 103.451081 
L 155.965756 136.45171 
L 156.219519 86.633452 
L 156.473282 131.37469 
L 156.727045 78.383295 
L 156.980809 75.527471 
L 157.234572 145.019182 
L 157.488335 147.875005 
L 157.742098 86.950766 
L 157.995862 92.3451 
L 158.249625 103.451081 
L 158.503388 83.777629 
L 159.010915 122.807219 
L 159.264678 86.950766 
L 159.518441 75.527471 
L 159.772204 92.3451 
L 160.279731 142.163358 
L 160.533494 81.239119 
L 160.787257 86.633452 
L 161.041021 83.777629 
L 161.294784 125.663043 
L 161.548547 133.9132 
L 161.80231 125.663043 
L 162.056073 89.80659 
L 162.309837 109.480042 
L 162.5636 92.662413 
L 162.817363 92.027786 
L 163.071126 128.201553 
L 163.578653 84.094942 
L 163.832416 95.518237 
L 164.086179 78.383295 
L 164.593706 145.019182 
L 164.847469 92.662413 
L 165.101232 97.739433 
L 165.354996 134.230514 
L 165.862522 78.383295 
L 166.116285 117.095572 
L 166.370049 100.595257 
L 166.623812 98.056747 
L 166.877575 131.057377 
L 167.131338 117.095572 
L 167.385102 162.471438 
L 167.638865 98.056747 
L 167.892628 95.200923 
L 168.146391 112.018552 
L 168.400155 117.412886 
L 168.653918 197.693263 
L 168.907681 106.624218 
L 169.161444 142.480672 
L 169.415208 95.518237 
L 169.668971 119.951396 
L 169.922734 108.845414 
L 170.176497 139.624848 
L 170.430261 84.094942 
L 170.684024 122.489906 
L 171.19155 81.239119 
L 171.95284 117.730199 
L 172.206603 100.595257 
L 172.460367 111.701238 
L 172.71413 105.989591 
L 172.967893 184.048772 
L 173.221656 89.489276 
L 173.47542 137.086338 
L 173.729183 109.162728 
L 173.982946 112.018552 
L 174.236709 83.777629 
L 174.490473 128.518867 
L 174.997999 75.527471 
L 175.251762 84.094942 
L 175.505525 103.768395 
L 175.759289 98.056747 
L 176.013052 106.306905 
L 176.266815 95.200923 
L 176.520578 147.557692 
L 176.774342 95.200923 
L 177.028105 89.489276 
L 177.281868 119.951396 
L 177.535631 86.950766 
L 177.789395 95.200923 
L 178.043158 89.80659 
L 178.296921 111.701238 
L 178.550684 78.383295 
L 178.804448 86.633452 
L 179.058211 141.846044 
L 179.311974 144.701868 
L 179.565737 133.9132 
L 179.819501 95.200923 
L 180.073264 92.027786 
L 180.327027 97.739433 
L 180.58079 83.777629 
L 180.834554 92.3451 
L 181.088317 181.192949 
L 181.595843 95.518237 
L 181.849607 97.739433 
L 182.10337 98.056747 
L 182.357133 211.655068 
L 182.610896 89.80659 
L 182.86466 153.269339 
L 183.118423 161.83681 
L 183.372186 92.662413 
L 183.625949 80.921805 
L 183.879713 92.662413 
L 184.133476 133.9132 
L 184.387239 106.306905 
L 184.641002 92.3451 
L 184.894766 131.057377 
L 185.148529 128.518867 
L 185.402292 92.662413 
L 185.656055 106.624218 
L 185.909819 106.306905 
L 186.163582 92.662413 
L 186.417345 101.229885 
L 186.671108 89.80659 
L 186.924872 156.125163 
L 187.178635 183.731459 
L 187.432398 161.83681 
L 187.686161 92.662413 
L 187.939925 148.192319 
L 188.193688 92.3451 
L 188.447451 178.337125 
L 188.701214 95.200923 
L 188.954977 95.200923 
L 189.208741 161.83681 
L 189.716267 95.518237 
L 189.97003 156.125163 
L 190.223794 106.306905 
L 190.477557 84.094942 
L 190.73132 98.056747 
L 190.985083 181.510262 
L 191.238847 81.239119 
L 191.49261 119.634082 
L 191.746373 109.797356 
L 192.000136 84.094942 
L 192.507663 198.010577 
L 192.761426 100.595257 
L 193.015189 150.413515 
L 193.268953 98.056747 
L 193.522716 114.557062 
L 193.776479 103.451081 
L 194.284006 98.056747 
L 194.537769 80.921805 
L 194.791532 81.239119 
L 195.045295 81.239119 
L 195.299059 109.162728 
L 195.552822 100.595257 
L 195.806585 100.595257 
L 196.314112 198.010577 
L 196.567875 114.874376 
L 196.821638 111.701238 
L 197.075401 81.239119 
L 197.582928 136.45171 
L 197.836691 119.951396 
L 198.090454 153.586653 
L 198.344218 100.595257 
L 198.597981 100.595257 
L 198.851744 98.056747 
L 199.359271 117.095572 
L 199.613034 89.171962 
L 199.866797 131.057377 
L 200.12056 89.171962 
L 200.374324 133.9132 
L 200.628087 125.345729 
L 200.88185 111.383924 
L 201.135613 150.730829 
L 201.389377 81.239119 
L 201.64314 114.239748 
L 201.896903 72.671647 
L 202.150666 170.404281 
L 202.404429 106.306905 
L 202.658193 81.239119 
L 202.911956 236.40554 
L 203.165719 89.80659 
L 203.419482 92.3451 
L 203.673246 142.480672 
L 203.927009 147.875005 
L 204.180772 78.383295 
L 204.434535 159.2983 
L 204.688299 98.374061 
L 204.942062 117.412886 
L 205.195825 86.950766 
L 205.449588 111.701238 
L 205.703352 122.807219 
L 205.957115 89.80659 
L 206.464641 151.048143 
L 206.718405 89.80659 
L 206.972168 122.807219 
L 207.479694 133.9132 
L 207.987221 156.442476 
L 208.240984 92.662413 
L 208.494747 66.96 
L 209.002274 131.37469 
L 209.256037 81.239119 
L 209.5098 92.3451 
L 209.763564 136.769024 
L 210.017327 109.480042 
L 210.27109 106.306905 
L 210.524853 95.200923 
L 210.778617 111.701238 
L 211.03238 180.875635 
L 211.539906 103.133767 
L 211.79367 89.489276 
L 212.301196 142.163358 
L 212.554959 128.201553 
L 212.808723 137.086338 
L 213.062486 78.383295 
L 213.316249 131.37469 
L 213.570012 127.884239 
L 213.823776 106.306905 
L 214.077539 139.624848 
L 214.331302 150.413515 
L 214.838829 97.739433 
L 215.092592 83.777629 
L 215.346355 150.730829 
L 215.600118 142.163358 
L 215.853881 106.624218 
L 216.361408 72.671647 
L 216.615171 114.239748 
L 216.868934 114.874376 
L 217.122698 86.316139 
L 217.376461 108.845414 
L 217.630224 100.595257 
L 217.883987 97.739433 
L 218.137751 125.345729 
L 218.391514 89.80659 
L 218.645277 180.875635 
L 218.89904 106.624218 
L 219.152804 109.162728 
L 219.406567 95.200923 
L 219.66033 172.625477 
L 219.914093 100.912571 
L 220.167857 112.335866 
L 220.42162 156.125163 
L 220.675383 89.489276 
L 220.929146 86.950766 
L 221.18291 72.671647 
L 221.690436 172.625477 
L 221.944199 78.383295 
L 222.197963 125.980357 
L 222.451726 108.845414 
L 222.705489 117.095572 
L 222.959252 139.307534 
L 223.213016 98.056747 
L 223.466779 189.125792 
L 223.720542 103.768395 
L 223.974305 114.557062 
L 224.481832 153.269339 
L 224.735595 131.37469 
L 224.989358 131.057377 
L 225.243122 119.951396 
L 225.496885 86.633452 
L 225.750648 123.124533 
L 226.004411 92.3451 
L 226.258175 105.989591 
L 226.511938 103.768395 
L 226.765701 103.451081 
L 227.019464 145.019182 
L 227.273228 100.595257 
L 227.526991 105.989591 
L 227.780754 142.480672 
L 228.034517 92.3451 
L 228.288281 145.336495 
L 228.542044 100.277943 
L 228.795807 83.460315 
L 229.04957 181.510262 
L 229.303333 158.980986 
L 229.557097 117.412886 
L 229.81086 111.701238 
L 230.318386 86.950766 
L 230.57215 120.268709 
L 230.825913 95.518237 
L 231.333439 181.192949 
L 231.587203 89.80659 
L 231.840966 133.9132 
L 232.348492 98.056747 
L 232.602256 123.124533 
L 232.856019 111.701238 
L 233.109782 131.37469 
L 233.363545 172.942791 
L 233.617309 84.094942 
L 233.871072 78.065981 
L 234.124835 95.518237 
L 234.378598 142.163358 
L 234.632362 125.663043 
L 235.139888 78.065981 
L 235.393651 100.277943 
L 235.647415 109.162728 
L 236.154941 86.950766 
L 236.408704 150.730829 
L 236.662468 103.768395 
L 236.916231 100.595257 
L 237.169994 112.018552 
L 237.423757 117.095572 
L 237.677521 186.904596 
L 237.931284 119.951396 
L 238.185047 137.086338 
L 238.43881 111.701238 
L 238.692574 103.451081 
L 238.946337 142.480672 
L 239.2001 75.210157 
L 239.453863 92.662413 
L 239.707627 144.701868 
L 239.96139 92.662413 
L 240.215153 106.306905 
L 240.468916 100.595257 
L 240.72268 78.065981 
L 240.976443 103.768395 
L 241.230206 153.586653 
L 241.483969 112.335866 
L 241.737733 114.557062 
L 241.991496 89.489276 
L 242.245259 112.653179 
L 242.499022 114.557062 
L 242.752785 69.815824 
L 243.260312 128.518867 
L 243.514075 103.768395 
L 243.767838 139.942162 
L 244.021602 108.528101 
L 244.275365 114.874376 
L 244.529128 133.595887 
L 244.782891 114.874376 
L 245.290418 145.019182 
L 245.544181 175.798615 
L 245.797944 122.807219 
L 246.051708 136.769024 
L 246.305471 191.664302 
L 247.066761 100.912571 
L 247.320524 164.37532 
L 247.574287 95.200923 
L 247.82805 97.739433 
L 248.081814 145.336495 
L 248.335577 152.952025 
L 248.58934 78.383295 
L 249.096867 117.730199 
L 249.35063 108.845414 
L 249.604393 86.633452 
L 249.858156 114.557062 
L 250.11192 109.162728 
L 250.365683 75.527471 
L 250.619446 86.950766 
L 250.873209 84.094942 
L 251.126973 117.095572 
L 251.380736 92.3451 
L 251.634499 125.663043 
L 251.888262 140.259475 
L 252.142026 120.268709 
L 252.395789 84.094942 
L 252.649552 92.662413 
L 252.903315 81.239119 
L 253.157079 106.306905 
L 253.410842 89.489276 
L 253.664605 97.739433 
L 253.918368 89.80659 
L 254.172132 98.056747 
L 254.425895 66.96 
L 254.679658 120.268709 
L 254.933421 89.80659 
L 255.187185 98.056747 
L 255.440948 78.383295 
L 255.694711 89.80659 
L 256.202237 159.615614 
L 256.456001 92.3451 
L 256.709764 106.306905 
L 256.963527 142.480672 
L 257.21729 86.633452 
L 257.471054 78.383295 
L 257.724817 106.306905 
L 257.97858 111.701238 
L 258.232343 109.162728 
L 258.486107 98.056747 
L 258.73987 98.056747 
L 258.993633 84.094942 
L 259.247396 98.374061 
L 259.50116 139.307534 
L 259.754923 84.094942 
L 260.008686 136.45171 
L 260.262449 103.451081 
L 260.516213 103.768395 
L 260.769976 89.80659 
L 261.023739 161.519496 
L 261.531266 125.980357 
L 261.785029 142.163358 
L 262.038792 105.989591 
L 262.292555 181.192949 
L 262.546319 147.875005 
L 262.800082 156.125163 
L 263.053845 125.663043 
L 263.307608 198.010577 
L 263.561372 117.095572 
L 263.815135 95.200923 
L 264.068898 142.480672 
L 264.322661 69.815824 
L 264.576425 92.662413 
L 264.830188 142.163358 
L 265.083951 106.624218 
L 265.337714 161.83681 
L 265.591478 161.519496 
L 265.845241 106.306905 
L 266.099004 75.527471 
L 266.352767 86.950766 
L 266.606531 128.201553 
L 266.860294 136.769024 
L 267.114057 109.162728 
L 267.36782 117.730199 
L 267.621584 103.133767 
L 267.875347 75.527471 
L 268.12911 108.845414 
L 268.382873 95.518237 
L 268.8904 100.595257 
L 269.144163 136.769024 
L 269.397926 153.586653 
L 269.651689 94.88361 
L 269.905453 112.018552 
L 270.159216 103.451081 
L 270.412979 114.557062 
L 270.666742 117.412886 
L 270.920506 123.124533 
L 271.174269 95.200923 
L 271.428032 95.200923 
L 271.681795 127.884239 
L 271.935559 139.624848 
L 272.189322 103.133767 
L 272.443085 133.9132 
L 272.696848 89.171962 
L 272.950612 142.163358 
L 273.204375 103.451081 
L 273.458138 83.777629 
L 273.711901 123.124533 
L 273.965665 112.018552 
L 274.219428 114.557062 
L 274.473191 100.595257 
L 274.726954 109.480042 
L 274.980718 131.057377 
L 275.234481 112.018552 
L 275.488244 114.874376 
L 275.742007 97.739433 
L 275.995771 123.441847 
L 276.249534 106.306905 
L 276.503297 100.912571 
L 276.75706 98.374061 
L 277.010824 83.777629 
L 277.264587 106.306905 
L 277.51835 103.451081 
L 277.772113 78.383295 
L 278.025877 147.557692 
L 278.27964 150.730829 
L 278.533403 78.065981 
L 279.04093 92.3451 
L 279.294693 133.9132 
L 279.548456 92.3451 
L 279.802219 100.912571 
L 280.055983 117.095572 
L 280.309746 114.874376 
L 280.563509 133.9132 
L 280.817272 122.807219 
L 281.071036 100.595257 
L 281.324799 100.912571 
L 281.578562 103.451081 
L 281.832325 92.3451 
L 282.086088 92.3451 
L 282.339852 170.086967 
L 282.593615 109.480042 
L 282.847378 89.80659 
L 283.101141 158.980986 
L 283.354905 112.335866 
L 283.862431 72.671647 
L 284.116194 131.057377 
L 284.369958 89.489276 
L 284.877484 120.903337 
L 285.131247 118.047513 
L 285.385011 83.777629 
L 285.638774 103.451081 
L 285.892537 92.3451 
L 286.1463 100.912571 
L 286.400064 119.634082 
L 286.653827 117.412886 
L 286.90759 98.374061 
L 287.161353 89.489276 
L 287.415117 92.3451 
L 287.66888 184.366086 
L 287.922643 117.730199 
L 288.176406 114.874376 
L 288.43017 100.912571 
L 288.683933 131.057377 
L 288.937696 72.671647 
L 289.445223 97.739433 
L 289.698986 103.768395 
L 289.952749 97.739433 
L 290.206512 95.200923 
L 290.460276 153.269339 
L 290.714039 100.595257 
L 290.967802 97.739433 
L 291.221565 112.018552 
L 291.729092 92.3451 
L 291.982855 95.200923 
L 292.236618 122.807219 
L 292.490382 86.633452 
L 292.744145 94.88361 
L 292.997908 98.374061 
L 293.505435 98.374061 
L 293.759198 114.874376 
L 294.012961 92.027786 
L 294.266724 86.950766 
L 295.028014 131.057377 
L 295.281777 117.095572 
L 295.53554 78.383295 
L 295.789304 156.125163 
L 296.043067 89.80659 
L 296.29683 83.777629 
L 296.550593 97.739433 
L 296.804357 92.662413 
L 297.05812 83.777629 
L 297.565646 136.45171 
L 297.81941 131.37469 
L 298.073173 95.200923 
L 298.326936 115.191689 
L 298.580699 95.518237 
L 298.834463 100.912571 
L 299.088226 120.268709 
L 299.341989 128.83618 
L 299.849516 118.364827 
L 300.357042 94.88361 
L 300.610805 109.480042 
L 300.864569 114.239748 
L 301.372095 84.094942 
L 301.625858 122.807219 
L 301.879622 86.950766 
L 302.133385 98.374061 
L 302.894675 114.874376 
L 303.148438 153.903966 
L 303.402201 89.80659 
L 303.655964 81.239119 
L 303.909728 114.557062 
L 304.163491 114.557062 
L 304.417254 98.056747 
L 304.924781 133.9132 
L 305.432307 117.730199 
L 305.68607 89.80659 
L 305.939834 83.777629 
L 306.193597 92.662413 
L 306.44736 186.587282 
L 306.701123 131.37469 
L 306.954887 106.306905 
L 307.20865 112.018552 
L 307.462413 81.239119 
L 307.716176 97.739433 
L 307.96994 86.950766 
L 308.223703 117.730199 
L 308.477466 94.88361 
L 308.731229 133.9132 
L 308.984992 119.951396 
L 309.238756 120.268709 
L 309.746282 92.3451 
L 310.000045 89.80659 
L 310.253809 120.268709 
L 310.507572 133.9132 
L 310.761335 86.950766 
L 311.015098 89.80659 
L 311.268862 148.192319 
L 311.522625 128.518867 
L 311.776388 142.163358 
L 312.030151 84.094942 
L 312.283915 78.383295 
L 312.537678 92.3451 
L 312.791441 123.124533 
L 313.045204 112.018552 
L 313.298968 78.383295 
L 313.552731 109.480042 
L 313.806494 103.133767 
L 314.060257 86.633452 
L 314.567784 147.557692 
L 314.821547 89.489276 
L 315.07531 150.413515 
L 315.582837 111.701238 
L 315.8366 95.200923 
L 316.090363 86.633452 
L 316.344127 89.489276 
L 316.59789 128.518867 
L 316.851653 109.162728 
L 317.105416 120.268709 
L 317.35918 103.451081 
L 317.612943 128.83618 
L 317.866706 100.595257 
L 318.120469 89.80659 
L 318.374233 69.815824 
L 318.627996 114.874376 
L 318.881759 84.094942 
L 319.135522 100.595257 
L 319.389286 81.239119 
L 319.643049 86.316139 
L 319.896812 78.383295 
L 320.150575 114.557062 
L 320.404339 86.633452 
L 320.658102 84.094942 
L 320.911865 117.412886 
L 321.165628 100.595257 
L 321.419392 75.527471 
L 321.673155 92.027786 
L 321.926918 92.3451 
L 322.180681 114.239748 
L 322.434444 109.162728 
L 322.688208 86.950766 
L 322.941971 78.383295 
L 323.195734 106.306905 
L 323.449497 81.239119 
L 323.703261 111.701238 
L 323.957024 95.518237 
L 324.210787 136.769024 
L 324.46455 123.124533 
L 324.718314 138.99022 
L 324.972077 103.451081 
L 325.22584 95.200923 
L 325.479603 112.018552 
L 325.733367 95.200923 
L 325.98713 95.518237 
L 326.240893 122.807219 
L 327.002183 84.094942 
L 327.255946 106.306905 
L 327.509709 98.374061 
L 327.763473 84.094942 
L 328.017236 98.056747 
L 328.270999 136.45171 
L 328.524762 112.335866 
L 328.778526 108.845414 
L 329.032289 100.912571 
L 329.286052 139.307534 
L 329.539815 83.777629 
L 329.793579 167.548458 
L 330.047342 101.229885 
L 330.301105 153.903966 
L 330.554868 100.912571 
L 330.808632 95.200923 
L 331.062395 147.875005 
L 331.316158 95.200923 
L 331.569921 112.018552 
L 331.823685 117.412886 
L 332.077448 81.239119 
L 332.584974 117.412886 
L 332.838738 78.383295 
L 333.092501 120.268709 
L 333.346264 86.633452 
L 333.600027 89.489276 
L 333.853791 159.2983 
L 334.107554 103.768395 
L 334.361317 109.797356 
L 334.61508 128.201553 
L 334.868844 106.306905 
L 335.122607 95.200923 
L 335.37637 89.80659 
L 335.883896 103.451081 
L 336.13766 92.662413 
L 336.391423 117.412886 
L 336.645186 98.374061 
L 336.898949 150.730829 
L 337.406476 72.671647 
L 337.660239 111.701238 
L 337.914002 95.200923 
L 338.167766 139.942162 
L 338.421529 118.047513 
L 338.675292 81.239119 
L 338.929055 150.730829 
L 339.436582 78.383295 
L 339.690345 92.662413 
L 339.944108 83.777629 
L 340.197872 106.624218 
L 340.451635 89.171962 
L 340.705398 128.518867 
L 340.959161 100.912571 
L 341.212925 120.268709 
L 341.466688 95.200923 
L 341.720451 92.662413 
L 341.974214 145.019182 
L 342.481741 98.056747 
L 342.735504 78.383295 
L 342.989267 86.633452 
L 343.243031 106.624218 
L 343.496794 98.056747 
L 343.750557 114.557062 
L 344.258084 89.80659 
L 344.76561 186.587282 
L 345.019373 84.094942 
L 345.273137 81.239119 
L 345.780663 114.557062 
L 346.034426 80.921805 
L 346.28819 95.200923 
L 346.541953 100.912571 
L 346.795716 103.451081 
L 347.303243 178.337125 
L 347.557006 104.085708 
L 347.810769 128.201553 
L 348.064532 84.094942 
L 348.318296 86.633452 
L 348.572059 128.201553 
L 348.825822 94.88361 
L 349.079585 95.200923 
L 349.333348 75.527471 
L 349.587112 98.056747 
L 349.840875 136.769024 
L 350.094638 223.078363 
L 350.348401 115.191689 
L 350.602165 167.231144 
L 350.855928 153.269339 
L 351.109691 106.624218 
L 351.617218 128.518867 
L 351.870981 158.663673 
L 352.124744 80.921805 
L 352.378507 100.912571 
L 352.632271 106.624218 
L 352.886034 106.941532 
L 353.39356 92.662413 
L 353.647324 128.201553 
L 353.901087 100.595257 
L 354.15485 98.056747 
L 354.408613 100.277943 
L 354.662377 97.739433 
L 354.91614 139.624848 
L 355.169903 122.807219 
L 355.423666 81.239119 
L 355.67743 136.769024 
L 355.931193 131.692004 
L 356.184956 104.085708 
L 356.438719 89.489276 
L 356.692483 98.056747 
L 356.946246 89.80659 
L 357.200009 100.912571 
L 357.453772 189.443106 
L 357.961299 112.018552 
L 358.215062 131.37469 
L 358.468825 95.518237 
L 358.722589 92.662413 
L 358.976352 156.442476 
L 359.230115 128.201553 
L 359.483878 142.480672 
L 359.737642 92.027786 
L 359.991405 150.413515 
L 360.245168 98.374061 
L 360.498931 84.094942 
L 360.752695 95.200923 
L 361.260221 198.010577 
L 361.513984 112.018552 
L 361.767748 153.269339 
L 362.021511 92.662413 
L 362.275274 100.912571 
L 362.529037 100.595257 
L 362.7828 106.306905 
L 363.036564 131.692004 
L 363.290327 103.451081 
L 363.54409 89.171962 
L 363.797853 122.807219 
L 364.30538 100.595257 
L 364.559143 89.489276 
L 364.812906 86.633452 
L 365.06667 92.3451 
L 365.320433 75.527471 
L 365.827959 148.192319 
L 366.081723 100.912571 
L 366.589249 133.9132 
L 366.843012 103.451081 
L 367.096776 172.942791 
L 367.350539 133.9132 
L 367.604302 114.557062 
L 367.858065 105.989591 
L 368.111829 128.518867 
L 368.365592 136.769024 
L 368.619355 86.633452 
L 368.873118 89.489276 
L 369.126882 106.624218 
L 369.380645 142.163358 
L 369.634408 81.239119 
L 369.888171 123.124533 
L 370.141935 84.094942 
L 370.395698 92.662413 
L 370.649461 89.489276 
L 370.903224 69.815824 
L 371.156988 137.086338 
L 371.410751 78.383295 
L 372.172041 117.730199 
L 372.425804 122.807219 
L 372.679567 167.548458 
L 372.93333 122.807219 
L 373.187094 200.549087 
L 373.440857 161.83681 
L 373.69462 147.557692 
L 373.948383 92.662413 
L 374.202147 103.768395 
L 374.45591 83.777629 
L 374.709673 89.80659 
L 374.963436 75.527471 
L 375.2172 197.693263 
L 375.470963 114.874376 
L 375.724726 142.163358 
L 375.978489 106.306905 
L 376.232252 109.480042 
L 376.486016 81.239119 
L 376.739779 100.912571 
L 376.993542 84.094942 
L 377.247305 92.662413 
L 377.501069 145.019182 
L 377.754832 89.80659 
L 378.008595 117.730199 
L 378.262358 101.229885 
L 378.516122 139.307534 
L 378.769885 103.768395 
L 379.277411 89.80659 
L 379.531175 142.480672 
L 379.784938 133.9132 
L 380.292464 92.3451 
L 380.546228 112.018552 
L 380.799991 95.518237 
L 381.053754 95.200923 
L 381.307517 92.662413 
L 381.561281 105.989591 
L 381.815044 94.88361 
L 382.068807 98.056747 
L 382.32257 103.133767 
L 382.576334 150.730829 
L 382.830097 92.662413 
L 383.08386 114.557062 
L 383.337623 125.663043 
L 383.591387 98.056747 
L 383.84515 95.200923 
L 384.098913 95.200923 
L 384.352676 95.518237 
L 384.60644 98.056747 
L 384.860203 112.018552 
L 385.113966 80.921805 
L 385.367729 112.018552 
L 385.621493 100.595257 
L 385.875256 101.229885 
L 386.129019 72.671647 
L 386.382782 103.451081 
L 386.636546 100.277943 
L 386.890309 81.239119 
L 387.144072 131.057377 
L 387.397835 117.095572 
L 387.651599 128.518867 
L 387.905362 114.557062 
L 388.159125 156.442476 
L 388.666652 95.200923 
L 388.920415 161.83681 
L 389.174178 92.3451 
L 389.427941 98.056747 
L 389.681704 92.3451 
L 389.935468 100.595257 
L 390.189231 136.769024 
L 390.442994 95.518237 
L 390.696757 75.527471 
L 390.950521 105.989591 
L 391.204284 75.527471 
L 391.458047 92.3451 
L 391.71181 95.200923 
L 391.965574 134.230514 
L 392.726863 92.662413 
L 392.980627 134.230514 
L 393.23439 120.586023 
L 393.488153 95.200923 
L 393.741916 125.663043 
L 393.99568 114.874376 
L 394.249443 142.480672 
L 394.503206 151.365456 
L 394.756969 142.797985 
L 395.010733 106.624218 
L 395.264496 95.518237 
L 395.518259 92.662413 
L 395.772022 139.624848 
L 396.025786 125.345729 
L 396.279549 94.88361 
L 396.533312 97.739433 
L 396.787075 86.950766 
L 397.040839 86.950766 
L 397.294602 134.230514 
L 397.548365 81.239119 
L 397.802128 134.230514 
L 398.055892 156.442476 
L 398.309655 84.094942 
L 398.563418 89.80659 
L 398.817181 139.307534 
L 399.070945 86.950766 
L 399.324708 84.094942 
L 399.578471 92.662413 
L 399.832234 142.163358 
L 400.085998 145.336495 
L 400.339761 112.018552 
L 400.593524 119.951396 
L 400.847287 100.912571 
L 401.101051 92.662413 
L 401.354814 109.162728 
L 401.608577 167.548458 
L 402.116104 136.45171 
L 402.369867 181.192949 
L 402.62363 98.056747 
L 402.877393 117.730199 
L 403.131156 92.3451 
L 403.38492 89.80659 
L 403.638683 139.624848 
L 403.892446 81.239119 
L 404.146209 103.768395 
L 404.399973 72.671647 
L 404.653736 81.239119 
L 404.907499 103.451081 
L 405.161262 86.950766 
L 405.415026 86.316139 
L 405.668789 92.3451 
L 405.922552 153.586653 
L 406.176315 106.306905 
L 406.430079 106.306905 
L 406.683842 100.912571 
L 406.937605 86.950766 
L 407.191368 109.162728 
L 407.445132 92.662413 
L 407.698895 95.518237 
L 407.952658 81.239119 
L 408.206421 139.942162 
L 408.460185 100.912571 
L 408.713948 92.027786 
L 408.967711 100.912571 
L 409.221474 131.057377 
L 409.475238 128.518867 
L 409.982764 89.489276 
L 410.236527 153.586653 
L 410.490291 95.518237 
L 410.744054 122.807219 
L 410.997817 92.662413 
L 411.25158 101.229885 
L 411.505344 97.739433 
L 411.759107 89.80659 
L 412.01287 86.633452 
L 412.266633 94.88361 
L 412.520397 81.239119 
L 412.77416 81.239119 
L 413.027923 92.3451 
L 413.281686 92.662413 
L 413.53545 98.374061 
L 413.789213 78.383295 
L 414.042976 134.230514 
L 414.296739 217.049402 
L 414.550503 98.056747 
L 414.804266 97.739433 
L 415.058029 170.086967 
L 415.311792 120.586023 
L 415.565556 167.231144 
L 415.819319 89.489276 
L 416.073082 100.912571 
L 416.326845 86.633452 
L 416.580608 131.057377 
L 416.834372 137.720965 
L 417.088135 139.624848 
L 417.341898 84.094942 
L 417.595661 89.80659 
L 417.849425 92.662413 
L 418.103188 86.633452 
L 418.356951 89.80659 
L 418.610714 81.239119 
L 418.864478 92.662413 
L 419.118241 162.154124 
L 419.372004 137.086338 
L 419.625767 89.489276 
L 419.879531 100.595257 
L 420.387057 167.231144 
L 420.64082 109.480042 
L 420.894584 181.192949 
L 421.148347 89.80659 
L 421.40211 139.307534 
L 421.655873 92.3451 
L 421.909637 103.768395 
L 422.1634 84.094942 
L 422.417163 167.548458 
L 422.670926 103.768395 
L 422.92469 103.451081 
L 423.178453 111.701238 
L 423.432216 170.086967 
L 423.685979 95.518237 
L 423.939743 103.451081 
L 424.193506 95.518237 
L 424.447269 103.768395 
L 424.701032 158.980986 
L 424.954796 89.80659 
L 425.208559 84.094942 
L 425.462322 170.086967 
L 425.716085 83.777629 
L 425.969849 86.950766 
L 426.223612 81.239119 
L 426.477375 86.950766 
L 426.984902 106.941532 
L 427.238665 103.451081 
L 427.492428 92.3451 
L 427.746191 98.374061 
L 427.999955 123.441847 
L 428.253718 105.989591 
L 428.507481 156.125163 
L 428.761244 98.374061 
L 429.015008 148.192319 
L 429.268771 142.163358 
L 429.522534 86.950766 
L 429.776297 109.162728 
L 430.03006 164.692634 
L 430.283824 109.162728 
L 430.537587 112.018552 
L 430.79135 100.912571 
L 431.045113 94.88361 
L 431.298877 98.056747 
L 431.55264 86.950766 
L 431.806403 112.335866 
L 432.060166 153.903966 
L 432.31393 147.875005 
L 432.567693 105.989591 
L 432.821456 120.586023 
L 433.075219 101.229885 
L 433.328983 147.557692 
L 433.582746 98.056747 
L 433.836509 97.739433 
L 434.090272 131.37469 
L 434.344036 95.200923 
L 434.597799 100.912571 
L 434.851562 92.3451 
L 435.105325 78.383295 
L 435.359089 128.518867 
L 435.612852 136.769024 
L 435.866615 66.96 
L 436.120378 106.306905 
L 436.374142 100.277943 
L 436.627905 175.481301 
L 436.881668 92.662413 
L 437.135431 145.019182 
L 437.389195 84.094942 
L 437.642958 189.443106 
L 437.896721 89.80659 
L 438.150484 83.777629 
L 438.404248 103.768395 
L 438.658011 175.798615 
L 438.911774 100.912571 
L 439.165537 84.094942 
L 439.419301 100.912571 
L 439.673064 195.472067 
L 439.926827 111.701238 
L 440.18059 125.980357 
L 440.688117 95.200923 
L 440.94188 153.586653 
L 441.449407 84.094942 
L 441.70317 178.019811 
L 441.956933 112.018552 
L 442.210696 75.527471 
L 442.46446 153.586653 
L 442.718223 145.019182 
L 442.971986 100.912571 
L 443.225749 84.094942 
L 443.479512 89.80659 
L 443.733276 142.163358 
L 443.987039 106.624218 
L 444.240802 106.306905 
L 444.494565 112.335866 
L 444.748329 172.625477 
L 445.002092 78.383295 
L 445.255855 75.527471 
L 445.509618 95.518237 
L 445.763382 106.624218 
L 446.017145 103.451081 
L 446.270908 92.662413 
L 446.524671 145.019182 
L 446.778435 142.163358 
L 447.032198 162.154124 
L 447.285961 112.335866 
L 447.539724 92.662413 
L 447.793488 112.018552 
L 448.047251 98.374061 
L 448.554777 125.663043 
L 448.808541 192.29893 
L 449.062304 92.3451 
L 449.316067 158.980986 
L 449.56983 128.201553 
L 449.823594 114.874376 
L 450.077357 161.519496 
L 450.33112 106.941532 
L 450.584883 81.239119 
L 450.838647 198.327891 
L 451.346173 114.874376 
L 451.599936 95.518237 
L 451.8537 98.056747 
L 452.107463 145.019182 
L 452.361226 97.739433 
L 452.614989 106.941532 
L 452.868753 156.442476 
L 453.122516 92.3451 
L 453.376279 131.37469 
L 453.630042 136.769024 
L 453.883806 84.094942 
L 454.137569 98.374061 
L 454.645095 164.37532 
L 454.898859 92.662413 
L 455.152622 98.056747 
L 455.406385 109.162728 
L 455.913912 98.374061 
L 456.167675 103.768395 
L 456.421438 84.094942 
L 456.675201 104.085708 
L 456.928964 101.229885 
L 457.182728 131.37469 
L 457.436491 139.624848 
L 457.690254 131.37469 
L 457.944017 83.777629 
L 458.197781 120.268709 
L 458.451544 89.80659 
L 458.705307 92.3451 
L 458.95907 100.595257 
L 459.212834 139.624848 
L 459.466597 81.239119 
L 459.72036 78.383295 
L 459.974123 89.80659 
L 460.227887 95.200923 
L 460.48165 111.383924 
L 460.735413 98.056747 
L 460.989176 78.383295 
L 461.24294 84.094942 
L 461.496703 106.306905 
L 461.750466 150.730829 
L 462.004229 89.80659 
L 462.257993 86.633452 
L 462.511756 72.671647 
L 462.765519 129.153494 
L 463.019282 98.056747 
L 463.273046 116.778258 
L 463.526809 78.383295 
L 463.780572 81.239119 
L 464.034335 89.489276 
L 464.288099 197.693263 
L 464.541862 95.518237 
L 464.795625 89.489276 
L 465.049388 92.3451 
L 465.303152 153.269339 
L 465.556915 153.586653 
L 465.810678 78.383295 
L 466.064441 172.942791 
L 466.318205 112.335866 
L 466.571968 112.018552 
L 466.825731 133.9132 
L 467.079494 128.201553 
L 467.333258 81.239119 
L 467.587021 89.489276 
L 467.840784 111.701238 
L 468.348311 86.950766 
L 468.602074 92.662413 
L 468.855837 153.269339 
L 469.1096 106.624218 
L 469.363363 153.586653 
L 469.617127 92.027786 
L 469.87089 92.662413 
L 470.124653 98.056747 
L 470.378416 98.056747 
L 470.63218 86.950766 
L 471.139706 125.663043 
L 471.393469 97.739433 
L 471.647233 86.950766 
L 471.900996 156.442476 
L 472.154759 86.950766 
L 472.408522 95.200923 
L 472.662286 161.519496 
L 472.916049 97.739433 
L 473.169812 69.815824 
L 473.677339 128.518867 
L 473.931102 72.671647 
L 474.184865 89.489276 
L 474.438628 172.942791 
L 474.692392 86.633452 
L 474.946155 242.434502 
L 475.199918 89.489276 
L 475.453681 120.268709 
L 475.707445 84.094942 
L 476.214971 131.37469 
L 476.468734 103.451081 
L 476.722498 117.095572 
L 476.976261 86.633452 
L 477.230024 103.133767 
L 477.483787 109.162728 
L 477.737551 106.306905 
L 477.991314 109.797356 
L 478.245077 86.950766 
L 478.49884 95.518237 
L 478.752604 97.42212 
L 479.006367 84.094942 
L 479.26013 139.307534 
L 479.513893 86.950766 
L 479.767657 95.518237 
L 480.02142 86.950766 
L 480.275183 86.950766 
L 480.528946 106.306905 
L 480.78271 92.3451 
L 481.036473 133.9132 
L 481.290236 127.884239 
L 481.543999 136.769024 
L 481.797763 119.951396 
L 482.051526 128.518867 
L 482.305289 86.950766 
L 482.559052 81.239119 
L 483.066579 86.950766 
L 483.320342 97.739433 
L 483.574105 98.374061 
L 483.827868 84.094942 
L 484.081632 103.768395 
L 484.335395 98.374061 
L 484.589158 100.595257 
L 484.842921 92.662413 
L 485.096685 114.239748 
L 485.350448 78.383295 
L 485.604211 101.229885 
L 485.857974 89.80659 
L 486.111738 84.094942 
L 486.365501 112.018552 
L 486.619264 80.921805 
L 486.873027 75.210157 
L 487.126791 120.268709 
L 487.634317 98.056747 
L 487.88808 128.201553 
L 488.141844 95.200923 
L 488.395607 109.162728 
L 488.64937 105.672277 
L 488.903133 142.163358 
L 489.156897 86.950766 
L 489.41066 150.730829 
L 489.664423 150.730829 
L 489.918186 131.057377 
L 490.17195 78.383295 
L 490.425713 80.921805 
L 490.679476 100.912571 
L 490.933239 92.027786 
L 491.187003 147.875005 
L 491.440766 92.662413 
L 491.694529 100.277943 
L 491.948292 89.80659 
L 492.202056 103.451081 
L 492.455819 106.306905 
L 492.709582 114.557062 
L 492.963345 139.624848 
L 493.217109 72.671647 
L 493.470872 84.094942 
L 493.724635 131.37469 
L 493.978398 72.671647 
L 494.232162 133.9132 
L 494.485925 114.557062 
L 494.739688 166.91383 
L 494.993451 103.768395 
L 495.247215 75.527471 
L 495.500978 100.912571 
L 495.754741 103.768395 
L 496.008504 100.595257 
L 496.262267 120.586023 
L 496.516031 123.441847 
L 496.769794 92.3451 
L 497.023557 103.451081 
L 497.27732 133.595887 
L 497.531084 81.239119 
L 497.784847 92.662413 
L 498.03861 86.950766 
L 498.292373 129.153494 
L 498.546137 89.80659 
L 498.7999 106.624218 
L 499.053663 156.442476 
L 499.307426 100.595257 
L 499.56119 123.124533 
L 499.814953 122.807219 
L 500.068716 81.239119 
L 500.322479 80.921805 
L 500.830006 150.730829 
L 501.083769 100.912571 
L 501.337532 97.739433 
L 501.845059 125.663043 
L 502.098822 92.662413 
L 502.352585 120.268709 
L 502.606349 195.472067 
L 502.860112 103.451081 
L 503.113875 133.9132 
L 503.367638 105.989591 
L 503.875165 89.489276 
L 504.128928 95.200923 
L 504.382691 142.480672 
L 504.636455 139.307534 
L 504.890218 125.980357 
L 505.143981 84.094942 
L 505.397744 81.239119 
L 505.651508 100.912571 
L 505.905271 133.9132 
L 506.159034 84.094942 
L 506.412797 189.443106 
L 506.666561 119.951396 
L 506.920324 97.739433 
L 507.174087 109.162728 
L 507.42785 81.239119 
L 507.681614 103.451081 
L 507.935377 89.80659 
L 508.18914 92.3451 
L 508.442903 89.489276 
L 508.696667 92.662413 
L 508.95043 81.239119 
L 509.204193 86.950766 
L 509.457956 106.624218 
L 509.711719 97.739433 
L 509.965483 156.442476 
L 510.219246 161.519496 
L 510.473009 92.027786 
L 510.726772 98.374061 
L 510.980536 189.125792 
L 511.234299 100.912571 
L 511.488062 95.200923 
L 511.741825 98.374061 
L 511.995589 134.230514 
L 512.249352 83.777629 
L 512.503115 84.094942 
L 512.756878 200.231773 
L 513.264405 81.239119 
L 513.518168 89.80659 
L 514.025695 145.019182 
L 514.279458 139.307534 
L 514.533221 98.056747 
L 514.786984 83.777629 
L 515.040748 114.557062 
L 515.294511 104.085708 
L 515.548274 86.950766 
L 515.802037 119.951396 
L 516.055801 98.056747 
L 516.309564 142.480672 
L 516.563327 81.239119 
L 516.81709 186.587282 
L 517.070854 86.950766 
L 517.324617 95.518237 
L 517.57838 117.730199 
L 517.832143 81.239119 
L 518.085907 69.815824 
L 518.33967 98.056747 
L 518.593433 158.663673 
L 518.847196 97.739433 
L 519.10096 111.701238 
L 519.608486 84.094942 
L 519.862249 92.3451 
L 520.116013 133.9132 
L 520.369776 100.595257 
L 520.623539 89.80659 
L 520.877302 166.91383 
L 521.131066 100.912571 
L 521.384829 80.921805 
L 521.638592 137.086338 
L 521.892355 106.624218 
L 522.146119 89.80659 
L 522.399882 103.768395 
L 522.653645 103.451081 
L 522.907408 148.192319 
L 523.414935 89.80659 
L 523.668698 158.346359 
L 523.922461 148.192319 
L 524.176224 83.777629 
L 524.429988 125.663043 
L 524.937514 86.633452 
L 525.445041 92.662413 
L 525.698804 181.192949 
L 525.952567 95.518237 
L 526.20633 89.489276 
L 526.460094 100.912571 
L 526.713857 86.950766 
L 526.96762 98.374061 
L 527.221383 92.3451 
L 527.475147 92.3451 
L 527.72891 158.980986 
L 527.982673 83.777629 
L 528.4902 117.095572 
L 528.743963 137.086338 
L 528.997726 131.37469 
L 529.251489 92.3451 
L 529.505253 108.845414 
L 529.759016 86.950766 
L 530.266542 109.162728 
L 530.520306 81.239119 
L 530.774069 104.085708 
L 531.027832 98.374061 
L 531.281595 128.201553 
L 531.789122 92.662413 
L 532.042885 92.3451 
L 532.296648 95.518237 
L 532.550412 86.950766 
L 532.804175 89.80659 
L 533.057938 112.653179 
L 533.311701 95.518237 
L 533.819228 136.769024 
L 534.072991 81.239119 
L 534.326754 75.527471 
L 534.580518 114.557062 
L 534.834281 123.124533 
L 535.088044 89.80659 
L 535.341807 92.027786 
L 535.595571 114.874376 
L 536.103097 89.489276 
L 536.35686 103.451081 
L 536.610623 189.443106 
L 536.864387 81.239119 
L 537.11815 95.518237 
L 537.371913 100.912571 
L 537.625676 153.269339 
L 537.87944 81.239119 
L 538.133203 92.662413 
L 538.386966 89.489276 
L 538.894493 120.903337 
L 539.148256 156.75979 
L 539.402019 109.797356 
L 539.655782 86.950766 
L 539.909546 145.336495 
L 540.163309 100.277943 
L 540.417072 84.094942 
L 540.670835 84.094942 
L 540.924599 86.633452 
L 541.178362 80.921805 
L 541.432125 101.229885 
L 541.939652 200.231773 
L 542.193415 122.807219 
L 542.447178 145.336495 
L 542.700941 98.056747 
L 542.954705 81.239119 
L 543.208468 95.518237 
L 543.462231 195.472067 
L 543.715994 75.527471 
L 544.223521 109.480042 
L 544.477284 100.912571 
L 544.731047 78.383295 
L 544.984811 109.162728 
L 545.238574 109.480042 
L 545.492337 92.662413 
L 545.7461 92.3451 
L 545.999864 106.306905 
L 546.253627 139.624848 
L 546.761153 78.065981 
L 547.014917 117.412886 
L 547.776206 69.815824 
L 548.02997 98.056747 
L 548.283733 89.80659 
L 548.537496 122.807219 
L 548.791259 86.633452 
L 549.045023 95.200923 
L 549.298786 98.056747 
L 549.552549 108.845414 
L 549.806312 109.162728 
L 550.060075 112.335866 
L 550.313839 98.374061 
L 550.821365 203.722225 
L 551.075128 111.701238 
L 551.582655 81.239119 
L 551.836418 89.489276 
L 552.090181 128.201553 
L 552.343945 120.268709 
L 552.597708 75.527471 
L 552.851471 84.094942 
L 553.105234 150.730829 
L 553.358998 109.162728 
L 553.612761 95.518237 
L 553.866524 142.480672 
L 554.120287 89.489276 
L 554.374051 111.701238 
L 554.627814 92.662413 
L 554.881577 120.903337 
L 555.13534 78.383295 
L 555.389104 125.663043 
L 555.642867 86.633452 
L 555.89663 81.239119 
L 556.150393 183.731459 
L 556.404157 92.3451 
L 556.65792 84.094942 
L 556.911683 161.202183 
L 557.165446 75.527471 
L 557.672973 133.9132 
L 557.926736 120.268709 
L 558.180499 120.268709 
L 558.434263 100.912571 
L 558.688026 156.442476 
L 558.941789 103.451081 
L 559.449316 75.527471 
L 559.956842 114.874376 
L 560.210605 92.3451 
L 560.464369 95.200923 
L 560.971895 154.22128 
L 561.225658 89.489276 
L 561.479422 84.094942 
L 561.733185 131.057377 
L 562.240711 84.094942 
L 562.494475 118.047513 
L 563.002001 78.383295 
L 563.255764 114.557062 
L 563.509527 109.162728 
L 563.763291 95.200923 
L 564.017054 147.557692 
L 564.270817 75.527471 
L 564.52458 103.768395 
L 564.778344 115.191689 
L 565.032107 78.383295 
L 565.28587 81.239119 
L 565.539633 86.950766 
L 565.793397 86.950766 
L 566.04716 81.239119 
L 566.300923 120.268709 
L 566.554686 92.662413 
L 566.80845 89.80659 
L 567.062213 92.3451 
L 567.315976 131.37469 
L 567.569739 114.874376 
L 567.823503 78.383295 
L 568.077266 104.085708 
L 568.331029 109.162728 
L 568.584792 106.306905 
L 568.838556 136.769024 
L 569.092319 133.9132 
L 569.346082 86.950766 
L 569.599845 145.019182 
L 569.853609 84.094942 
L 570.107372 161.83681 
L 570.361135 100.912571 
L 570.614898 111.701238 
L 570.868662 72.671647 
L 571.122425 89.80659 
L 571.376188 161.519496 
L 571.883715 89.489276 
L 572.391241 117.095572 
L 572.645004 158.663673 
L 572.898768 98.056747 
L 573.152531 78.383295 
L 573.406294 136.769024 
L 573.660057 117.412886 
L 574.167584 106.306905 
L 574.421347 122.807219 
L 574.67511 98.374061 
L 574.928874 167.231144 
L 575.4364 81.239119 
L 575.943927 106.306905 
L 576.19769 81.239119 
L 576.451453 81.239119 
L 576.705216 106.624218 
L 576.958979 111.701238 
L 577.212743 78.383295 
L 577.466506 142.163358 
L 577.720269 81.239119 
L 577.974032 131.057377 
L 578.227796 109.480042 
L 578.481559 142.480672 
L 578.735322 92.3451 
L 578.989085 92.662413 
L 579.242849 86.633452 
L 579.496612 98.056747 
L 579.750375 81.239119 
L 580.004138 112.018552 
L 580.257902 98.374061 
L 580.511665 101.229885 
L 580.765428 78.383295 
L 581.019191 75.527471 
L 581.272955 117.412886 
L 581.526718 100.595257 
L 582.034244 139.624848 
L 582.288008 69.815824 
L 582.541771 142.480672 
L 582.795534 84.094942 
L 583.049297 94.88361 
L 583.303061 120.586023 
L 583.556824 203.722225 
L 584.318114 86.950766 
L 584.571877 189.125792 
L 585.079403 95.518237 
L 585.333167 133.9132 
L 585.58693 100.912571 
L 586.094456 119.951396 
L 586.34822 81.239119 
L 586.601983 147.557692 
L 586.855746 75.527471 
L 587.109509 119.951396 
L 587.363273 80.921805 
L 587.870799 103.451081 
L 588.124562 100.595257 
L 588.378326 95.200923 
L 588.632089 78.383295 
L 588.885852 92.3451 
L 589.139615 145.336495 
L 589.393379 92.662413 
L 589.647142 83.777629 
L 589.900905 167.865771 
L 590.154668 81.239119 
L 590.408431 136.769024 
L 590.915958 92.3451 
L 591.169721 139.307534 
L 591.677248 72.671647 
L 591.931011 86.950766 
L 592.692301 104.085708 
L 592.946064 103.768395 
L 593.199827 89.489276 
L 593.45359 139.307534 
L 593.961117 119.951396 
L 594.21488 81.239119 
L 594.468643 89.80659 
L 594.722407 89.171962 
L 594.97617 101.229885 
L 595.229933 92.662413 
L 595.483696 103.768395 
L 595.73746 86.950766 
L 595.991223 95.200923 
L 596.244986 136.769024 
L 596.498749 81.239119 
L 596.752513 86.950766 
L 597.006276 100.912571 
L 597.260039 131.057377 
L 597.513802 119.951396 
L 597.767566 103.133767 
L 598.021329 103.768395 
L 598.275092 106.306905 
L 598.528855 100.595257 
L 598.782619 112.018552 
L 599.036382 106.624218 
L 599.290145 109.480042 
L 599.543908 95.518237 
L 599.797672 97.739433 
L 600.051435 112.335866 
L 600.558961 89.80659 
L 600.812725 164.37532 
L 601.066488 83.777629 
L 601.320251 75.210157 
L 601.574014 86.950766 
L 601.827778 111.701238 
L 602.081541 72.671647 
L 602.335304 81.239119 
L 602.589067 81.239119 
L 602.842831 119.951396 
L 603.096594 120.268709 
L 603.350357 92.3451 
L 603.60412 106.624218 
L 603.857883 89.489276 
L 604.111647 117.095572 
L 604.619173 89.171962 
L 604.872936 92.3451 
L 605.1267 147.557692 
L 605.380463 89.171962 
L 605.634226 175.481301 
L 605.887989 123.124533 
L 606.141753 117.730199 
L 606.395516 81.239119 
L 606.649279 108.845414 
L 606.903042 98.374061 
L 607.156806 151.048143 
L 607.410569 101.229885 
L 607.918095 75.527471 
L 608.171859 125.663043 
L 608.425622 81.239119 
L 608.679385 137.086338 
L 608.933148 89.80659 
L 609.186912 165.009948 
L 609.440675 128.201553 
L 609.694438 125.663043 
L 609.948201 161.83681 
L 610.201965 89.489276 
L 610.455728 111.701238 
L 610.709491 120.586023 
L 610.963254 89.489276 
L 611.217018 95.200923 
L 611.470781 84.094942 
L 611.724544 120.268709 
L 611.978307 95.200923 
L 612.232071 97.739433 
L 612.485834 80.921805 
L 612.739597 86.950766 
L 612.99336 108.845414 
L 613.247124 109.480042 
L 613.500887 92.662413 
L 613.75465 111.383924 
L 614.008413 78.383295 
L 614.262177 92.3451 
L 614.51594 200.549087 
L 614.769703 100.912571 
L 615.023466 78.383295 
L 615.27723 84.094942 
L 615.530993 92.662413 
L 615.784756 109.797356 
L 616.038519 92.3451 
L 616.546046 211.655068 
L 616.799809 98.056747 
L 617.053572 139.624848 
L 617.307335 95.518237 
L 617.561099 128.518867 
L 617.814862 94.88361 
L 618.068625 137.086338 
L 618.322388 78.065981 
L 618.576152 80.921805 
L 618.829915 105.989591 
L 619.083678 144.701868 
L 619.337441 106.306905 
L 619.591205 92.662413 
L 619.844968 148.509633 
L 620.098731 106.306905 
L 620.352494 86.633452 
L 620.606258 108.845414 
L 620.860021 170.404281 
L 621.113784 115.191689 
L 621.367547 98.056747 
L 621.621311 164.692634 
L 622.128837 78.383295 
L 622.3826 84.094942 
L 622.636364 105.989591 
L 622.636364 105.989591 
" clip-path="url(#pfbbe4c38bb)" style="fill: none; stroke: #1f77b4; stroke-width: 1.5; stroke-linecap: square"/>
   </g>
   <g id="patch_3">
    <path d="M 90 384.48 
L 90 51.84 
" style="fill: none; stroke: #000000; stroke-width: 0.8; stroke-linejoin: miter; stroke-linecap: square"/>
   </g>
   <g id="patch_4">
    <path d="M 648 384.48 
L 648 51.84 
" style="fill: none; stroke: #000000; stroke-width: 0.8; stroke-linejoin: miter; stroke-linecap: square"/>
   </g>
   <g id="patch_5">
    <path d="M 90 384.48 
L 648 384.48 
" style="fill: none; stroke: #000000; stroke-width: 0.8; stroke-linejoin: miter; stroke-linecap: square"/>
   </g>
   <g id="patch_6">
    <path d="M 90 51.84 
L 648 51.84 
" style="fill: none; stroke: #000000; stroke-width: 0.8; stroke-linejoin: miter; stroke-linecap: square"/>
   </g>
   <g id="text_21">
    <!-- Average Reward vs Steps -->
    <g transform="translate(267.44 45.84) scale(0.16 -0.16)">
     <use xlink:href="#DejaVuSans-41"/>
     <use xlink:href="#DejaVuSans-76" x="62.533203"/>
     <use xlink:href="#DejaVuSans-65" x="121.712891"/>
     <use xlink:href="#DejaVuSans-72" x="183.236328"/>
     <use xlink:href="#DejaVuSans-61" x="224.349609"/>
     <use xlink:href="#DejaVuSans-67" x="285.628906"/>
     <use xlink:href="#DejaVuSans-65" x="349.105469"/>
     <use xlink:href="#DejaVuSans-20" x="410.628906"/>
     <use xlink:href="#DejaVuSans-52" x="442.416016"/>
     <use xlink:href="#DejaVuSans-65" x="507.398438"/>
     <use xlink:href="#DejaVuSans-77" x="568.921875"/>
     <use xlink:href="#DejaVuSans-61" x="650.708984"/>
     <use xlink:href="#DejaVuSans-72" x="711.988281"/>
     <use xlink:href="#DejaVuSans-64" x="751.351562"/>
     <use xlink:href="#DejaVuSans-20" x="814.828125"/>
     <use xlink:href="#DejaVuSans-76" x="846.615234"/>
     <use xlink:href="#DejaVuSans-73" x="905.794922"/>
     <use xlink:href="#DejaVuSans-20" x="957.894531"/>
     <use xlink:href="#DejaVuSans-53" x="989.681641"/>
     <use xlink:href="#DejaVuSans-74" x="1053.158203"/>
     <use xlink:href="#DejaVuSans-65" x="1092.367188"/>
     <use xlink:href="#DejaVuSans-70" x="1153.890625"/>
     <use xlink:href="#DejaVuSans-73" x="1217.367188"/>
    </g>
   </g>
   <g id="legend_1">
    <g id="patch_7">
     <path d="M 521.565 378.48 
L 639.6 378.48 
Q 642 378.48 642 376.08 
L 642 359.66625 
Q 642 357.26625 639.6 357.26625 
L 521.565 357.26625 
Q 519.165 357.26625 519.165 359.66625 
L 519.165 376.08 
Q 519.165 378.48 521.565 378.48 
z
" style="fill: #ffffff; opacity: 0.8; stroke: #cccccc; stroke-linejoin: miter"/>
    </g>
    <g id="line2d_20">
     <path d="M 523.965 366.984375 
L 535.965 366.984375 
L 547.965 366.984375 
" style="fill: none; stroke: #1f77b4; stroke-width: 1.5; stroke-linecap: square"/>
    </g>
    <g id="text_22">
     <!-- epsilon = 0.1 -->
     <g transform="translate(557.565 371.184375) scale(0.12 -0.12)">
      <defs>
       <path id="DejaVuSans-69" d="M 603 3500 
L 1178 3500 
L 1178 0 
L 603 0 
L 603 3500 
z
M 603 4863 
L 1178 4863 
L 1178 4134 
L 603 4134 
L 603 4863 
z
" transform="scale(0.015625)"/>
       <path id="DejaVuSans-6c" d="M 603 4863 
L 1178 4863 
L 1178 0 
L 603 0 
L 603 4863 
z
" transform="scale(0.015625)"/>
       <path id="DejaVuSans-6f" d="M 1959 3097 
Q 1497 3097 1228 2736 
Q 959 2375 959 1747 
Q 959 1119 1226 758 
Q 1494 397 1959 397 
Q 2419 397 2687 759 
Q 2956 1122 2956 1747 
Q 2956 2369 2687 2733 
Q 2419 3097 1959 3097 
z
M 1959 3584 
Q 2709 3584 3137 3096 
Q 3566 2609 3566 1747 
Q 3566 888 3137 398 
Q 2709 -91 1959 -91 
Q 1206 -91 779 398 
Q 353 888 353 1747 
Q 353 2609 779 3096 
Q 1206 3584 1959 3584 
z
" transform="scale(0.015625)"/>
       <path id="DejaVuSans-6e" d="M 3513 2113 
L 3513 0 
L 2938 0 
L 2938 2094 
Q 2938 2591 2744 2837 
Q 2550 3084 2163 3084 
Q 1697 3084 1428 2787 
Q 1159 2491 1159 1978 
L 1159 0 
L 581 0 
L 581 3500 
L 1159 3500 
L 1159 2956 
Q 1366 3272 1645 3428 
Q 1925 3584 2291 3584 
Q 2894 3584 3203 3211 
Q 3513 2838 3513 2113 
z
" transform="scale(0.015625)"/>
       <path id="DejaVuSans-3d" d="M 678 2906 
L 4684 2906 
L 4684 2381 
L 678 2381 
L 678 2906 
z
M 678 1631 
L 4684 1631 
L 4684 1100 
L 678 1100 
L 678 1631 
z
" transform="scale(0.015625)"/>
      </defs>
      <use xlink:href="#DejaVuSans-65"/>
      <use xlink:href="#DejaVuSans-70" x="61.523438"/>
      <use xlink:href="#DejaVuSans-73" x="125"/>
      <use xlink:href="#DejaVuSans-69" x="177.099609"/>
      <use xlink:href="#DejaVuSans-6c" x="204.882812"/>
      <use xlink:href="#DejaVuSans-6f" x="232.666016"/>
      <use xlink:href="#DejaVuSans-6e" x="293.847656"/>
      <use xlink:href="#DejaVuSans-20" x="357.226562"/>
      <use xlink:href="#DejaVuSans-3d" x="389.013672"/>
      <use xlink:href="#DejaVuSans-20" x="472.802734"/>
      <use xlink:href="#DejaVuSans-30" x="504.589844"/>
      <use xlink:href="#DejaVuSans-2e" x="568.212891"/>
      <use xlink:href="#DejaVuSans-31" x="600"/>
     </g>
    </g>
   </g>
  </g>
 </g>
 <defs>
  <clipPath id="pfbbe4c38bb">
   <rect x="90" y="51.84" width="558" height="332.64"/>
  </clipPath>
 </defs>
</svg>
