<?xml version="1.0" encoding="utf-8" standalone="no"?>
<!DOCTYPE svg PUBLIC "-//W3C//DTD SVG 1.1//EN"
  "http://www.w3.org/Graphics/SVG/1.1/DTD/svg11.dtd">
<svg xmlns:xlink="http://www.w3.org/1999/xlink" width="720pt" height="432pt" viewBox="0 0 720 432" xmlns="http://www.w3.org/2000/svg" version="1.1">
 <metadata>
  <rdf:RDF xmlns:dc="http://purl.org/dc/elements/1.1/" xmlns:cc="http://creativecommons.org/ns#" xmlns:rdf="http://www.w3.org/1999/02/22-rdf-syntax-ns#">
   <cc:Work>
    <dc:type rdf:resource="http://purl.org/dc/dcmitype/StillImage"/>
    <dc:date>2024-05-16T15:13:09.145552</dc:date>
    <dc:format>image/svg+xml</dc:format>
    <dc:creator>
     <cc:Agent>
      <dc:title>Matplotlib v3.8.0, https://matplotlib.org/</dc:title>
     </cc:Agent>
    </dc:creator>
   </cc:Work>
  </rdf:RDF>
 </metadata>
 <defs>
  <style type="text/css">*{stroke-linejoin: round; stroke-linecap: butt}</style>
 </defs>
 <g id="figure_1">
  <g id="patch_1">
   <path d="M 0 432 
L 720 432 
L 720 0 
L 0 0 
z
" style="fill: #ffffff"/>
  </g>
  <g id="axes_1">
   <g id="patch_2">
    <path d="M 90 384.48 
L 648 384.48 
L 648 51.84 
L 90 51.84 
z
" style="fill: #ffffff"/>
   </g>
   <g id="matplotlib.axis_1">
    <g id="xtick_1">
     <g id="line2d_1">
      <defs>
       <path id="mdb32d22897" d="M 0 0 
L 0 3.5 
" style="stroke: #000000; stroke-width: 0.8"/>
      </defs>
      <g>
       <use xlink:href="#mdb32d22897" x="115.363636" y="384.48" style="stroke: #000000; stroke-width: 0.8"/>
      </g>
     </g>
     <g id="text_1">
      <!-- 0 -->
      <g transform="translate(111.546136 400.598125) scale(0.12 -0.12)">
       <defs>
        <path id="DejaVuSans-30" d="M 2034 4250 
Q 1547 4250 1301 3770 
Q 1056 3291 1056 2328 
Q 1056 1369 1301 889 
Q 1547 409 2034 409 
Q 2525 409 2770 889 
Q 3016 1369 3016 2328 
Q 3016 3291 2770 3770 
Q 2525 4250 2034 4250 
z
M 2034 4750 
Q 2819 4750 3233 4129 
Q 3647 3509 3647 2328 
Q 3647 1150 3233 529 
Q 2819 -91 2034 -91 
Q 1250 -91 836 529 
Q 422 1150 422 2328 
Q 422 3509 836 4129 
Q 1250 4750 2034 4750 
z
" transform="scale(0.015625)"/>
       </defs>
       <use xlink:href="#DejaVuSans-30"/>
      </g>
     </g>
    </g>
    <g id="xtick_2">
     <g id="line2d_2">
      <g>
       <use xlink:href="#mdb32d22897" x="216.919738" y="384.48" style="stroke: #000000; stroke-width: 0.8"/>
      </g>
     </g>
     <g id="text_2">
      <!-- 200 -->
      <g transform="translate(205.467238 400.598125) scale(0.12 -0.12)">
       <defs>
        <path id="DejaVuSans-32" d="M 1228 531 
L 3431 531 
L 3431 0 
L 469 0 
L 469 531 
Q 828 903 1448 1529 
Q 2069 2156 2228 2338 
Q 2531 2678 2651 2914 
Q 2772 3150 2772 3378 
Q 2772 3750 2511 3984 
Q 2250 4219 1831 4219 
Q 1534 4219 1204 4116 
Q 875 4013 500 3803 
L 500 4441 
Q 881 4594 1212 4672 
Q 1544 4750 1819 4750 
Q 2544 4750 2975 4387 
Q 3406 4025 3406 3419 
Q 3406 3131 3298 2873 
Q 3191 2616 2906 2266 
Q 2828 2175 2409 1742 
Q 1991 1309 1228 531 
z
" transform="scale(0.015625)"/>
       </defs>
       <use xlink:href="#DejaVuSans-32"/>
       <use xlink:href="#DejaVuSans-30" x="63.623047"/>
       <use xlink:href="#DejaVuSans-30" x="127.246094"/>
      </g>
     </g>
    </g>
    <g id="xtick_3">
     <g id="line2d_3">
      <g>
       <use xlink:href="#mdb32d22897" x="318.475839" y="384.48" style="stroke: #000000; stroke-width: 0.8"/>
      </g>
     </g>
     <g id="text_3">
      <!-- 400 -->
      <g transform="translate(307.023339 400.598125) scale(0.12 -0.12)">
       <defs>
        <path id="DejaVuSans-34" d="M 2419 4116 
L 825 1625 
L 2419 1625 
L 2419 4116 
z
M 2253 4666 
L 3047 4666 
L 3047 1625 
L 3713 1625 
L 3713 1100 
L 3047 1100 
L 3047 0 
L 2419 0 
L 2419 1100 
L 313 1100 
L 313 1709 
L 2253 4666 
z
" transform="scale(0.015625)"/>
       </defs>
       <use xlink:href="#DejaVuSans-34"/>
       <use xlink:href="#DejaVuSans-30" x="63.623047"/>
       <use xlink:href="#DejaVuSans-30" x="127.246094"/>
      </g>
     </g>
    </g>
    <g id="xtick_4">
     <g id="line2d_4">
      <g>
       <use xlink:href="#mdb32d22897" x="420.031941" y="384.48" style="stroke: #000000; stroke-width: 0.8"/>
      </g>
     </g>
     <g id="text_4">
      <!-- 600 -->
      <g transform="translate(408.579441 400.598125) scale(0.12 -0.12)">
       <defs>
        <path id="DejaVuSans-36" d="M 2113 2584 
Q 1688 2584 1439 2293 
Q 1191 2003 1191 1497 
Q 1191 994 1439 701 
Q 1688 409 2113 409 
Q 2538 409 2786 701 
Q 3034 994 3034 1497 
Q 3034 2003 2786 2293 
Q 2538 2584 2113 2584 
z
M 3366 4563 
L 3366 3988 
Q 3128 4100 2886 4159 
Q 2644 4219 2406 4219 
Q 1781 4219 1451 3797 
Q 1122 3375 1075 2522 
Q 1259 2794 1537 2939 
Q 1816 3084 2150 3084 
Q 2853 3084 3261 2657 
Q 3669 2231 3669 1497 
Q 3669 778 3244 343 
Q 2819 -91 2113 -91 
Q 1303 -91 875 529 
Q 447 1150 447 2328 
Q 447 3434 972 4092 
Q 1497 4750 2381 4750 
Q 2619 4750 2861 4703 
Q 3103 4656 3366 4563 
z
" transform="scale(0.015625)"/>
       </defs>
       <use xlink:href="#DejaVuSans-36"/>
       <use xlink:href="#DejaVuSans-30" x="63.623047"/>
       <use xlink:href="#DejaVuSans-30" x="127.246094"/>
      </g>
     </g>
    </g>
    <g id="xtick_5">
     <g id="line2d_5">
      <g>
       <use xlink:href="#mdb32d22897" x="521.588043" y="384.48" style="stroke: #000000; stroke-width: 0.8"/>
      </g>
     </g>
     <g id="text_5">
      <!-- 800 -->
      <g transform="translate(510.135543 400.598125) scale(0.12 -0.12)">
       <defs>
        <path id="DejaVuSans-38" d="M 2034 2216 
Q 1584 2216 1326 1975 
Q 1069 1734 1069 1313 
Q 1069 891 1326 650 
Q 1584 409 2034 409 
Q 2484 409 2743 651 
Q 3003 894 3003 1313 
Q 3003 1734 2745 1975 
Q 2488 2216 2034 2216 
z
M 1403 2484 
Q 997 2584 770 2862 
Q 544 3141 544 3541 
Q 544 4100 942 4425 
Q 1341 4750 2034 4750 
Q 2731 4750 3128 4425 
Q 3525 4100 3525 3541 
Q 3525 3141 3298 2862 
Q 3072 2584 2669 2484 
Q 3125 2378 3379 2068 
Q 3634 1759 3634 1313 
Q 3634 634 3220 271 
Q 2806 -91 2034 -91 
Q 1263 -91 848 271 
Q 434 634 434 1313 
Q 434 1759 690 2068 
Q 947 2378 1403 2484 
z
M 1172 3481 
Q 1172 3119 1398 2916 
Q 1625 2713 2034 2713 
Q 2441 2713 2670 2916 
Q 2900 3119 2900 3481 
Q 2900 3844 2670 4047 
Q 2441 4250 2034 4250 
Q 1625 4250 1398 4047 
Q 1172 3844 1172 3481 
z
" transform="scale(0.015625)"/>
       </defs>
       <use xlink:href="#DejaVuSans-38"/>
       <use xlink:href="#DejaVuSans-30" x="63.623047"/>
       <use xlink:href="#DejaVuSans-30" x="127.246094"/>
      </g>
     </g>
    </g>
    <g id="xtick_6">
     <g id="line2d_6">
      <g>
       <use xlink:href="#mdb32d22897" x="623.144144" y="384.48" style="stroke: #000000; stroke-width: 0.8"/>
      </g>
     </g>
     <g id="text_6">
      <!-- 1000 -->
      <g transform="translate(607.874144 400.598125) scale(0.12 -0.12)">
       <defs>
        <path id="DejaVuSans-31" d="M 794 531 
L 1825 531 
L 1825 4091 
L 703 3866 
L 703 4441 
L 1819 4666 
L 2450 4666 
L 2450 531 
L 3481 531 
L 3481 0 
L 794 0 
L 794 531 
z
" transform="scale(0.015625)"/>
       </defs>
       <use xlink:href="#DejaVuSans-31"/>
       <use xlink:href="#DejaVuSans-30" x="63.623047"/>
       <use xlink:href="#DejaVuSans-30" x="127.246094"/>
       <use xlink:href="#DejaVuSans-30" x="190.869141"/>
      </g>
     </g>
    </g>
    <g id="text_7">
     <!-- Steps -->
     <g transform="translate(349.414219 417.731562) scale(0.14 -0.14)">
      <defs>
       <path id="DejaVuSans-53" d="M 3425 4513 
L 3425 3897 
Q 3066 4069 2747 4153 
Q 2428 4238 2131 4238 
Q 1616 4238 1336 4038 
Q 1056 3838 1056 3469 
Q 1056 3159 1242 3001 
Q 1428 2844 1947 2747 
L 2328 2669 
Q 3034 2534 3370 2195 
Q 3706 1856 3706 1288 
Q 3706 609 3251 259 
Q 2797 -91 1919 -91 
Q 1588 -91 1214 -16 
Q 841 59 441 206 
L 441 856 
Q 825 641 1194 531 
Q 1563 422 1919 422 
Q 2459 422 2753 634 
Q 3047 847 3047 1241 
Q 3047 1584 2836 1778 
Q 2625 1972 2144 2069 
L 1759 2144 
Q 1053 2284 737 2584 
Q 422 2884 422 3419 
Q 422 4038 858 4394 
Q 1294 4750 2059 4750 
Q 2388 4750 2728 4690 
Q 3069 4631 3425 4513 
z
" transform="scale(0.015625)"/>
       <path id="DejaVuSans-74" d="M 1172 4494 
L 1172 3500 
L 2356 3500 
L 2356 3053 
L 1172 3053 
L 1172 1153 
Q 1172 725 1289 603 
Q 1406 481 1766 481 
L 2356 481 
L 2356 0 
L 1766 0 
Q 1100 0 847 248 
Q 594 497 594 1153 
L 594 3053 
L 172 3053 
L 172 3500 
L 594 3500 
L 594 4494 
L 1172 4494 
z
" transform="scale(0.015625)"/>
       <path id="DejaVuSans-65" d="M 3597 1894 
L 3597 1613 
L 953 1613 
Q 991 1019 1311 708 
Q 1631 397 2203 397 
Q 2534 397 2845 478 
Q 3156 559 3463 722 
L 3463 178 
Q 3153 47 2828 -22 
Q 2503 -91 2169 -91 
Q 1331 -91 842 396 
Q 353 884 353 1716 
Q 353 2575 817 3079 
Q 1281 3584 2069 3584 
Q 2775 3584 3186 3129 
Q 3597 2675 3597 1894 
z
M 3022 2063 
Q 3016 2534 2758 2815 
Q 2500 3097 2075 3097 
Q 1594 3097 1305 2825 
Q 1016 2553 972 2059 
L 3022 2063 
z
" transform="scale(0.015625)"/>
       <path id="DejaVuSans-70" d="M 1159 525 
L 1159 -1331 
L 581 -1331 
L 581 3500 
L 1159 3500 
L 1159 2969 
Q 1341 3281 1617 3432 
Q 1894 3584 2278 3584 
Q 2916 3584 3314 3078 
Q 3713 2572 3713 1747 
Q 3713 922 3314 415 
Q 2916 -91 2278 -91 
Q 1894 -91 1617 61 
Q 1341 213 1159 525 
z
M 3116 1747 
Q 3116 2381 2855 2742 
Q 2594 3103 2138 3103 
Q 1681 3103 1420 2742 
Q 1159 2381 1159 1747 
Q 1159 1113 1420 752 
Q 1681 391 2138 391 
Q 2594 391 2855 752 
Q 3116 1113 3116 1747 
z
" transform="scale(0.015625)"/>
       <path id="DejaVuSans-73" d="M 2834 3397 
L 2834 2853 
Q 2591 2978 2328 3040 
Q 2066 3103 1784 3103 
Q 1356 3103 1142 2972 
Q 928 2841 928 2578 
Q 928 2378 1081 2264 
Q 1234 2150 1697 2047 
L 1894 2003 
Q 2506 1872 2764 1633 
Q 3022 1394 3022 966 
Q 3022 478 2636 193 
Q 2250 -91 1575 -91 
Q 1294 -91 989 -36 
Q 684 19 347 128 
L 347 722 
Q 666 556 975 473 
Q 1284 391 1588 391 
Q 1994 391 2212 530 
Q 2431 669 2431 922 
Q 2431 1156 2273 1281 
Q 2116 1406 1581 1522 
L 1381 1569 
Q 847 1681 609 1914 
Q 372 2147 372 2553 
Q 372 3047 722 3315 
Q 1072 3584 1716 3584 
Q 2034 3584 2315 3537 
Q 2597 3491 2834 3397 
z
" transform="scale(0.015625)"/>
      </defs>
      <use xlink:href="#DejaVuSans-53"/>
      <use xlink:href="#DejaVuSans-74" x="63.476562"/>
      <use xlink:href="#DejaVuSans-65" x="102.685547"/>
      <use xlink:href="#DejaVuSans-70" x="164.208984"/>
      <use xlink:href="#DejaVuSans-73" x="227.685547"/>
     </g>
    </g>
   </g>
   <g id="matplotlib.axis_2">
    <g id="ytick_1">
     <g id="line2d_7">
      <defs>
       <path id="m904cd415fd" d="M 0 0 
L -3.5 0 
" style="stroke: #000000; stroke-width: 0.8"/>
      </defs>
      <g>
       <use xlink:href="#m904cd415fd" x="90" y="364.903332" style="stroke: #000000; stroke-width: 0.8"/>
      </g>
     </g>
     <g id="text_8">
      <!-- 0.0 -->
      <g transform="translate(63.91625 369.462394) scale(0.12 -0.12)">
       <defs>
        <path id="DejaVuSans-2e" d="M 684 794 
L 1344 794 
L 1344 0 
L 684 0 
L 684 794 
z
" transform="scale(0.015625)"/>
       </defs>
       <use xlink:href="#DejaVuSans-30"/>
       <use xlink:href="#DejaVuSans-2e" x="63.623047"/>
       <use xlink:href="#DejaVuSans-30" x="95.410156"/>
      </g>
     </g>
    </g>
    <g id="ytick_2">
     <g id="line2d_8">
      <g>
       <use xlink:href="#m904cd415fd" x="90" y="323.469409" style="stroke: #000000; stroke-width: 0.8"/>
      </g>
     </g>
     <g id="text_9">
      <!-- 0.2 -->
      <g transform="translate(63.91625 328.028472) scale(0.12 -0.12)">
       <use xlink:href="#DejaVuSans-30"/>
       <use xlink:href="#DejaVuSans-2e" x="63.623047"/>
       <use xlink:href="#DejaVuSans-32" x="95.410156"/>
      </g>
     </g>
    </g>
    <g id="ytick_3">
     <g id="line2d_9">
      <g>
       <use xlink:href="#m904cd415fd" x="90" y="282.035487" style="stroke: #000000; stroke-width: 0.8"/>
      </g>
     </g>
     <g id="text_10">
      <!-- 0.4 -->
      <g transform="translate(63.91625 286.594549) scale(0.12 -0.12)">
       <use xlink:href="#DejaVuSans-30"/>
       <use xlink:href="#DejaVuSans-2e" x="63.623047"/>
       <use xlink:href="#DejaVuSans-34" x="95.410156"/>
      </g>
     </g>
    </g>
    <g id="ytick_4">
     <g id="line2d_10">
      <g>
       <use xlink:href="#m904cd415fd" x="90" y="240.601564" style="stroke: #000000; stroke-width: 0.8"/>
      </g>
     </g>
     <g id="text_11">
      <!-- 0.6 -->
      <g transform="translate(63.91625 245.160627) scale(0.12 -0.12)">
       <use xlink:href="#DejaVuSans-30"/>
       <use xlink:href="#DejaVuSans-2e" x="63.623047"/>
       <use xlink:href="#DejaVuSans-36" x="95.410156"/>
      </g>
     </g>
    </g>
    <g id="ytick_5">
     <g id="line2d_11">
      <g>
       <use xlink:href="#m904cd415fd" x="90" y="199.167642" style="stroke: #000000; stroke-width: 0.8"/>
      </g>
     </g>
     <g id="text_12">
      <!-- 0.8 -->
      <g transform="translate(63.91625 203.726704) scale(0.12 -0.12)">
       <use xlink:href="#DejaVuSans-30"/>
       <use xlink:href="#DejaVuSans-2e" x="63.623047"/>
       <use xlink:href="#DejaVuSans-38" x="95.410156"/>
      </g>
     </g>
    </g>
    <g id="ytick_6">
     <g id="line2d_12">
      <g>
       <use xlink:href="#m904cd415fd" x="90" y="157.733719" style="stroke: #000000; stroke-width: 0.8"/>
      </g>
     </g>
     <g id="text_13">
      <!-- 1.0 -->
      <g transform="translate(63.91625 162.292781) scale(0.12 -0.12)">
       <use xlink:href="#DejaVuSans-31"/>
       <use xlink:href="#DejaVuSans-2e" x="63.623047"/>
       <use xlink:href="#DejaVuSans-30" x="95.410156"/>
      </g>
     </g>
    </g>
    <g id="ytick_7">
     <g id="line2d_13">
      <g>
       <use xlink:href="#m904cd415fd" x="90" y="116.299796" style="stroke: #000000; stroke-width: 0.8"/>
      </g>
     </g>
     <g id="text_14">
      <!-- 1.2 -->
      <g transform="translate(63.91625 120.858859) scale(0.12 -0.12)">
       <use xlink:href="#DejaVuSans-31"/>
       <use xlink:href="#DejaVuSans-2e" x="63.623047"/>
       <use xlink:href="#DejaVuSans-32" x="95.410156"/>
      </g>
     </g>
    </g>
    <g id="ytick_8">
     <g id="line2d_14">
      <g>
       <use xlink:href="#m904cd415fd" x="90" y="74.865874" style="stroke: #000000; stroke-width: 0.8"/>
      </g>
     </g>
     <g id="text_15">
      <!-- 1.4 -->
      <g transform="translate(63.91625 79.424936) scale(0.12 -0.12)">
       <use xlink:href="#DejaVuSans-31"/>
       <use xlink:href="#DejaVuSans-2e" x="63.623047"/>
       <use xlink:href="#DejaVuSans-34" x="95.410156"/>
      </g>
     </g>
    </g>
    <g id="text_16">
     <!-- Average Reward -->
     <g transform="translate(57.004688 275.200156) rotate(-90) scale(0.14 -0.14)">
      <defs>
       <path id="DejaVuSans-41" d="M 2188 4044 
L 1331 1722 
L 3047 1722 
L 2188 4044 
z
M 1831 4666 
L 2547 4666 
L 4325 0 
L 3669 0 
L 3244 1197 
L 1141 1197 
L 716 0 
L 50 0 
L 1831 4666 
z
" transform="scale(0.015625)"/>
       <path id="DejaVuSans-76" d="M 191 3500 
L 800 3500 
L 1894 563 
L 2988 3500 
L 3597 3500 
L 2284 0 
L 1503 0 
L 191 3500 
z
" transform="scale(0.015625)"/>
       <path id="DejaVuSans-72" d="M 2631 2963 
Q 2534 3019 2420 3045 
Q 2306 3072 2169 3072 
Q 1681 3072 1420 2755 
Q 1159 2438 1159 1844 
L 1159 0 
L 581 0 
L 581 3500 
L 1159 3500 
L 1159 2956 
Q 1341 3275 1631 3429 
Q 1922 3584 2338 3584 
Q 2397 3584 2469 3576 
Q 2541 3569 2628 3553 
L 2631 2963 
z
" transform="scale(0.015625)"/>
       <path id="DejaVuSans-61" d="M 2194 1759 
Q 1497 1759 1228 1600 
Q 959 1441 959 1056 
Q 959 750 1161 570 
Q 1363 391 1709 391 
Q 2188 391 2477 730 
Q 2766 1069 2766 1631 
L 2766 1759 
L 2194 1759 
z
M 3341 1997 
L 3341 0 
L 2766 0 
L 2766 531 
Q 2569 213 2275 61 
Q 1981 -91 1556 -91 
Q 1019 -91 701 211 
Q 384 513 384 1019 
Q 384 1609 779 1909 
Q 1175 2209 1959 2209 
L 2766 2209 
L 2766 2266 
Q 2766 2663 2505 2880 
Q 2244 3097 1772 3097 
Q 1472 3097 1187 3025 
Q 903 2953 641 2809 
L 641 3341 
Q 956 3463 1253 3523 
Q 1550 3584 1831 3584 
Q 2591 3584 2966 3190 
Q 3341 2797 3341 1997 
z
" transform="scale(0.015625)"/>
       <path id="DejaVuSans-67" d="M 2906 1791 
Q 2906 2416 2648 2759 
Q 2391 3103 1925 3103 
Q 1463 3103 1205 2759 
Q 947 2416 947 1791 
Q 947 1169 1205 825 
Q 1463 481 1925 481 
Q 2391 481 2648 825 
Q 2906 1169 2906 1791 
z
M 3481 434 
Q 3481 -459 3084 -895 
Q 2688 -1331 1869 -1331 
Q 1566 -1331 1297 -1286 
Q 1028 -1241 775 -1147 
L 775 -588 
Q 1028 -725 1275 -790 
Q 1522 -856 1778 -856 
Q 2344 -856 2625 -561 
Q 2906 -266 2906 331 
L 2906 616 
Q 2728 306 2450 153 
Q 2172 0 1784 0 
Q 1141 0 747 490 
Q 353 981 353 1791 
Q 353 2603 747 3093 
Q 1141 3584 1784 3584 
Q 2172 3584 2450 3431 
Q 2728 3278 2906 2969 
L 2906 3500 
L 3481 3500 
L 3481 434 
z
" transform="scale(0.015625)"/>
       <path id="DejaVuSans-20" transform="scale(0.015625)"/>
       <path id="DejaVuSans-52" d="M 2841 2188 
Q 3044 2119 3236 1894 
Q 3428 1669 3622 1275 
L 4263 0 
L 3584 0 
L 2988 1197 
Q 2756 1666 2539 1819 
Q 2322 1972 1947 1972 
L 1259 1972 
L 1259 0 
L 628 0 
L 628 4666 
L 2053 4666 
Q 2853 4666 3247 4331 
Q 3641 3997 3641 3322 
Q 3641 2881 3436 2590 
Q 3231 2300 2841 2188 
z
M 1259 4147 
L 1259 2491 
L 2053 2491 
Q 2509 2491 2742 2702 
Q 2975 2913 2975 3322 
Q 2975 3731 2742 3939 
Q 2509 4147 2053 4147 
L 1259 4147 
z
" transform="scale(0.015625)"/>
       <path id="DejaVuSans-77" d="M 269 3500 
L 844 3500 
L 1563 769 
L 2278 3500 
L 2956 3500 
L 3675 769 
L 4391 3500 
L 4966 3500 
L 4050 0 
L 3372 0 
L 2619 2869 
L 1863 0 
L 1184 0 
L 269 3500 
z
" transform="scale(0.015625)"/>
       <path id="DejaVuSans-64" d="M 2906 2969 
L 2906 4863 
L 3481 4863 
L 3481 0 
L 2906 0 
L 2906 525 
Q 2725 213 2448 61 
Q 2172 -91 1784 -91 
Q 1150 -91 751 415 
Q 353 922 353 1747 
Q 353 2572 751 3078 
Q 1150 3584 1784 3584 
Q 2172 3584 2448 3432 
Q 2725 3281 2906 2969 
z
M 947 1747 
Q 947 1113 1208 752 
Q 1469 391 1925 391 
Q 2381 391 2643 752 
Q 2906 1113 2906 1747 
Q 2906 2381 2643 2742 
Q 2381 3103 1925 3103 
Q 1469 3103 1208 2742 
Q 947 2381 947 1747 
z
" transform="scale(0.015625)"/>
      </defs>
      <use xlink:href="#DejaVuSans-41"/>
      <use xlink:href="#DejaVuSans-76" x="62.533203"/>
      <use xlink:href="#DejaVuSans-65" x="121.712891"/>
      <use xlink:href="#DejaVuSans-72" x="183.236328"/>
      <use xlink:href="#DejaVuSans-61" x="224.349609"/>
      <use xlink:href="#DejaVuSans-67" x="285.628906"/>
      <use xlink:href="#DejaVuSans-65" x="349.105469"/>
      <use xlink:href="#DejaVuSans-20" x="410.628906"/>
      <use xlink:href="#DejaVuSans-52" x="442.416016"/>
      <use xlink:href="#DejaVuSans-65" x="507.398438"/>
      <use xlink:href="#DejaVuSans-77" x="568.921875"/>
      <use xlink:href="#DejaVuSans-61" x="650.708984"/>
      <use xlink:href="#DejaVuSans-72" x="711.988281"/>
      <use xlink:href="#DejaVuSans-64" x="751.351562"/>
     </g>
    </g>
   </g>
   <g id="line2d_15">
    <path d="M 115.363636 369.36 
L 115.871417 298.232164 
L 116.379197 268.467015 
L 116.886978 256.585946 
L 117.394758 226.559116 
L 117.902539 222.01363 
L 118.410319 206.522517 
L 118.9181 196.612434 
L 119.42588 195.20946 
L 119.933661 198.297888 
L 120.949222 175.625709 
L 121.457002 179.081649 
L 121.964783 172.094194 
L 122.472563 169.637246 
L 122.980344 168.068289 
L 123.488124 173.399705 
L 125.011466 162.282752 
L 125.519247 165.999891 
L 126.027027 160.429732 
L 126.534808 160.461212 
L 127.042588 163.788183 
L 127.550369 156.380526 
L 128.058149 154.396709 
L 128.56593 157.392789 
L 129.07371 159.007816 
L 129.581491 150.239699 
L 130.089271 159.630914 
L 130.597052 152.494852 
L 131.104832 150.944255 
L 131.612613 151.205954 
L 132.120393 156.257172 
L 132.628174 155.663486 
L 133.135954 159.064826 
L 133.643735 147.46536 
L 134.151515 143.870586 
L 134.659296 158.76935 
L 135.167076 154.354148 
L 135.674857 157.445061 
L 136.182637 157.130572 
L 136.690418 158.785611 
L 137.198198 153.001987 
L 137.705979 152.450222 
L 138.213759 148.616264 
L 138.72154 155.447762 
L 139.22932 159.401956 
L 139.737101 159.532656 
L 140.244881 154.91083 
L 140.752662 157.351574 
L 141.260442 158.679702 
L 141.768223 141.653304 
L 142.276003 151.469771 
L 142.783784 143.904479 
L 143.291564 147.128814 
L 143.799345 149.593591 
L 144.307125 157.655876 
L 144.814906 162.940596 
L 145.322686 149.066987 
L 145.830467 152.600058 
L 146.338247 154.959525 
L 146.846028 163.0948 
L 147.353808 159.971931 
L 147.861589 149.458158 
L 148.369369 146.582192 
L 148.87715 153.923907 
L 149.38493 148.887381 
L 149.892711 149.934617 
L 150.400491 145.221312 
L 150.908272 151.077804 
L 151.416052 141.954199 
L 151.923833 157.094702 
L 152.431613 152.277177 
L 152.939394 143.035432 
L 153.447174 146.34892 
L 153.954955 148.024042 
L 154.462735 156.05063 
L 154.970516 147.078547 
L 155.478296 152.867137 
L 155.986077 146.899849 
L 156.493857 145.128661 
L 157.001638 150.684044 
L 157.509419 148.074161 
L 158.017199 146.086627 
L 158.52498 144.837084 
L 159.03276 150.065716 
L 159.540541 158.925056 
L 160.048321 154.944155 
L 160.556102 144.442513 
L 161.063882 150.801737 
L 161.571663 148.107679 
L 162.079443 144.33723 
L 162.587224 144.332342 
L 163.095004 157.524316 
L 163.602785 157.245881 
L 164.110565 144.959717 
L 164.618346 143.467538 
L 165.126126 154.114301 
L 165.633907 150.368082 
L 166.141687 148.681408 
L 166.649468 143.28664 
L 167.157248 158.368492 
L 167.665029 147.916636 
L 168.172809 149.860524 
L 168.68059 155.897443 
L 169.18837 150.183695 
L 169.696151 156.524903 
L 170.203931 143.586704 
L 170.711712 147.589168 
L 171.219492 145.752407 
L 171.727273 140.855233 
L 172.235053 153.03577 
L 172.742834 154.261356 
L 173.250614 149.909237 
L 173.758395 143.775691 
L 174.266175 148.42827 
L 174.773956 145.688434 
L 175.281736 145.610479 
L 175.789517 156.345036 
L 176.297297 149.604586 
L 177.312858 155.398892 
L 177.820639 149.121789 
L 178.328419 150.173248 
L 178.8362 149.594033 
L 179.34398 146.618605 
L 180.359541 155.876267 
L 180.867322 154.849274 
L 181.375102 148.23079 
L 181.882883 146.635269 
L 182.390663 153.057005 
L 182.898444 145.141355 
L 183.406224 147.090314 
L 183.914005 153.656115 
L 184.421785 152.147537 
L 184.929566 153.495043 
L 185.437346 148.53034 
L 185.945127 146.115327 
L 186.452907 146.61626 
L 186.960688 151.279591 
L 187.468468 152.956262 
L 187.976249 144.456961 
L 188.99181 147.792383 
L 189.49959 156.461262 
L 190.007371 146.318556 
L 190.515152 146.810307 
L 191.022932 147.717917 
L 191.530713 144.619339 
L 192.038493 149.698007 
L 192.546274 144.153588 
L 193.054054 144.231146 
L 193.561835 154.46125 
L 194.069615 154.325938 
L 194.577396 149.695119 
L 195.085176 141.811593 
L 195.592957 152.157826 
L 196.100737 152.190503 
L 196.608518 154.4399 
L 197.116298 141.089419 
L 197.624079 152.107125 
L 198.131859 150.568096 
L 198.63964 148.602971 
L 199.14742 148.086389 
L 199.655201 154.168361 
L 200.162981 151.111773 
L 200.670762 159.693784 
L 201.178542 136.859981 
L 201.686323 145.843023 
L 202.194103 142.079891 
L 202.701884 158.338633 
L 203.209664 149.545141 
L 203.717445 150.57988 
L 204.225225 149.275459 
L 204.733006 144.85297 
L 205.240786 154.798516 
L 205.748567 145.05638 
L 206.256347 147.891614 
L 206.764128 149.697467 
L 207.271908 144.220924 
L 208.287469 153.12875 
L 208.79525 142.966106 
L 209.30303 146.881842 
L 209.810811 152.638724 
L 210.318591 151.746489 
L 210.826372 151.188124 
L 211.334152 145.904528 
L 211.841933 147.597134 
L 212.349713 151.222883 
L 212.857494 147.653038 
L 213.365274 155.661875 
L 213.873055 144.093283 
L 214.380835 153.057204 
L 214.888616 151.516611 
L 215.396396 151.478806 
L 215.904177 150.372229 
L 216.411957 152.997577 
L 216.919738 160.403465 
L 217.427518 152.981113 
L 217.935299 152.459236 
L 218.443079 157.577349 
L 218.95086 147.316533 
L 219.45864 149.625051 
L 219.966421 157.757104 
L 220.474201 148.283375 
L 220.981982 147.083284 
L 221.489762 145.464181 
L 221.997543 142.553616 
L 222.505324 152.718124 
L 223.013104 148.446677 
L 223.520885 149.898608 
L 224.536446 146.865171 
L 225.044226 146.985289 
L 225.552007 148.493108 
L 226.059787 144.073873 
L 226.567568 151.704606 
L 227.075348 142.590598 
L 227.583129 145.855368 
L 228.090909 143.983312 
L 228.59869 151.076807 
L 229.10647 149.294848 
L 229.614251 146.058224 
L 230.122031 147.133853 
L 230.629812 156.65974 
L 231.137592 151.643952 
L 231.645373 148.619631 
L 232.153153 148.171194 
L 232.660934 152.862259 
L 233.168714 138.958307 
L 233.676495 152.234877 
L 234.184275 149.070575 
L 234.692056 146.787976 
L 235.199836 145.767304 
L 235.707617 156.641653 
L 236.215397 157.429939 
L 236.723178 149.44478 
L 237.230958 149.074699 
L 237.738739 153.677084 
L 238.246519 147.873532 
L 238.7543 149.257968 
L 239.26208 147.14551 
L 239.769861 149.054595 
L 240.277641 146.283485 
L 240.785422 145.467368 
L 241.293202 149.341941 
L 241.800983 146.225183 
L 242.308763 154.645768 
L 242.816544 154.116409 
L 243.324324 149.215079 
L 243.832105 148.334176 
L 244.339885 146.475916 
L 244.847666 161.637681 
L 245.355446 150.529593 
L 245.863227 147.524363 
L 246.371007 145.273584 
L 246.878788 146.443081 
L 247.386568 151.608065 
L 247.894349 144.793327 
L 248.402129 153.231083 
L 248.90991 147.607392 
L 249.41769 148.276552 
L 249.925471 146.217266 
L 250.433251 148.34334 
L 250.941032 148.036765 
L 251.448812 149.785028 
L 251.956593 145.427229 
L 252.464373 149.328728 
L 252.972154 155.111053 
L 253.479934 146.732077 
L 253.987715 153.943869 
L 254.495495 144.774968 
L 255.003276 141.220259 
L 255.511057 152.952943 
L 256.018837 144.443302 
L 256.526618 143.899752 
L 257.034398 159.857879 
L 257.542179 151.634818 
L 258.049959 139.901217 
L 259.06552 150.719776 
L 259.573301 150.677583 
L 260.081081 145.661875 
L 260.588862 142.081154 
L 261.096642 152.516442 
L 261.604423 151.806589 
L 262.112203 152.708877 
L 262.619984 144.332119 
L 263.127764 150.903243 
L 263.635545 150.238789 
L 264.651106 139.529488 
L 265.158886 150.717666 
L 265.666667 146.386386 
L 266.174447 150.768465 
L 267.190008 146.88647 
L 267.697789 143.963663 
L 268.205569 141.928919 
L 268.71335 153.083083 
L 269.22113 149.568347 
L 269.728911 158.053062 
L 270.236691 150.071233 
L 271.252252 143.421906 
L 271.760033 147.736157 
L 272.267813 147.822276 
L 272.775594 151.452663 
L 273.283374 148.836475 
L 273.791155 151.926239 
L 274.298935 152.124103 
L 274.806716 151.184169 
L 275.314496 147.230494 
L 275.822277 149.994337 
L 276.330057 149.947285 
L 276.837838 136.518378 
L 277.345618 156.81008 
L 277.853399 146.453784 
L 278.361179 148.107682 
L 278.86896 144.358673 
L 279.37674 150.19565 
L 279.884521 144.402281 
L 280.392301 149.831315 
L 280.900082 144.707178 
L 281.407862 146.740811 
L 281.915643 151.13105 
L 282.423423 147.260737 
L 282.931204 148.417006 
L 283.438984 150.933094 
L 283.946765 142.531534 
L 284.454545 144.297445 
L 284.962326 149.52015 
L 285.470106 150.899024 
L 285.977887 146.797589 
L 286.485667 146.54778 
L 286.993448 146.99445 
L 288.009009 158.05528 
L 288.51679 150.64043 
L 289.02457 145.173064 
L 289.532351 144.032897 
L 290.040131 146.67014 
L 290.547912 142.619327 
L 291.055692 151.830458 
L 291.563473 148.545115 
L 292.071253 146.053658 
L 292.579034 153.220539 
L 293.086814 149.802303 
L 293.594595 141.681932 
L 294.102375 151.979424 
L 294.610156 149.956187 
L 295.117936 140.80695 
L 296.133497 147.326189 
L 296.641278 149.510258 
L 297.149058 150.904025 
L 297.656839 155.090244 
L 298.164619 148.080663 
L 298.6724 144.915545 
L 299.18018 134.793571 
L 299.687961 144.463918 
L 300.195741 150.35073 
L 300.703522 143.424038 
L 301.211302 148.255239 
L 301.719083 156.522854 
L 302.226863 152.235774 
L 302.734644 152.912916 
L 303.242424 151.164339 
L 303.750205 148.737959 
L 304.257985 152.283654 
L 304.765766 145.998064 
L 305.273546 151.452362 
L 305.781327 160.058109 
L 306.289107 141.390949 
L 306.796888 153.691826 
L 307.304668 151.587209 
L 307.812449 146.06204 
L 308.320229 151.531411 
L 309.33579 144.004597 
L 309.843571 142.147668 
L 310.351351 153.33579 
L 310.859132 147.740453 
L 311.366912 147.967305 
L 311.874693 144.300346 
L 312.382473 153.570557 
L 313.398034 148.842989 
L 313.905815 148.440214 
L 314.413595 139.802914 
L 314.921376 144.521282 
L 315.429156 147.732071 
L 315.936937 147.015129 
L 316.444717 148.108263 
L 316.952498 143.302423 
L 317.460278 149.27187 
L 317.968059 151.127003 
L 318.475839 152.505206 
L 318.98362 149.16619 
L 319.4914 150.213243 
L 319.999181 144.819443 
L 320.506962 158.043375 
L 321.014742 146.439853 
L 321.522523 153.451252 
L 322.030303 141.145155 
L 322.538084 145.194781 
L 323.045864 144.192809 
L 323.553645 149.739604 
L 324.061425 148.282909 
L 324.569206 144.263317 
L 325.076986 151.959787 
L 325.584767 143.242894 
L 326.092547 144.389633 
L 326.600328 149.829994 
L 327.108108 157.478925 
L 327.615889 148.823124 
L 328.123669 148.118224 
L 328.63145 155.751782 
L 329.13923 149.804829 
L 329.647011 154.659019 
L 330.154791 154.050242 
L 330.662572 147.712651 
L 331.170352 155.011132 
L 331.678133 151.664865 
L 332.185913 150.310725 
L 332.693694 150.124258 
L 333.201474 148.212668 
L 333.709255 147.178892 
L 334.217035 147.127243 
L 334.724816 142.738899 
L 335.232596 145.079173 
L 335.740377 141.185902 
L 336.248157 147.769044 
L 336.755938 162.789505 
L 337.263718 152.428973 
L 337.771499 150.748145 
L 338.279279 141.030639 
L 338.78706 149.944179 
L 339.29484 145.366858 
L 339.802621 146.943515 
L 340.310401 144.952486 
L 340.818182 152.12423 
L 341.325962 151.522571 
L 341.833743 143.881707 
L 342.341523 152.491724 
L 342.849304 145.96723 
L 343.357084 142.964314 
L 343.864865 153.298816 
L 344.372645 142.085746 
L 344.880426 144.355412 
L 345.388206 153.587705 
L 345.895987 148.230186 
L 346.403767 148.224948 
L 346.911548 147.810312 
L 347.419328 155.847777 
L 347.927109 152.830058 
L 348.434889 146.067564 
L 348.94267 151.128292 
L 349.45045 160.365287 
L 349.958231 154.846957 
L 350.466011 147.624756 
L 350.973792 151.876574 
L 351.481572 148.826603 
L 351.989353 154.465315 
L 352.497133 155.428268 
L 353.004914 148.385848 
L 353.512695 148.243323 
L 354.020475 146.617859 
L 354.528256 146.628753 
L 355.036036 143.661682 
L 355.543817 155.143461 
L 356.051597 152.737901 
L 356.559378 154.388223 
L 357.067158 154.066521 
L 357.574939 145.776357 
L 358.082719 144.444868 
L 358.5905 148.646488 
L 359.09828 148.612043 
L 359.606061 141.822367 
L 360.113841 149.475409 
L 360.621622 146.083663 
L 361.129402 140.123223 
L 361.637183 151.336238 
L 362.144963 142.741284 
L 362.652744 150.277411 
L 363.160524 138.778995 
L 363.668305 151.013016 
L 364.176085 142.774349 
L 364.683866 152.512045 
L 365.191646 148.026765 
L 365.699427 149.174994 
L 366.207207 151.528172 
L 366.714988 145.178986 
L 367.222768 143.413778 
L 367.730549 149.636765 
L 368.238329 153.613899 
L 368.74611 150.970164 
L 369.25389 152.752867 
L 369.761671 141.193761 
L 370.269451 149.997322 
L 370.777232 149.723178 
L 371.285012 153.85534 
L 371.792793 147.316924 
L 372.300573 157.221228 
L 372.808354 155.833215 
L 373.316134 145.132292 
L 373.823915 153.402266 
L 374.839476 140.563704 
L 375.347256 149.184036 
L 375.855037 154.116664 
L 376.362817 152.413323 
L 376.870598 152.645077 
L 377.378378 151.777954 
L 377.886159 140.976454 
L 378.393939 154.564871 
L 378.90172 156.41013 
L 379.4095 135.57899 
L 379.917281 142.704144 
L 380.932842 147.498409 
L 381.440622 142.918166 
L 381.948403 141.190724 
L 382.456183 150.932119 
L 382.963964 144.708156 
L 383.471744 148.615593 
L 383.979525 149.500775 
L 384.487305 153.763218 
L 384.995086 149.152306 
L 385.502867 156.287217 
L 386.010647 156.730274 
L 386.518428 154.808691 
L 387.026208 147.587323 
L 387.533989 148.199786 
L 388.041769 147.790056 
L 388.54955 145.686296 
L 389.05733 145.986105 
L 389.565111 150.823629 
L 390.072891 143.085238 
L 390.580672 144.589317 
L 391.088452 149.387704 
L 391.596233 148.455228 
L 392.104013 151.024035 
L 392.611794 143.794608 
L 393.119574 139.602614 
L 394.135135 143.101682 
L 394.642916 151.112614 
L 395.150696 148.461051 
L 396.166257 147.269648 
L 396.674038 154.461539 
L 397.181818 148.086142 
L 397.689599 143.816637 
L 398.197379 142.120895 
L 398.70516 142.682385 
L 399.21294 139.849914 
L 399.720721 144.920511 
L 400.228501 154.139369 
L 400.736282 146.278259 
L 401.244062 152.176827 
L 401.751843 154.923211 
L 402.259623 148.426015 
L 402.767404 145.739175 
L 403.275184 147.99802 
L 403.782965 153.62419 
L 404.290745 141.720936 
L 404.798526 149.458638 
L 405.306306 153.700474 
L 405.814087 144.532477 
L 406.321867 158.741039 
L 406.829648 146.146277 
L 407.337428 153.9612 
L 407.845209 144.995661 
L 408.352989 142.6153 
L 408.86077 142.425789 
L 409.36855 148.530134 
L 409.876331 149.049592 
L 410.384111 147.294696 
L 410.891892 152.174644 
L 411.399672 144.6838 
L 411.907453 146.379554 
L 412.415233 143.59568 
L 412.923014 159.02185 
L 413.430794 148.405784 
L 413.938575 134.730728 
L 414.446355 144.287266 
L 414.954136 149.904917 
L 415.461916 153.545972 
L 415.969697 145.573145 
L 416.477477 141.255752 
L 416.985258 133.245644 
L 417.493038 150.094161 
L 418.000819 149.388203 
L 418.5086 145.575886 
L 419.01638 148.673271 
L 419.524161 139.824473 
L 420.539722 150.172685 
L 421.047502 149.766803 
L 421.555283 152.752223 
L 422.063063 150.618402 
L 422.570844 141.970916 
L 423.078624 158.239015 
L 423.586405 149.006172 
L 424.094185 159.650566 
L 424.601966 148.047566 
L 425.109746 151.409837 
L 425.617527 146.02964 
L 426.125307 147.613438 
L 426.633088 153.552626 
L 427.140868 147.831774 
L 427.648649 147.38144 
L 428.156429 150.841536 
L 428.66421 140.407668 
L 429.17199 137.387321 
L 429.679771 147.018116 
L 430.187551 143.304129 
L 430.695332 143.426186 
L 431.203112 143.737677 
L 431.710893 146.668581 
L 432.218673 143.519006 
L 432.726454 149.990782 
L 433.234234 140.99212 
L 434.249795 153.5703 
L 434.757576 145.129216 
L 435.773137 157.102356 
L 436.280917 144.228744 
L 437.296478 152.110567 
L 437.804259 152.855537 
L 438.312039 146.887268 
L 438.81982 144.334051 
L 439.3276 143.970489 
L 439.835381 154.729593 
L 440.343161 150.987129 
L 440.850942 153.094148 
L 441.866503 140.19443 
L 442.374283 148.596463 
L 442.882064 148.584783 
L 443.389844 148.772879 
L 443.897625 150.172389 
L 444.405405 147.378096 
L 444.913186 147.689763 
L 445.420966 148.830611 
L 445.928747 155.406221 
L 446.436527 153.931723 
L 447.452088 138.89734 
L 447.959869 145.226288 
L 448.467649 149.545615 
L 448.97543 152.515182 
L 449.48321 153.760553 
L 449.990991 145.086775 
L 450.498771 151.681757 
L 451.006552 155.703849 
L 451.514333 155.058156 
L 452.022113 148.055126 
L 452.529894 148.549296 
L 453.545455 150.5686 
L 454.053235 153.351271 
L 454.561016 144.691896 
L 455.068796 151.064917 
L 455.576577 154.307748 
L 456.084357 152.986453 
L 456.592138 153.82925 
L 457.099918 143.384216 
L 457.607699 142.112271 
L 458.115479 149.759755 
L 458.62326 143.557726 
L 459.13104 155.745742 
L 459.638821 151.195949 
L 460.146601 144.506266 
L 460.654382 147.223498 
L 461.162162 142.895613 
L 461.669943 152.424868 
L 462.177723 148.402404 
L 462.685504 150.015866 
L 463.701065 144.110563 
L 464.208845 146.137888 
L 464.716626 144.318502 
L 465.224406 156.183536 
L 465.732187 150.224966 
L 466.239967 150.517489 
L 466.747748 143.45536 
L 467.255528 151.532662 
L 467.763309 144.051762 
L 468.271089 141.801606 
L 468.77887 147.614859 
L 469.28665 144.075849 
L 469.794431 160.135669 
L 470.302211 137.936088 
L 470.809992 151.652767 
L 471.317772 153.163886 
L 471.825553 145.10018 
L 472.333333 160.868046 
L 472.841114 149.218976 
L 473.856675 144.415128 
L 474.364455 149.175191 
L 474.872236 141.108349 
L 475.380016 142.28492 
L 475.887797 139.227814 
L 476.395577 152.733759 
L 476.903358 149.3286 
L 477.411138 158.376842 
L 477.918919 140.013615 
L 478.426699 145.719716 
L 478.93448 149.652385 
L 479.44226 149.738787 
L 479.950041 151.105423 
L 480.457821 141.819799 
L 480.965602 147.348082 
L 481.473382 144.241145 
L 481.981163 143.267989 
L 482.488943 143.714695 
L 482.996724 149.892682 
L 483.504505 152.257745 
L 484.012285 150.003149 
L 484.520066 148.355704 
L 485.027846 148.638278 
L 485.535627 148.007824 
L 486.043407 146.488244 
L 486.551188 142.02941 
L 487.058968 134.947447 
L 487.566749 146.307808 
L 488.074529 149.508845 
L 488.58231 150.837312 
L 489.09009 149.268321 
L 489.597871 148.990582 
L 490.105651 144.255445 
L 490.613432 145.17578 
L 491.121212 158.851046 
L 491.628993 151.182792 
L 492.136773 145.680486 
L 492.644554 150.723693 
L 493.152334 146.980764 
L 493.660115 153.709942 
L 494.167895 148.20361 
L 494.675676 144.805165 
L 495.183456 147.580158 
L 496.199017 155.184497 
L 496.706798 148.040632 
L 497.214578 149.99541 
L 497.722359 140.979548 
L 498.230139 157.944134 
L 498.73792 143.517749 
L 499.2457 149.629651 
L 499.753481 157.21529 
L 500.261261 141.692297 
L 501.276822 150.705049 
L 501.784603 150.468379 
L 502.292383 147.865829 
L 502.800164 152.945873 
L 503.307944 148.312801 
L 503.815725 146.568501 
L 504.323505 145.474681 
L 504.831286 144.966268 
L 505.339066 157.542293 
L 505.846847 156.522621 
L 506.354627 143.419064 
L 506.862408 142.30471 
L 507.877969 148.65449 
L 508.385749 148.149712 
L 508.89353 142.312246 
L 509.40131 148.845003 
L 509.909091 142.816881 
L 510.416871 146.622758 
L 510.924652 157.304687 
L 511.432432 144.384578 
L 511.940213 155.310754 
L 512.447993 148.302474 
L 512.955774 150.714261 
L 513.463554 142.608804 
L 513.971335 144.991582 
L 514.479115 151.579531 
L 514.986896 145.924897 
L 515.494676 158.082516 
L 516.002457 149.301642 
L 516.510238 149.283169 
L 517.018018 142.028462 
L 517.525799 148.045331 
L 518.033579 150.603262 
L 518.54136 143.83549 
L 519.04914 147.795288 
L 519.556921 146.114722 
L 520.064701 147.319098 
L 520.572482 151.527311 
L 521.080262 146.701681 
L 521.588043 154.608262 
L 522.095823 142.710876 
L 522.603604 146.091364 
L 523.111384 151.509896 
L 523.619165 152.800359 
L 524.126945 149.344151 
L 524.634726 150.716895 
L 525.142506 144.894187 
L 525.650287 152.743657 
L 526.158067 153.035552 
L 526.665848 150.68456 
L 527.173628 146.389821 
L 527.681409 146.224214 
L 528.189189 153.23287 
L 528.69697 147.464634 
L 529.20475 157.40308 
L 529.712531 154.64069 
L 530.220311 152.960895 
L 530.728092 144.651406 
L 531.235872 142.559324 
L 531.743653 155.664098 
L 532.251433 153.222924 
L 532.759214 143.746481 
L 533.266994 142.061997 
L 533.774775 142.523701 
L 534.282555 147.883343 
L 534.790336 149.369124 
L 535.298116 149.935424 
L 535.805897 147.741278 
L 536.313677 151.105021 
L 536.821458 145.884896 
L 537.329238 150.205233 
L 537.837019 141.961293 
L 538.344799 148.073803 
L 538.85258 148.561375 
L 539.36036 155.299937 
L 540.375921 147.350027 
L 540.883702 147.937814 
L 541.391482 144.657813 
L 541.899263 143.227631 
L 542.407043 150.991848 
L 542.914824 149.354937 
L 543.422604 141.652737 
L 543.930385 151.539718 
L 544.438165 150.111868 
L 544.945946 141.734528 
L 545.453726 158.907845 
L 545.961507 149.997007 
L 546.469287 153.276827 
L 546.977068 141.474733 
L 547.484848 149.024601 
L 547.992629 148.879529 
L 548.50041 146.299839 
L 549.00819 144.715348 
L 549.515971 148.442972 
L 550.023751 135.381166 
L 550.531532 145.41977 
L 551.039312 148.186105 
L 551.547093 149.679297 
L 552.054873 156.468352 
L 552.562654 154.227045 
L 553.070434 149.257494 
L 553.578215 145.907258 
L 554.085995 154.171129 
L 554.593776 153.757825 
L 555.101556 149.206004 
L 555.609337 147.880394 
L 556.117117 145.446372 
L 556.624898 155.959525 
L 557.132678 148.318035 
L 557.640459 152.978979 
L 558.148239 156.244632 
L 558.65602 151.236568 
L 559.1638 151.599604 
L 559.671581 141.335946 
L 560.179361 150.32103 
L 560.687142 150.289597 
L 561.194922 148.809804 
L 561.702703 147.890394 
L 562.210483 151.694565 
L 562.718264 147.703231 
L 563.226044 153.491033 
L 563.733825 145.341623 
L 564.241605 152.951204 
L 564.749386 147.143948 
L 565.257166 155.501547 
L 565.764947 144.69939 
L 566.272727 145.73237 
L 566.780508 144.550832 
L 567.288288 154.086065 
L 567.796069 150.657892 
L 568.303849 149.486186 
L 568.81163 150.022023 
L 569.31941 144.953654 
L 569.827191 150.1256 
L 570.334971 145.44173 
L 570.842752 151.909668 
L 571.350532 142.478861 
L 571.858313 152.088933 
L 572.366093 149.393511 
L 572.873874 147.369057 
L 573.381654 146.964069 
L 573.889435 148.942702 
L 574.397215 158.976388 
L 574.904996 147.71998 
L 575.412776 148.923138 
L 575.920557 148.648179 
L 576.428337 158.558196 
L 576.936118 149.465592 
L 577.443898 149.830735 
L 577.951679 154.864104 
L 578.459459 155.773445 
L 578.96724 151.842542 
L 579.47502 151.412115 
L 579.982801 155.414918 
L 580.490581 149.497212 
L 580.998362 150.121668 
L 581.506143 145.53074 
L 582.013923 152.35434 
L 582.521704 148.657458 
L 583.029484 150.043255 
L 583.537265 141.203986 
L 584.045045 152.351821 
L 584.552826 146.936421 
L 585.060606 146.369096 
L 585.568387 148.079215 
L 586.076167 137.458999 
L 586.583948 156.018209 
L 587.091728 153.822701 
L 587.599509 149.33676 
L 588.107289 152.58847 
L 588.61507 149.167928 
L 589.12285 141.942248 
L 589.630631 154.404736 
L 590.138411 142.8337 
L 590.646192 145.282476 
L 591.153972 146.353634 
L 591.661753 150.995938 
L 592.169533 145.245429 
L 592.677314 149.909097 
L 593.185094 148.904061 
L 593.692875 147.426245 
L 594.200655 149.290217 
L 594.708436 144.914843 
L 595.216216 144.48237 
L 595.723997 145.341261 
L 596.739558 141.535975 
L 597.247338 146.599964 
L 597.755119 157.551522 
L 598.262899 143.631093 
L 598.77068 155.040178 
L 599.27846 159.837622 
L 599.786241 155.203353 
L 600.294021 143.887509 
L 600.801802 143.299222 
L 601.309582 144.965617 
L 601.817363 153.58797 
L 602.325143 152.709559 
L 602.832924 153.574121 
L 603.340704 153.404588 
L 603.848485 148.496433 
L 604.356265 142.473672 
L 604.864046 147.367187 
L 605.371826 153.690957 
L 605.879607 138.987359 
L 606.387387 158.045537 
L 606.895168 141.400279 
L 607.402948 147.656497 
L 607.910729 151.323077 
L 608.418509 156.335952 
L 608.92629 143.270508 
L 609.43407 147.102154 
L 609.941851 142.459905 
L 610.449631 152.349497 
L 610.957412 154.811434 
L 611.465192 152.583307 
L 611.972973 145.115272 
L 612.480753 145.573426 
L 612.988534 151.741195 
L 613.496314 142.23183 
L 614.004095 152.895944 
L 614.511876 150.70147 
L 615.019656 147.684321 
L 615.527437 150.844048 
L 616.035217 141.154531 
L 616.542998 143.898292 
L 617.050778 150.478974 
L 617.558559 150.716593 
L 618.066339 142.971759 
L 618.57412 145.191439 
L 619.0819 151.041332 
L 619.589681 141.087948 
L 620.605242 151.322496 
L 621.113022 152.623794 
L 621.620803 154.571888 
L 622.128583 151.93203 
L 622.636364 158.087505 
L 622.636364 158.087505 
" clip-path="url(#p539e91b67e)" style="fill: none; stroke: #1f77b4; stroke-width: 1.5; stroke-linecap: square"/>
   </g>
   <g id="line2d_16">
    <path d="M 115.363636 364.499622 
L 115.871417 310.895253 
L 116.379197 279.627171 
L 116.886978 255.29147 
L 118.410319 214.423698 
L 118.9181 222.171448 
L 119.42588 196.541627 
L 119.933661 189.805793 
L 120.441441 189.41383 
L 120.949222 188.620218 
L 121.457002 194.086457 
L 121.964783 187.052777 
L 122.472563 176.305051 
L 122.980344 176.039513 
L 123.995905 165.931611 
L 124.503686 164.290233 
L 125.011466 169.093565 
L 125.519247 171.019398 
L 126.027027 163.237007 
L 126.534808 158.058063 
L 127.042588 154.371679 
L 127.550369 165.904886 
L 128.058149 162.35067 
L 128.56593 150.218694 
L 129.07371 162.138809 
L 129.581491 153.704341 
L 130.089271 151.925285 
L 130.597052 160.189403 
L 131.612613 148.281339 
L 132.120393 143.877322 
L 132.628174 149.503788 
L 133.135954 142.164513 
L 133.643735 159.952472 
L 134.151515 144.612228 
L 134.659296 140.896775 
L 135.167076 144.878029 
L 135.674857 146.055831 
L 136.182637 141.955511 
L 136.690418 141.822241 
L 137.198198 135.471259 
L 137.705979 148.366161 
L 138.213759 151.363328 
L 138.72154 141.02239 
L 139.22932 141.702114 
L 139.737101 139.984592 
L 140.244881 132.592715 
L 140.752662 128.918456 
L 141.260442 139.489699 
L 141.768223 139.880536 
L 142.276003 130.252946 
L 142.783784 141.307586 
L 143.291564 134.850463 
L 143.799345 125.872539 
L 144.307125 132.663052 
L 144.814906 129.119074 
L 145.830467 130.448613 
L 146.338247 129.697844 
L 146.846028 143.809487 
L 147.353808 132.874835 
L 147.861589 132.387977 
L 148.369369 127.416212 
L 148.87715 126.964068 
L 149.38493 128.475681 
L 149.892711 130.472965 
L 150.908272 125.582886 
L 151.416052 131.091643 
L 151.923833 123.302298 
L 152.431613 128.07481 
L 152.939394 118.235428 
L 153.447174 135.34886 
L 153.954955 121.61603 
L 154.462735 117.342911 
L 154.970516 126.555123 
L 155.478296 123.724577 
L 155.986077 128.353359 
L 156.493857 127.799591 
L 157.001638 126.944913 
L 157.509419 123.820094 
L 158.017199 133.062203 
L 158.52498 119.752924 
L 159.03276 119.878917 
L 159.540541 125.313473 
L 160.048321 123.326231 
L 160.556102 118.543671 
L 161.063882 121.100746 
L 161.571663 126.957127 
L 162.079443 114.745385 
L 162.587224 125.099136 
L 163.095004 119.997083 
L 163.602785 121.928341 
L 164.110565 117.819853 
L 164.618346 119.753442 
L 165.126126 124.759203 
L 165.633907 110.817658 
L 166.141687 121.902829 
L 166.649468 120.435994 
L 167.157248 123.972634 
L 167.665029 117.906601 
L 168.172809 120.999661 
L 168.68059 107.168064 
L 169.18837 103.660339 
L 169.696151 115.60532 
L 170.203931 106.769591 
L 170.711712 118.870032 
L 171.219492 113.624368 
L 171.727273 119.64562 
L 172.235053 114.854108 
L 172.742834 111.967253 
L 173.250614 113.296217 
L 173.758395 108.965789 
L 174.266175 114.050695 
L 174.773956 117.133313 
L 175.281736 118.387246 
L 175.789517 108.712801 
L 176.297297 119.638637 
L 176.805078 114.420782 
L 177.312858 101.797304 
L 177.820639 109.827251 
L 178.328419 113.598769 
L 178.8362 104.381769 
L 179.851761 113.713844 
L 180.359541 118.762334 
L 180.867322 112.936594 
L 181.375102 105.018482 
L 182.390663 117.871362 
L 182.898444 104.213097 
L 183.406224 113.228268 
L 183.914005 106.668302 
L 184.421785 111.244501 
L 184.929566 105.963802 
L 185.437346 103.557415 
L 185.945127 108.314164 
L 186.452907 106.51386 
L 186.960688 108.263712 
L 187.468468 103.670758 
L 187.976249 104.938364 
L 188.484029 109.234312 
L 188.99181 106.872441 
L 189.49959 112.167588 
L 190.007371 103.22944 
L 190.515152 105.504585 
L 191.022932 98.366082 
L 191.530713 110.597867 
L 192.038493 109.70717 
L 192.546274 107.28763 
L 193.054054 112.058214 
L 193.561835 106.160983 
L 194.069615 116.188834 
L 195.085176 98.450065 
L 195.592957 107.527306 
L 196.100737 100.736532 
L 196.608518 103.139427 
L 197.116298 103.340338 
L 197.624079 106.049572 
L 198.131859 101.306488 
L 198.63964 102.115957 
L 199.14742 104.876153 
L 199.655201 110.545624 
L 200.162981 106.243338 
L 200.670762 98.263801 
L 201.178542 97.804877 
L 201.686323 96.346149 
L 202.194103 104.804261 
L 202.701884 104.645738 
L 203.209664 101.855703 
L 203.717445 103.351357 
L 204.225225 100.428495 
L 204.733006 103.301456 
L 205.240786 104.07121 
L 205.748567 108.899774 
L 206.256347 101.84172 
L 206.764128 105.258301 
L 207.271908 99.111336 
L 207.779689 106.79404 
L 208.287469 103.130664 
L 208.79525 93.733922 
L 209.30303 100.563417 
L 209.810811 94.962779 
L 210.318591 95.81764 
L 210.826372 101.16101 
L 211.334152 101.080947 
L 211.841933 103.23697 
L 212.349713 102.172861 
L 212.857494 93.593456 
L 213.365274 99.481009 
L 213.873055 107.569201 
L 214.380835 101.245692 
L 214.888616 110.798656 
L 215.904177 99.030345 
L 216.411957 98.423617 
L 216.919738 94.07079 
L 217.427518 108.016479 
L 217.935299 101.012234 
L 218.443079 101.827516 
L 218.95086 98.861163 
L 219.45864 100.958711 
L 219.966421 93.314229 
L 220.474201 101.893363 
L 220.981982 93.852806 
L 221.489762 107.343863 
L 221.997543 97.205713 
L 222.505324 93.493706 
L 223.013104 97.483356 
L 223.520885 95.066709 
L 224.028665 89.26158 
L 224.536446 95.976358 
L 225.044226 96.496966 
L 225.552007 92.879022 
L 226.059787 98.274128 
L 226.567568 87.75924 
L 227.583129 94.645391 
L 228.090909 95.381579 
L 228.59869 90.438021 
L 229.10647 89.5606 
L 229.614251 102.482719 
L 230.122031 96.317354 
L 230.629812 92.479329 
L 231.137592 93.303532 
L 231.645373 102.872363 
L 232.153153 91.848619 
L 232.660934 107.712475 
L 233.168714 89.350367 
L 233.676495 91.853043 
L 234.184275 99.745892 
L 234.692056 95.079148 
L 235.199836 99.975825 
L 235.707617 97.501456 
L 236.215397 96.526199 
L 236.723178 94.470086 
L 237.230958 88.956236 
L 237.738739 90.691087 
L 238.246519 87.03053 
L 238.7543 96.876638 
L 239.769861 107.223071 
L 240.277641 98.33723 
L 240.785422 101.294944 
L 241.800983 86.210855 
L 242.308763 100.453999 
L 242.816544 99.61228 
L 243.324324 86.684081 
L 243.832105 90.216799 
L 244.339885 91.595445 
L 244.847666 92.046213 
L 245.355446 88.175124 
L 245.863227 91.007619 
L 246.371007 95.505687 
L 246.878788 94.754332 
L 247.386568 100.10078 
L 247.894349 91.730885 
L 248.402129 80.410668 
L 249.41769 86.443847 
L 249.925471 98.713024 
L 250.433251 97.305268 
L 250.941032 95.32353 
L 251.448812 96.318548 
L 251.956593 94.181352 
L 252.464373 97.268252 
L 252.972154 91.924475 
L 253.479934 100.703497 
L 253.987715 97.8721 
L 254.495495 91.373549 
L 255.003276 92.936272 
L 255.511057 96.422643 
L 256.018837 90.687078 
L 256.526618 90.904625 
L 257.034398 95.77148 
L 257.542179 87.841625 
L 258.049959 93.529417 
L 258.55774 88.933872 
L 259.06552 86.49477 
L 259.573301 97.432827 
L 260.081081 86.539209 
L 260.588862 95.458541 
L 261.096642 86.465684 
L 261.604423 92.637629 
L 262.112203 87.52541 
L 262.619984 75.155547 
L 263.127764 83.535411 
L 263.635545 89.75735 
L 264.143325 99.442891 
L 264.651106 84.745482 
L 265.158886 96.740605 
L 265.666667 81.904969 
L 266.174447 93.24101 
L 266.682228 84.129373 
L 267.697789 104.1195 
L 268.71335 89.29233 
L 269.22113 94.217891 
L 269.728911 85.833915 
L 270.236691 93.792426 
L 270.744472 95.962365 
L 271.252252 78.443583 
L 271.760033 79.467665 
L 272.267813 98.10352 
L 272.775594 90.049604 
L 273.283374 91.471662 
L 273.791155 82.865596 
L 274.298935 80.572861 
L 274.806716 88.063734 
L 275.314496 88.56397 
L 275.822277 84.472071 
L 276.330057 94.282119 
L 276.837838 86.354814 
L 277.345618 98.140274 
L 277.853399 86.956782 
L 278.361179 88.449516 
L 278.86896 102.140883 
L 279.37674 86.465551 
L 279.884521 98.210769 
L 280.392301 84.891014 
L 280.900082 84.76153 
L 281.407862 89.639699 
L 281.915643 95.715022 
L 282.423423 84.930969 
L 282.931204 92.116786 
L 283.438984 89.359619 
L 283.946765 89.577172 
L 284.454545 85.449321 
L 284.962326 92.531844 
L 285.470106 93.904666 
L 285.977887 93.567489 
L 286.485667 92.239166 
L 286.993448 86.608123 
L 287.501229 88.88069 
L 288.009009 92.887858 
L 288.51679 92.630392 
L 289.02457 97.118828 
L 289.532351 87.887719 
L 290.040131 95.641863 
L 290.547912 84.22013 
L 291.055692 87.615135 
L 291.563473 94.198337 
L 292.071253 94.573924 
L 293.086814 83.069287 
L 293.594595 86.88427 
L 294.102375 88.115725 
L 294.610156 84.579763 
L 295.117936 87.701436 
L 295.625717 83.449964 
L 296.133497 84.020861 
L 296.641278 93.255817 
L 297.149058 90.813329 
L 297.656839 91.412033 
L 298.164619 83.595452 
L 298.6724 83.609667 
L 299.18018 94.753804 
L 299.687961 75.305303 
L 300.195741 94.715857 
L 300.703522 95.177604 
L 301.211302 83.051811 
L 301.719083 92.954649 
L 302.226863 97.130288 
L 302.734644 90.577287 
L 303.242424 85.626234 
L 303.750205 95.151995 
L 304.257985 85.842856 
L 304.765766 95.915532 
L 305.273546 83.62162 
L 305.781327 89.392661 
L 306.289107 93.553723 
L 306.796888 90.279584 
L 307.304668 90.048028 
L 307.812449 79.189196 
L 308.82801 91.944397 
L 309.843571 79.606867 
L 310.351351 89.993696 
L 310.859132 93.201085 
L 311.874693 86.392507 
L 312.382473 92.426836 
L 312.890254 94.011921 
L 313.398034 89.762992 
L 313.905815 90.264999 
L 314.413595 87.117951 
L 314.921376 91.419439 
L 315.429156 89.312961 
L 315.936937 79.348262 
L 316.952498 89.90932 
L 317.460278 83.613935 
L 317.968059 86.044688 
L 318.475839 86.198706 
L 318.98362 100.994651 
L 319.4914 87.9839 
L 319.999181 82.052772 
L 320.506962 78.414159 
L 321.014742 98.513771 
L 321.522523 84.39298 
L 322.030303 88.334728 
L 322.538084 100.000336 
L 323.045864 74.498405 
L 323.553645 88.350331 
L 324.061425 87.152931 
L 324.569206 88.503611 
L 325.076986 88.603781 
L 325.584767 75.880012 
L 326.092547 93.361563 
L 326.600328 93.133527 
L 327.108108 82.721225 
L 327.615889 87.54383 
L 328.123669 87.537375 
L 328.63145 89.045885 
L 329.13923 79.832881 
L 329.647011 89.344091 
L 330.154791 103.14128 
L 330.662572 90.269774 
L 331.170352 83.322634 
L 331.678133 89.591841 
L 332.185913 91.759612 
L 332.693694 92.207304 
L 333.201474 77.038141 
L 333.709255 95.494893 
L 334.217035 81.354714 
L 335.232596 85.481359 
L 335.740377 92.334735 
L 336.248157 86.949028 
L 336.755938 83.281303 
L 337.263718 101.096377 
L 337.771499 90.613927 
L 338.279279 90.011578 
L 338.78706 81.580719 
L 339.29484 78.861952 
L 339.802621 88.325646 
L 340.310401 86.316829 
L 340.818182 89.362633 
L 341.325962 84.272936 
L 341.833743 87.496036 
L 342.341523 95.967806 
L 342.849304 87.777216 
L 343.357084 86.542484 
L 343.864865 86.628747 
L 344.372645 91.759418 
L 344.880426 85.230829 
L 345.388206 84.186955 
L 345.895987 86.284273 
L 346.403767 78.869996 
L 346.911548 84.007809 
L 347.419328 73.983158 
L 347.927109 83.19274 
L 348.434889 101.431609 
L 348.94267 83.70746 
L 349.45045 90.603353 
L 349.958231 86.725666 
L 350.466011 90.036978 
L 350.973792 87.473419 
L 351.481572 81.471717 
L 351.989353 82.315368 
L 352.497133 84.484988 
L 353.004914 76.511403 
L 354.020475 87.649849 
L 354.528256 83.064419 
L 355.036036 91.90796 
L 355.543817 72.447329 
L 356.051597 89.101518 
L 356.559378 86.727943 
L 357.067158 73.180855 
L 357.574939 87.940285 
L 358.082719 75.694733 
L 358.5905 70.578481 
L 359.09828 95.357836 
L 359.606061 81.322502 
L 360.113841 82.646823 
L 360.621622 83.393919 
L 361.129402 89.609162 
L 361.637183 81.871308 
L 362.144963 94.266929 
L 362.652744 81.099963 
L 363.160524 91.438414 
L 363.668305 89.766384 
L 364.176085 90.187905 
L 364.683866 78.713678 
L 365.191646 84.616471 
L 365.699427 87.60448 
L 366.207207 89.482116 
L 366.714988 88.29606 
L 367.222768 78.950345 
L 367.730549 82.650823 
L 368.238329 81.739994 
L 368.74611 80.049484 
L 369.25389 79.042906 
L 369.761671 80.598385 
L 370.269451 78.075671 
L 370.777232 76.712239 
L 371.285012 89.288314 
L 371.792793 78.26887 
L 372.300573 98.945912 
L 372.808354 84.05467 
L 373.316134 92.185073 
L 373.823915 88.528885 
L 374.331695 83.69749 
L 374.839476 92.196194 
L 375.347256 81.548711 
L 375.855037 86.618616 
L 376.362817 73.279503 
L 376.870598 83.872137 
L 377.378378 91.304757 
L 377.886159 73.663603 
L 378.393939 81.100235 
L 378.90172 85.848961 
L 379.4095 87.005203 
L 379.917281 73.840697 
L 380.425061 80.967403 
L 380.932842 90.097096 
L 381.440622 91.400206 
L 381.948403 86.204024 
L 382.456183 88.192762 
L 382.963964 86.062105 
L 383.471744 74.919615 
L 383.979525 88.255343 
L 384.487305 89.045358 
L 384.995086 79.613326 
L 385.502867 88.033511 
L 386.010647 76.941557 
L 386.518428 86.576343 
L 387.026208 81.516805 
L 387.533989 83.517377 
L 388.041769 86.916689 
L 388.54955 84.309473 
L 389.05733 82.524398 
L 389.565111 83.66122 
L 390.072891 79.493396 
L 390.580672 90.8065 
L 391.088452 77.599662 
L 391.596233 89.771109 
L 392.104013 83.888248 
L 392.611794 87.861894 
L 393.119574 84.060229 
L 393.627355 96.343487 
L 394.135135 81.210885 
L 394.642916 78.268546 
L 395.150696 84.747115 
L 395.658477 85.541531 
L 396.166257 79.640194 
L 396.674038 84.918454 
L 397.181818 73.238825 
L 397.689599 79.706198 
L 398.197379 82.148592 
L 398.70516 71.502564 
L 399.21294 92.487363 
L 399.720721 78.340461 
L 400.228501 82.832472 
L 400.736282 68.992584 
L 401.244062 84.241866 
L 401.751843 80.311498 
L 402.259623 84.923415 
L 402.767404 84.373059 
L 403.275184 82.567267 
L 403.782965 78.675581 
L 404.290745 90.525695 
L 404.798526 82.639534 
L 405.306306 85.965088 
L 405.814087 91.754068 
L 406.321867 84.641838 
L 406.829648 92.601125 
L 407.337428 81.624793 
L 407.845209 86.529227 
L 408.352989 81.785827 
L 408.86077 75.379693 
L 409.36855 94.228153 
L 409.876331 83.110998 
L 410.384111 85.633234 
L 410.891892 80.955673 
L 411.399672 83.416008 
L 411.907453 88.340005 
L 412.415233 90.558806 
L 412.923014 76.230374 
L 413.430794 81.721003 
L 413.938575 74.500411 
L 414.446355 80.754351 
L 414.954136 90.606607 
L 415.461916 75.023887 
L 415.969697 86.962494 
L 416.477477 90.837778 
L 416.985258 84.469764 
L 417.493038 88.072939 
L 418.000819 92.935792 
L 418.5086 84.923119 
L 419.524161 78.018437 
L 420.031941 84.633471 
L 420.539722 80.893598 
L 421.047502 82.600663 
L 421.555283 89.50489 
L 422.063063 73.106516 
L 422.570844 76.904562 
L 423.078624 79.210989 
L 423.586405 84.151837 
L 424.094185 78.620631 
L 424.601966 79.390983 
L 425.109746 78.159953 
L 425.617527 77.846135 
L 426.125307 75.256951 
L 427.140868 93.740762 
L 427.648649 78.204966 
L 428.156429 91.491337 
L 428.66421 76.519476 
L 429.17199 82.094488 
L 429.679771 71.774043 
L 430.187551 82.737732 
L 430.695332 86.371406 
L 431.710893 78.677699 
L 432.218673 78.879776 
L 432.726454 83.000947 
L 433.234234 78.414153 
L 433.742015 83.835171 
L 434.249795 85.633162 
L 434.757576 82.66313 
L 435.265356 86.548284 
L 435.773137 82.022621 
L 436.280917 87.184209 
L 436.788698 78.617588 
L 437.296478 77.733934 
L 437.804259 88.256621 
L 438.312039 86.689431 
L 438.81982 79.960264 
L 439.3276 83.359867 
L 439.835381 77.959336 
L 440.343161 88.25238 
L 440.850942 84.569686 
L 441.358722 73.546704 
L 441.866503 73.897197 
L 442.374283 81.272806 
L 442.882064 93.410791 
L 443.389844 85.119793 
L 443.897625 79.177801 
L 444.405405 77.906746 
L 444.913186 89.229563 
L 445.420966 87.478868 
L 445.928747 76.887287 
L 446.436527 84.715873 
L 446.944308 86.888266 
L 447.452088 77.290425 
L 447.959869 79.482813 
L 448.467649 95.395947 
L 448.97543 84.395562 
L 449.48321 83.639292 
L 449.990991 83.701097 
L 450.498771 76.384435 
L 451.006552 89.470126 
L 451.514333 80.996485 
L 452.022113 82.212339 
L 452.529894 78.548559 
L 453.037674 86.684361 
L 453.545455 77.10815 
L 454.053235 87.534608 
L 454.561016 75.250864 
L 455.068796 85.352739 
L 455.576577 85.27964 
L 456.084357 82.756911 
L 456.592138 86.754263 
L 457.099918 88.514426 
L 458.115479 73.808964 
L 458.62326 81.671666 
L 459.13104 80.921986 
L 459.638821 84.853535 
L 460.146601 77.299843 
L 460.654382 90.392363 
L 461.162162 87.471095 
L 461.669943 77.431195 
L 462.177723 84.995261 
L 462.685504 85.346566 
L 463.193284 77.770342 
L 463.701065 84.848745 
L 464.208845 75.915518 
L 464.716626 84.896483 
L 465.224406 82.932539 
L 465.732187 85.812227 
L 466.239967 78.375099 
L 466.747748 86.755529 
L 467.255528 79.860405 
L 467.763309 88.435304 
L 468.271089 89.617936 
L 468.77887 70.541601 
L 469.28665 77.086816 
L 470.302211 86.70533 
L 470.809992 69.315735 
L 471.317772 84.104879 
L 471.825553 88.046954 
L 472.333333 84.537881 
L 472.841114 83.980335 
L 473.348894 84.321451 
L 473.856675 79.431236 
L 474.364455 70.237176 
L 474.872236 83.302583 
L 475.380016 87.065775 
L 475.887797 76.313884 
L 476.395577 83.574197 
L 476.903358 79.982006 
L 477.411138 84.958685 
L 477.918919 76.572718 
L 478.426699 75.927692 
L 478.93448 87.644567 
L 479.44226 80.74111 
L 479.950041 85.201989 
L 480.457821 78.587696 
L 480.965602 89.699053 
L 481.473382 79.763647 
L 481.981163 84.234132 
L 482.488943 82.213617 
L 482.996724 88.652563 
L 483.504505 72.634308 
L 484.012285 90.566614 
L 484.520066 83.519473 
L 485.027846 81.51848 
L 485.535627 89.088516 
L 486.043407 92.732126 
L 486.551188 73.00271 
L 487.058968 73.105264 
L 487.566749 79.633023 
L 488.074529 79.221669 
L 488.58231 79.153772 
L 489.09009 84.268455 
L 489.597871 69.920086 
L 490.105651 83.49797 
L 490.613432 73.213008 
L 491.121212 76.613632 
L 491.628993 78.718923 
L 492.136773 76.126327 
L 492.644554 85.017769 
L 493.152334 87.980847 
L 493.660115 84.932731 
L 494.167895 86.055333 
L 494.675676 83.972391 
L 495.183456 80.9098 
L 495.691237 91.052892 
L 496.199017 81.093651 
L 496.706798 82.213395 
L 497.214578 78.568111 
L 497.722359 86.330972 
L 498.230139 81.818921 
L 498.73792 82.446695 
L 499.2457 85.114498 
L 499.753481 86.764341 
L 500.261261 84.044658 
L 500.769042 87.92265 
L 501.276822 80.590556 
L 501.784603 68.420678 
L 502.292383 83.370426 
L 502.800164 87.134919 
L 503.307944 84.901575 
L 503.815725 86.055959 
L 504.323505 81.30703 
L 504.831286 78.746456 
L 505.339066 72.144987 
L 505.846847 87.175168 
L 506.354627 88.470318 
L 506.862408 82.62725 
L 507.370188 71.193206 
L 507.877969 88.421483 
L 508.385749 85.69931 
L 508.89353 87.757686 
L 509.40131 83.784155 
L 509.909091 89.326872 
L 510.416871 73.396467 
L 510.924652 81.049706 
L 511.432432 85.348734 
L 511.940213 85.102987 
L 512.447993 80.673698 
L 512.955774 85.003262 
L 513.463554 74.214383 
L 513.971335 71.406977 
L 514.479115 75.052602 
L 514.986896 91.243313 
L 515.494676 95.723912 
L 516.002457 67.01327 
L 516.510238 83.711237 
L 517.018018 84.798805 
L 517.525799 76.154152 
L 518.033579 82.670791 
L 518.54136 80.844581 
L 519.04914 77.351315 
L 519.556921 80.930068 
L 520.064701 78.879708 
L 520.572482 83.346284 
L 521.080262 80.874329 
L 521.588043 81.511517 
L 522.095823 82.349825 
L 522.603604 83.693025 
L 523.111384 75.509261 
L 523.619165 81.366495 
L 524.126945 76.636582 
L 524.634726 76.842246 
L 525.142506 78.56494 
L 526.158067 74.693639 
L 526.665848 76.229254 
L 527.173628 83.990987 
L 527.681409 80.01847 
L 528.189189 87.548458 
L 528.69697 74.574284 
L 529.20475 86.436409 
L 529.712531 81.759003 
L 530.220311 80.045611 
L 530.728092 80.557592 
L 531.235872 83.768128 
L 531.743653 77.523263 
L 532.251433 81.583569 
L 532.759214 89.797326 
L 533.266994 82.216335 
L 533.774775 82.05237 
L 534.282555 81.700642 
L 534.790336 78.524512 
L 535.298116 81.985762 
L 535.805897 90.109174 
L 536.313677 83.016421 
L 536.821458 73.202293 
L 537.329238 78.416027 
L 537.837019 78.60036 
L 538.344799 78.112548 
L 538.85258 75.423544 
L 539.36036 90.712802 
L 539.868141 76.794052 
L 540.375921 77.3159 
L 540.883702 72.782454 
L 541.391482 83.119096 
L 541.899263 84.346969 
L 542.407043 78.667128 
L 542.914824 90.853547 
L 543.422604 90.538911 
L 543.930385 79.387129 
L 544.438165 73.271802 
L 544.945946 86.601829 
L 545.453726 75.017004 
L 545.961507 81.886235 
L 546.469287 74.083962 
L 546.977068 85.924686 
L 547.484848 77.324043 
L 547.992629 83.109486 
L 548.50041 86.025354 
L 549.00819 80.826229 
L 549.515971 78.774491 
L 550.023751 80.674737 
L 550.531532 79.56211 
L 551.039312 84.85965 
L 551.547093 80.653744 
L 552.054873 84.638045 
L 552.562654 86.091309 
L 553.070434 76.626878 
L 553.578215 77.584078 
L 554.085995 85.442577 
L 554.593776 78.394782 
L 555.101556 75.450573 
L 555.609337 87.961625 
L 556.117117 77.269466 
L 556.624898 88.452114 
L 557.132678 82.619825 
L 557.640459 82.00978 
L 558.148239 82.59389 
L 559.1638 74.499128 
L 559.671581 86.317932 
L 560.179361 79.775755 
L 560.687142 77.252727 
L 561.194922 77.175032 
L 561.702703 85.144998 
L 562.210483 82.49806 
L 562.718264 83.18247 
L 563.226044 84.227024 
L 563.733825 76.759237 
L 564.241605 76.287909 
L 564.749386 79.553507 
L 565.257166 76.165903 
L 565.764947 85.963986 
L 566.272727 85.7099 
L 566.780508 87.127329 
L 567.288288 84.178217 
L 567.796069 84.05256 
L 568.303849 76.456393 
L 568.81163 84.129203 
L 569.31941 76.902824 
L 569.827191 89.185958 
L 570.334971 82.455131 
L 570.842752 69.010727 
L 571.350532 83.569099 
L 571.858313 89.537427 
L 572.366093 74.744445 
L 572.873874 75.550566 
L 573.381654 84.507739 
L 573.889435 74.350539 
L 574.397215 80.34534 
L 574.904996 88.867342 
L 575.412776 83.85486 
L 575.920557 82.353719 
L 576.428337 79.49388 
L 576.936118 72.955492 
L 577.443898 85.050979 
L 577.951679 78.533987 
L 578.459459 84.97431 
L 578.96724 74.64734 
L 579.47502 94.638945 
L 579.982801 78.125254 
L 580.490581 85.616456 
L 580.998362 84.275165 
L 581.506143 84.388188 
L 582.013923 88.149867 
L 582.521704 80.210216 
L 583.029484 85.074563 
L 583.537265 80.792725 
L 584.045045 84.805897 
L 584.552826 82.008015 
L 585.060606 81.8479 
L 585.568387 81.54072 
L 586.076167 79.67268 
L 586.583948 86.31869 
L 587.091728 81.550887 
L 587.599509 73.68165 
L 588.107289 72.592342 
L 588.61507 74.288453 
L 589.12285 89.120169 
L 589.630631 80.120562 
L 590.138411 83.350727 
L 590.646192 77.806922 
L 591.153972 78.689116 
L 591.661753 82.469084 
L 592.169533 70.68751 
L 592.677314 81.450424 
L 593.185094 87.556131 
L 593.692875 88.983052 
L 594.200655 82.693597 
L 594.708436 85.257349 
L 595.216216 81.657479 
L 595.723997 86.067914 
L 596.739558 74.918874 
L 597.247338 85.246265 
L 597.755119 66.96 
L 598.262899 84.646953 
L 598.77068 78.705465 
L 599.27846 77.265281 
L 599.786241 74.983141 
L 600.294021 78.39788 
L 600.801802 74.966157 
L 601.309582 68.584442 
L 601.817363 81.610533 
L 602.325143 76.584225 
L 602.832924 86.081939 
L 603.340704 85.754077 
L 603.848485 83.238473 
L 604.356265 76.742354 
L 604.864046 81.619904 
L 605.371826 80.339397 
L 605.879607 78.32974 
L 606.387387 79.151799 
L 606.895168 82.59305 
L 607.402948 76.803272 
L 607.910729 74.154021 
L 608.92629 76.293846 
L 609.43407 79.759565 
L 609.941851 80.811802 
L 610.449631 92.752839 
L 610.957412 76.66805 
L 611.465192 74.99447 
L 612.480753 83.657745 
L 612.988534 78.027588 
L 613.496314 87.125183 
L 614.004095 82.123894 
L 614.511876 73.535435 
L 615.019656 75.109439 
L 615.527437 82.753489 
L 616.035217 72.727287 
L 616.542998 82.8047 
L 617.050778 78.885943 
L 617.558559 89.101214 
L 618.066339 76.971308 
L 618.57412 86.446637 
L 619.0819 84.926285 
L 619.589681 85.451939 
L 620.097461 81.347218 
L 620.605242 82.813649 
L 621.113022 78.59113 
L 621.620803 85.979941 
L 622.128583 83.935897 
L 622.636364 87.462849 
L 622.636364 87.462849 
" clip-path="url(#p539e91b67e)" style="fill: none; stroke: #ff7f0e; stroke-width: 1.5; stroke-linecap: square"/>
   </g>
   <g id="line2d_17">
    <path d="M 115.363636 368.838643 
L 115.871417 302.187319 
L 116.886978 242.88444 
L 117.394758 234.103451 
L 117.902539 219.193107 
L 118.410319 197.267442 
L 118.9181 202.945173 
L 119.42588 191.90841 
L 119.933661 194.856326 
L 120.441441 186.254433 
L 120.949222 185.642612 
L 121.457002 180.982663 
L 121.964783 179.676071 
L 122.472563 179.04042 
L 122.980344 174.147234 
L 123.488124 173.922113 
L 124.503686 166.659375 
L 125.011466 162.008858 
L 125.519247 168.275388 
L 126.534808 155.465347 
L 127.042588 154.823288 
L 127.550369 141.371255 
L 128.058149 160.819369 
L 128.56593 158.348541 
L 129.07371 153.25817 
L 129.581491 164.231327 
L 130.089271 166.730135 
L 130.597052 164.008113 
L 131.612613 149.165997 
L 132.120393 160.106684 
L 132.628174 167.518192 
L 133.135954 158.645296 
L 133.643735 154.795756 
L 134.151515 157.09449 
L 134.659296 149.169611 
L 135.167076 161.776403 
L 135.674857 150.531698 
L 136.182637 163.799362 
L 136.690418 155.144297 
L 137.198198 158.720026 
L 137.705979 145.363708 
L 138.213759 148.822534 
L 138.72154 160.118094 
L 139.22932 147.68722 
L 139.737101 153.70669 
L 140.244881 155.271036 
L 140.752662 149.203505 
L 141.260442 153.88866 
L 141.768223 154.307261 
L 142.276003 157.105929 
L 142.783784 146.865516 
L 143.291564 151.211053 
L 144.307125 163.224217 
L 144.814906 152.92595 
L 145.322686 155.273495 
L 145.830467 148.817737 
L 146.338247 155.890236 
L 146.846028 152.011196 
L 147.353808 155.210991 
L 147.861589 153.425519 
L 148.369369 162.661086 
L 148.87715 146.306397 
L 149.38493 154.18347 
L 149.892711 153.484646 
L 150.400491 154.259996 
L 150.908272 149.514488 
L 151.416052 149.011328 
L 151.923833 156.56888 
L 152.431613 145.859497 
L 152.939394 152.706916 
L 153.447174 151.132677 
L 153.954955 150.970685 
L 154.462735 146.271875 
L 154.970516 156.591884 
L 155.478296 157.187501 
L 155.986077 150.312935 
L 156.493857 141.563395 
L 157.001638 150.309427 
L 157.509419 151.573082 
L 158.017199 161.406697 
L 158.52498 151.095604 
L 159.03276 159.660513 
L 159.540541 144.275475 
L 160.048321 147.491772 
L 160.556102 148.986335 
L 161.063882 148.252543 
L 161.571663 144.164894 
L 162.079443 147.846702 
L 162.587224 153.040347 
L 163.095004 152.918384 
L 163.602785 146.774012 
L 164.110565 149.621347 
L 164.618346 150.085043 
L 165.126126 142.665638 
L 165.633907 154.347602 
L 166.141687 142.098914 
L 166.649468 142.526024 
L 167.157248 139.455249 
L 167.665029 151.323615 
L 168.172809 146.543744 
L 168.68059 145.390166 
L 169.18837 152.800954 
L 169.696151 132.016109 
L 170.203931 144.1778 
L 170.711712 138.692495 
L 171.219492 150.300357 
L 171.727273 145.672093 
L 172.235053 148.265989 
L 172.742834 130.72172 
L 173.250614 146.390021 
L 173.758395 137.523433 
L 174.266175 147.528621 
L 174.773956 145.661233 
L 175.281736 151.73294 
L 175.789517 149.457698 
L 176.297297 148.272978 
L 177.312858 140.955738 
L 177.820639 148.191627 
L 178.328419 147.554854 
L 178.8362 147.970785 
L 179.34398 141.40126 
L 179.851761 148.920169 
L 180.359541 148.614802 
L 180.867322 140.362511 
L 181.375102 152.498847 
L 181.882883 144.687535 
L 182.390663 146.159025 
L 182.898444 142.40002 
L 183.406224 137.228154 
L 184.421785 146.491598 
L 184.929566 143.655015 
L 185.437346 148.824857 
L 185.945127 142.568161 
L 186.452907 145.837517 
L 186.960688 138.220435 
L 187.468468 143.452637 
L 187.976249 141.004486 
L 188.484029 140.835931 
L 188.99181 148.451185 
L 189.49959 145.106174 
L 190.007371 149.99821 
L 190.515152 143.984918 
L 191.022932 152.275264 
L 191.530713 137.429265 
L 192.038493 137.943911 
L 192.546274 144.685493 
L 193.054054 147.038179 
L 193.561835 144.380944 
L 194.069615 136.622556 
L 194.577396 141.58808 
L 195.085176 140.208787 
L 195.592957 148.93707 
L 196.100737 137.374823 
L 196.608518 146.989383 
L 197.624079 138.885869 
L 198.131859 139.847718 
L 198.63964 142.093061 
L 199.14742 146.275825 
L 200.162981 144.942114 
L 200.670762 143.051564 
L 201.178542 149.601005 
L 201.686323 142.830558 
L 202.194103 148.192434 
L 202.701884 137.749677 
L 203.209664 132.089375 
L 203.717445 132.282483 
L 204.225225 135.018161 
L 204.733006 143.259597 
L 205.240786 140.985022 
L 205.748567 143.194107 
L 206.256347 135.128308 
L 207.271908 129.902508 
L 207.779689 138.08095 
L 208.287469 138.98902 
L 208.79525 133.460981 
L 209.30303 132.049918 
L 209.810811 140.242723 
L 210.318591 143.572199 
L 210.826372 137.502578 
L 211.841933 148.657285 
L 212.349713 135.970272 
L 212.857494 139.008838 
L 213.365274 139.916323 
L 213.873055 144.763523 
L 214.380835 131.898838 
L 214.888616 131.725846 
L 215.396396 132.208411 
L 215.904177 140.508024 
L 216.411957 139.793062 
L 216.919738 130.751487 
L 217.427518 132.594612 
L 217.935299 131.511711 
L 218.443079 139.244935 
L 218.95086 132.236113 
L 219.45864 135.42167 
L 219.966421 129.728723 
L 220.474201 133.756346 
L 220.981982 140.13536 
L 221.489762 133.787053 
L 221.997543 136.779343 
L 222.505324 137.320286 
L 223.013104 138.07701 
L 223.520885 133.883749 
L 224.028665 142.672217 
L 225.044226 134.792672 
L 225.552007 128.457079 
L 226.059787 137.86637 
L 226.567568 121.676505 
L 227.075348 142.252755 
L 227.583129 131.797144 
L 228.090909 131.649333 
L 228.59869 139.833752 
L 229.10647 134.746365 
L 229.614251 133.360973 
L 230.122031 128.909213 
L 230.629812 142.72499 
L 231.137592 130.059456 
L 231.645373 128.472723 
L 232.153153 130.295001 
L 232.660934 134.533795 
L 233.168714 135.604253 
L 233.676495 137.738585 
L 234.184275 129.892731 
L 234.692056 134.277131 
L 235.199836 132.146424 
L 235.707617 129.137627 
L 236.215397 134.404976 
L 236.723178 133.264255 
L 237.230958 133.39837 
L 237.738739 135.277471 
L 238.246519 131.417566 
L 238.7543 126.060967 
L 239.769861 135.377927 
L 240.277641 129.047645 
L 240.785422 130.132795 
L 241.293202 138.592527 
L 241.800983 133.278291 
L 242.308763 126.006969 
L 242.816544 126.562304 
L 243.324324 139.099995 
L 243.832105 129.298302 
L 244.339885 123.480737 
L 244.847666 127.626608 
L 245.355446 138.737114 
L 245.863227 128.217596 
L 246.371007 126.494747 
L 246.878788 132.628005 
L 247.386568 142.273178 
L 248.402129 134.271331 
L 248.90991 123.899876 
L 249.41769 128.215812 
L 249.925471 126.183669 
L 250.433251 126.918129 
L 250.941032 131.903073 
L 251.448812 129.091663 
L 251.956593 127.762918 
L 252.464373 130.137105 
L 252.972154 138.083163 
L 253.479934 133.36135 
L 253.987715 131.340856 
L 254.495495 123.845836 
L 255.003276 126.330308 
L 255.511057 128.133935 
L 256.018837 127.064979 
L 256.526618 135.888737 
L 257.034398 125.463526 
L 257.542179 134.578732 
L 258.049959 135.656759 
L 258.55774 133.425533 
L 259.06552 128.895403 
L 259.573301 130.336114 
L 260.081081 130.1246 
L 260.588862 128.546205 
L 261.096642 130.164322 
L 261.604423 122.845021 
L 262.619984 131.534085 
L 263.127764 130.041525 
L 263.635545 130.152435 
L 264.143325 128.922148 
L 264.651106 113.085668 
L 265.158886 131.158937 
L 265.666667 131.999196 
L 266.174447 129.121806 
L 266.682228 124.478771 
L 267.190008 131.479466 
L 267.697789 129.052926 
L 268.71335 130.944059 
L 269.22113 132.049861 
L 269.728911 129.953069 
L 270.236691 123.941441 
L 270.744472 133.496566 
L 271.252252 127.530358 
L 272.267813 123.327132 
L 272.775594 133.801489 
L 273.283374 123.980563 
L 273.791155 123.559512 
L 274.298935 120.322217 
L 274.806716 127.856722 
L 275.314496 130.584491 
L 275.822277 125.190724 
L 276.330057 127.936348 
L 276.837838 129.815525 
L 277.345618 122.322444 
L 277.853399 122.676529 
L 278.361179 122.215205 
L 278.86896 122.285462 
L 279.37674 125.281341 
L 279.884521 130.741939 
L 280.392301 120.207579 
L 280.900082 135.822491 
L 281.407862 120.845311 
L 281.915643 125.250534 
L 282.423423 124.994765 
L 282.931204 125.300544 
L 283.438984 121.94527 
L 283.946765 125.170434 
L 284.454545 120.406842 
L 284.962326 133.799744 
L 285.470106 119.175998 
L 285.977887 126.818053 
L 286.485667 124.210319 
L 286.993448 124.883061 
L 287.501229 132.072324 
L 288.009009 117.781191 
L 288.51679 121.385253 
L 289.02457 128.272786 
L 289.532351 125.384894 
L 290.040131 121.405681 
L 290.547912 125.128269 
L 291.055692 124.591963 
L 291.563473 117.979695 
L 292.071253 125.141359 
L 292.579034 120.286523 
L 293.086814 110.226882 
L 293.594595 123.237043 
L 294.102375 124.301697 
L 294.610156 124.344533 
L 295.117936 121.67693 
L 295.625717 112.037359 
L 296.133497 125.364054 
L 296.641278 118.823433 
L 297.149058 115.626285 
L 297.656839 123.555651 
L 298.164619 112.071762 
L 298.6724 128.366575 
L 299.687961 115.128846 
L 300.195741 123.18372 
L 301.211302 114.170437 
L 301.719083 119.780331 
L 302.226863 121.193729 
L 302.734644 127.411886 
L 303.242424 120.895334 
L 303.750205 122.928376 
L 304.765766 118.727348 
L 305.273546 117.99987 
L 305.781327 109.746445 
L 306.289107 123.777351 
L 306.796888 123.484109 
L 307.304668 116.576142 
L 307.812449 112.483113 
L 308.320229 118.471758 
L 308.82801 118.620684 
L 309.33579 122.462103 
L 309.843571 129.554315 
L 310.351351 120.5068 
L 310.859132 124.122545 
L 311.366912 122.595982 
L 311.874693 115.697677 
L 312.382473 117.688259 
L 313.398034 118.267446 
L 313.905815 113.613859 
L 314.413595 119.376984 
L 314.921376 119.575394 
L 315.429156 118.109675 
L 315.936937 118.468507 
L 316.444717 118.237469 
L 316.952498 114.920206 
L 317.968059 123.003665 
L 318.475839 117.281054 
L 318.98362 120.961395 
L 319.4914 120.59071 
L 319.999181 113.941882 
L 320.506962 117.763857 
L 321.014742 119.277462 
L 321.522523 113.740127 
L 322.030303 122.088206 
L 322.538084 120.629969 
L 323.045864 111.742455 
L 323.553645 118.316568 
L 324.061425 114.639581 
L 324.569206 118.697821 
L 325.076986 118.155243 
L 325.584767 115.35674 
L 326.092547 118.277912 
L 326.600328 120.147173 
L 327.108108 122.520239 
L 327.615889 120.099185 
L 328.123669 119.738864 
L 328.63145 119.060859 
L 329.13923 110.655829 
L 329.647011 120.000333 
L 330.154791 118.244155 
L 330.662572 122.227581 
L 331.170352 117.402175 
L 331.678133 109.874642 
L 332.185913 124.589541 
L 332.693694 117.692868 
L 333.201474 117.913214 
L 333.709255 113.533684 
L 334.217035 114.700732 
L 334.724816 112.757275 
L 335.232596 108.060517 
L 335.740377 117.468711 
L 336.248157 119.806266 
L 336.755938 119.833482 
L 337.263718 120.447861 
L 337.771499 117.184774 
L 338.279279 110.438547 
L 338.78706 120.155463 
L 339.29484 109.612359 
L 339.802621 108.765892 
L 340.310401 117.419697 
L 340.818182 112.364173 
L 341.325962 114.900187 
L 341.833743 108.428447 
L 342.341523 108.135129 
L 342.849304 111.948084 
L 343.357084 110.643552 
L 343.864865 115.248847 
L 344.372645 117.767982 
L 344.880426 111.123857 
L 345.388206 122.690679 
L 345.895987 113.743312 
L 346.403767 120.454599 
L 346.911548 114.694447 
L 347.419328 110.256593 
L 347.927109 121.039398 
L 348.94267 107.749244 
L 349.45045 112.286286 
L 349.958231 107.207369 
L 350.466011 116.873108 
L 350.973792 99.61918 
L 351.481572 119.622096 
L 351.989353 128.365235 
L 352.497133 116.204544 
L 353.512695 110.957698 
L 354.020475 110.225009 
L 354.528256 122.157271 
L 355.036036 117.50913 
L 355.543817 116.626214 
L 356.051597 111.081267 
L 356.559378 114.974822 
L 357.067158 115.935633 
L 357.574939 120.77924 
L 358.082719 113.864751 
L 359.09828 122.192185 
L 359.606061 119.055313 
L 360.113841 103.217958 
L 360.621622 109.949045 
L 361.129402 110.469999 
L 361.637183 115.66084 
L 362.144963 115.545599 
L 362.652744 110.344592 
L 363.160524 117.33928 
L 363.668305 114.889444 
L 364.176085 113.901221 
L 364.683866 115.63048 
L 365.191646 107.577304 
L 365.699427 116.512111 
L 366.207207 118.156494 
L 366.714988 111.788826 
L 367.222768 110.318642 
L 367.730549 112.770205 
L 368.238329 111.067615 
L 368.74611 115.71628 
L 369.25389 118.649573 
L 369.761671 123.844064 
L 370.269451 113.14578 
L 371.285012 102.046026 
L 372.300573 109.278807 
L 372.808354 107.68538 
L 373.316134 110.791504 
L 373.823915 114.917316 
L 374.331695 102.18982 
L 374.839476 115.982279 
L 375.347256 114.948817 
L 375.855037 115.707621 
L 376.362817 115.219409 
L 376.870598 112.745219 
L 377.378378 116.609679 
L 377.886159 106.897249 
L 378.393939 110.064254 
L 378.90172 115.673807 
L 379.4095 103.55762 
L 379.917281 111.114201 
L 380.425061 102.239997 
L 380.932842 116.621032 
L 381.440622 112.123481 
L 381.948403 119.021534 
L 382.456183 111.485773 
L 382.963964 108.618218 
L 383.471744 121.619629 
L 383.979525 111.707217 
L 384.487305 113.484858 
L 384.995086 116.120405 
L 385.502867 108.832487 
L 386.010647 113.227645 
L 386.518428 113.009672 
L 387.026208 106.297662 
L 387.533989 117.754588 
L 388.041769 108.971515 
L 388.54955 111.282293 
L 389.05733 107.986609 
L 389.565111 106.833313 
L 390.072891 110.549022 
L 390.580672 118.639344 
L 391.088452 119.779373 
L 391.596233 117.680068 
L 392.104013 109.121882 
L 392.611794 110.349954 
L 393.119574 113.96748 
L 394.135135 110.26406 
L 394.642916 110.883133 
L 395.150696 107.436681 
L 395.658477 113.983394 
L 396.166257 113.82045 
L 396.674038 118.508473 
L 397.181818 114.090797 
L 397.689599 107.596488 
L 398.197379 116.020426 
L 398.70516 103.794048 
L 399.21294 115.296296 
L 399.720721 116.841956 
L 400.228501 101.286874 
L 401.751843 110.748609 
L 402.259623 111.319531 
L 402.767404 111.466165 
L 403.275184 111.211623 
L 403.782965 113.081066 
L 404.290745 103.294342 
L 405.306306 116.730657 
L 405.814087 112.393573 
L 406.321867 115.374994 
L 406.829648 114.645228 
L 407.337428 102.643509 
L 407.845209 108.511122 
L 408.352989 104.48245 
L 408.86077 106.866009 
L 409.36855 107.6896 
L 409.876331 111.397565 
L 410.384111 108.244566 
L 410.891892 112.014399 
L 411.399672 109.448376 
L 411.907453 102.366312 
L 412.415233 111.695273 
L 412.923014 111.120615 
L 413.430794 108.528065 
L 413.938575 111.765507 
L 414.446355 107.575415 
L 414.954136 114.904818 
L 415.461916 113.830578 
L 415.969697 110.184647 
L 416.477477 111.9797 
L 416.985258 113.319416 
L 417.493038 115.61473 
L 418.000819 101.217112 
L 418.5086 113.355311 
L 419.01638 103.657197 
L 419.524161 108.371263 
L 420.031941 108.166357 
L 420.539722 105.654282 
L 421.047502 107.799932 
L 421.555283 117.417661 
L 422.063063 101.753091 
L 422.570844 111.339885 
L 423.078624 116.573818 
L 423.586405 100.902747 
L 424.094185 106.020892 
L 424.601966 113.469843 
L 425.109746 104.121727 
L 425.617527 100.22871 
L 426.125307 113.311775 
L 426.633088 105.381315 
L 427.140868 109.054567 
L 427.648649 108.659709 
L 428.156429 115.481193 
L 428.66421 107.972915 
L 429.17199 98.639404 
L 429.679771 110.185131 
L 430.187551 111.461035 
L 430.695332 96.940519 
L 431.203112 112.459152 
L 431.710893 110.603031 
L 432.218673 107.192376 
L 432.726454 116.647841 
L 433.234234 111.760432 
L 433.742015 109.959213 
L 434.249795 112.221 
L 434.757576 108.126153 
L 435.265356 108.895528 
L 435.773137 106.999397 
L 436.280917 108.932693 
L 436.788698 101.115912 
L 437.296478 105.897542 
L 437.804259 105.505054 
L 438.312039 104.761034 
L 438.81982 108.187724 
L 439.3276 103.646182 
L 439.835381 110.521453 
L 440.343161 113.634416 
L 441.358722 101.178141 
L 441.866503 106.912575 
L 442.374283 103.422247 
L 442.882064 108.961134 
L 443.389844 99.102448 
L 444.405405 103.707758 
L 444.913186 110.599714 
L 445.420966 108.332724 
L 445.928747 94.463504 
L 446.436527 109.889013 
L 447.452088 108.496964 
L 447.959869 109.413602 
L 448.467649 103.958284 
L 448.97543 109.065228 
L 449.48321 107.862145 
L 449.990991 108.332988 
L 450.498771 101.375803 
L 451.006552 99.824385 
L 451.514333 105.454023 
L 452.022113 102.40222 
L 452.529894 104.82852 
L 453.037674 101.922075 
L 453.545455 101.885386 
L 454.053235 106.143708 
L 454.561016 107.394574 
L 455.068796 102.113073 
L 455.576577 105.242206 
L 456.084357 103.138325 
L 456.592138 119.272193 
L 457.099918 105.592694 
L 457.607699 96.567943 
L 458.115479 115.579806 
L 458.62326 108.239624 
L 459.13104 105.677178 
L 459.638821 111.963277 
L 460.146601 113.135248 
L 460.654382 104.066073 
L 461.162162 104.857428 
L 461.669943 114.291861 
L 462.177723 100.197546 
L 462.685504 105.191056 
L 463.193284 112.996323 
L 463.701065 97.039757 
L 464.208845 97.493846 
L 465.224406 110.862229 
L 465.732187 103.36215 
L 466.239967 107.092084 
L 466.747748 108.770808 
L 467.255528 101.445131 
L 467.763309 101.893578 
L 468.271089 108.532504 
L 468.77887 109.246742 
L 469.28665 96.350038 
L 470.302211 105.443682 
L 470.809992 107.979416 
L 471.317772 103.034567 
L 471.825553 103.792759 
L 472.333333 98.227974 
L 472.841114 101.102665 
L 473.348894 103.225556 
L 473.856675 97.416051 
L 474.364455 102.358807 
L 474.872236 105.466565 
L 475.380016 96.392624 
L 475.887797 104.357835 
L 476.395577 97.830805 
L 477.411138 113.1656 
L 477.918919 102.763974 
L 478.426699 110.743911 
L 478.93448 101.344741 
L 479.44226 105.211129 
L 479.950041 103.760385 
L 480.457821 100.921277 
L 480.965602 96.149507 
L 481.473382 103.008683 
L 481.981163 105.654403 
L 482.488943 98.6203 
L 482.996724 98.821033 
L 483.504505 102.092705 
L 484.012285 94.28792 
L 485.027846 99.684908 
L 485.535627 103.524333 
L 486.043407 96.230687 
L 487.058968 105.276884 
L 487.566749 100.654622 
L 488.074529 94.358295 
L 488.58231 102.70346 
L 489.09009 102.279941 
L 490.105651 117.099042 
L 490.613432 102.258173 
L 491.121212 104.171099 
L 491.628993 104.445501 
L 492.136773 104.025933 
L 492.644554 100.826962 
L 493.152334 117.801701 
L 493.660115 101.703893 
L 494.167895 105.010805 
L 494.675676 98.842151 
L 495.183456 103.926734 
L 495.691237 104.613411 
L 496.199017 100.101633 
L 496.706798 101.320398 
L 497.214578 101.742345 
L 497.722359 104.180742 
L 498.230139 104.920934 
L 498.73792 98.715881 
L 499.2457 112.861782 
L 499.753481 101.738617 
L 500.261261 102.266652 
L 500.769042 111.641612 
L 501.276822 97.198568 
L 501.784603 106.64607 
L 502.292383 98.811896 
L 502.800164 103.487885 
L 503.307944 105.368593 
L 503.815725 110.506811 
L 504.831286 106.281924 
L 505.846847 100.314452 
L 506.354627 100.662987 
L 507.370188 105.924491 
L 507.877969 98.862996 
L 508.385749 103.205825 
L 508.89353 95.443988 
L 509.40131 91.750983 
L 509.909091 99.31909 
L 510.416871 98.500656 
L 510.924652 102.139642 
L 511.432432 96.937526 
L 511.940213 104.366389 
L 512.447993 102.121963 
L 512.955774 108.044479 
L 513.463554 102.624495 
L 513.971335 95.994303 
L 514.479115 100.390099 
L 514.986896 93.237577 
L 515.494676 108.662821 
L 516.002457 93.815216 
L 516.510238 101.188473 
L 517.018018 97.752868 
L 517.525799 99.445451 
L 518.033579 104.813412 
L 518.54136 103.769708 
L 519.04914 103.282187 
L 519.556921 98.926887 
L 520.064701 99.653037 
L 520.572482 106.667666 
L 521.080262 99.055738 
L 521.588043 97.019663 
L 522.095823 95.700825 
L 522.603604 97.661805 
L 523.111384 98.861917 
L 523.619165 99.030468 
L 524.126945 105.852838 
L 524.634726 96.449995 
L 525.142506 100.538153 
L 525.650287 102.850896 
L 527.173628 95.060298 
L 527.681409 101.738316 
L 528.189189 90.932254 
L 528.69697 103.505652 
L 529.712531 93.485585 
L 530.220311 97.96154 
L 530.728092 106.334198 
L 531.235872 99.816405 
L 531.743653 91.820355 
L 532.251433 94.483095 
L 532.759214 93.905845 
L 533.266994 91.297119 
L 533.774775 91.06461 
L 534.282555 103.677217 
L 534.790336 91.032572 
L 535.298116 97.624957 
L 535.805897 105.797228 
L 536.313677 97.194858 
L 536.821458 95.464475 
L 537.329238 96.837961 
L 537.837019 103.581638 
L 538.85258 90.71069 
L 539.868141 100.507878 
L 540.375921 98.079794 
L 540.883702 98.218979 
L 541.391482 96.892265 
L 541.899263 92.378267 
L 542.407043 108.559844 
L 542.914824 94.172905 
L 543.422604 102.005644 
L 543.930385 98.86379 
L 544.438165 89.31184 
L 544.945946 104.270742 
L 545.453726 96.214991 
L 545.961507 96.851624 
L 546.469287 99.50386 
L 546.977068 107.550496 
L 547.484848 98.614237 
L 547.992629 92.145176 
L 548.50041 103.518822 
L 549.00819 100.84723 
L 549.515971 96.260768 
L 550.023751 99.905274 
L 550.531532 101.9954 
L 551.039312 96.174571 
L 551.547093 103.60843 
L 552.054873 97.32941 
L 552.562654 107.106062 
L 553.070434 96.365353 
L 553.578215 93.02956 
L 554.085995 99.998912 
L 554.593776 100.039726 
L 555.101556 99.859171 
L 555.609337 97.534916 
L 556.117117 91.697748 
L 556.624898 102.087592 
L 557.132678 100.368157 
L 557.640459 94.485499 
L 558.148239 99.366011 
L 558.65602 90.162669 
L 559.1638 107.872958 
L 559.671581 102.85855 
L 560.179361 96.683834 
L 560.687142 95.528816 
L 561.194922 99.118817 
L 561.702703 97.462401 
L 562.210483 103.616929 
L 562.718264 98.117646 
L 563.226044 103.339346 
L 564.241605 93.841831 
L 564.749386 94.321978 
L 565.257166 92.818701 
L 565.764947 93.467073 
L 566.272727 95.204153 
L 566.780508 92.945525 
L 567.288288 98.087606 
L 567.796069 109.459077 
L 568.81163 90.990674 
L 569.31941 99.351656 
L 569.827191 92.504272 
L 570.334971 92.560074 
L 570.842752 98.235186 
L 571.350532 101.387421 
L 571.858313 100.570825 
L 572.366093 97.669417 
L 572.873874 101.060243 
L 573.381654 89.431817 
L 573.889435 97.438391 
L 574.397215 97.706054 
L 574.904996 101.285706 
L 575.412776 95.845527 
L 575.920557 97.774104 
L 576.428337 96.568547 
L 576.936118 99.885672 
L 577.951679 96.692809 
L 578.459459 101.228578 
L 578.96724 108.606936 
L 579.47502 103.883197 
L 579.982801 90.57965 
L 580.490581 102.33376 
L 580.998362 97.969671 
L 581.506143 97.180076 
L 582.013923 94.057426 
L 582.521704 94.624651 
L 583.029484 94.11653 
L 583.537265 95.638294 
L 584.045045 103.901975 
L 584.552826 98.286533 
L 585.060606 111.733527 
L 585.568387 98.996312 
L 586.076167 93.46517 
L 586.583948 98.46522 
L 587.091728 93.581159 
L 587.599509 97.331338 
L 588.107289 91.776823 
L 589.12285 104.787413 
L 589.630631 94.021629 
L 590.138411 97.765718 
L 590.646192 92.964787 
L 591.153972 95.107426 
L 591.661753 95.634707 
L 592.169533 86.762977 
L 592.677314 97.630656 
L 593.185094 94.033596 
L 593.692875 97.322919 
L 594.200655 91.643061 
L 594.708436 98.39692 
L 595.216216 97.251583 
L 595.723997 99.316165 
L 596.231777 105.250852 
L 596.739558 87.815791 
L 597.247338 91.168145 
L 597.755119 87.665797 
L 598.262899 91.800227 
L 598.77068 88.464457 
L 599.27846 97.562177 
L 599.786241 90.839992 
L 600.801802 100.656182 
L 601.309582 99.341681 
L 601.817363 94.497424 
L 602.325143 102.922847 
L 602.832924 93.553918 
L 603.340704 98.964871 
L 603.848485 103.000736 
L 604.356265 98.645701 
L 604.864046 91.862338 
L 605.371826 80.848921 
L 605.879607 106.872645 
L 606.387387 91.713288 
L 606.895168 90.298306 
L 607.402948 99.139086 
L 607.910729 90.403279 
L 608.418509 89.143814 
L 608.92629 100.030937 
L 609.43407 91.859429 
L 609.941851 93.167875 
L 610.449631 95.441702 
L 610.957412 99.960553 
L 611.465192 90.989198 
L 611.972973 98.793763 
L 612.480753 95.301428 
L 612.988534 85.774588 
L 613.496314 95.324822 
L 614.004095 91.850828 
L 615.019656 94.779754 
L 615.527437 97.070543 
L 616.542998 86.610159 
L 617.050778 96.14614 
L 617.558559 96.856769 
L 618.066339 86.968815 
L 618.57412 87.248051 
L 619.0819 92.201863 
L 619.589681 94.080341 
L 620.097461 87.751851 
L 620.605242 103.49732 
L 621.113022 91.964358 
L 621.620803 97.190397 
L 622.128583 94.809757 
L 622.636364 94.489112 
L 622.636364 94.489112 
" clip-path="url(#p539e91b67e)" style="fill: none; stroke: #2ca02c; stroke-width: 1.5; stroke-linecap: square"/>
   </g>
   <g id="patch_3">
    <path d="M 90 384.48 
L 90 51.84 
" style="fill: none; stroke: #000000; stroke-width: 0.8; stroke-linejoin: miter; stroke-linecap: square"/>
   </g>
   <g id="patch_4">
    <path d="M 648 384.48 
L 648 51.84 
" style="fill: none; stroke: #000000; stroke-width: 0.8; stroke-linejoin: miter; stroke-linecap: square"/>
   </g>
   <g id="patch_5">
    <path d="M 90 384.48 
L 648 384.48 
" style="fill: none; stroke: #000000; stroke-width: 0.8; stroke-linejoin: miter; stroke-linecap: square"/>
   </g>
   <g id="patch_6">
    <path d="M 90 51.84 
L 648 51.84 
" style="fill: none; stroke: #000000; stroke-width: 0.8; stroke-linejoin: miter; stroke-linecap: square"/>
   </g>
   <g id="text_17">
    <!-- Average Reward vs Steps -->
    <g transform="translate(267.44 45.84) scale(0.16 -0.16)">
     <use xlink:href="#DejaVuSans-41"/>
     <use xlink:href="#DejaVuSans-76" x="62.533203"/>
     <use xlink:href="#DejaVuSans-65" x="121.712891"/>
     <use xlink:href="#DejaVuSans-72" x="183.236328"/>
     <use xlink:href="#DejaVuSans-61" x="224.349609"/>
     <use xlink:href="#DejaVuSans-67" x="285.628906"/>
     <use xlink:href="#DejaVuSans-65" x="349.105469"/>
     <use xlink:href="#DejaVuSans-20" x="410.628906"/>
     <use xlink:href="#DejaVuSans-52" x="442.416016"/>
     <use xlink:href="#DejaVuSans-65" x="507.398438"/>
     <use xlink:href="#DejaVuSans-77" x="568.921875"/>
     <use xlink:href="#DejaVuSans-61" x="650.708984"/>
     <use xlink:href="#DejaVuSans-72" x="711.988281"/>
     <use xlink:href="#DejaVuSans-64" x="751.351562"/>
     <use xlink:href="#DejaVuSans-20" x="814.828125"/>
     <use xlink:href="#DejaVuSans-76" x="846.615234"/>
     <use xlink:href="#DejaVuSans-73" x="905.794922"/>
     <use xlink:href="#DejaVuSans-20" x="957.894531"/>
     <use xlink:href="#DejaVuSans-53" x="989.681641"/>
     <use xlink:href="#DejaVuSans-74" x="1053.158203"/>
     <use xlink:href="#DejaVuSans-65" x="1092.367188"/>
     <use xlink:href="#DejaVuSans-70" x="1153.890625"/>
     <use xlink:href="#DejaVuSans-73" x="1217.367188"/>
    </g>
   </g>
   <g id="legend_1">
    <g id="patch_7">
     <path d="M 513.93 378.48 
L 639.6 378.48 
Q 642 378.48 642 376.08 
L 642 324.43875 
Q 642 322.03875 639.6 322.03875 
L 513.93 322.03875 
Q 511.53 322.03875 511.53 324.43875 
L 511.53 376.08 
Q 511.53 378.48 513.93 378.48 
z
" style="fill: #ffffff; opacity: 0.8; stroke: #cccccc; stroke-linejoin: miter"/>
    </g>
    <g id="line2d_18">
     <path d="M 516.33 331.756875 
L 528.33 331.756875 
L 540.33 331.756875 
" style="fill: none; stroke: #1f77b4; stroke-width: 1.5; stroke-linecap: square"/>
    </g>
    <g id="text_18">
     <!-- epsilon = 0 -->
     <g transform="translate(549.93 335.956875) scale(0.12 -0.12)">
      <defs>
       <path id="DejaVuSans-69" d="M 603 3500 
L 1178 3500 
L 1178 0 
L 603 0 
L 603 3500 
z
M 603 4863 
L 1178 4863 
L 1178 4134 
L 603 4134 
L 603 4863 
z
" transform="scale(0.015625)"/>
       <path id="DejaVuSans-6c" d="M 603 4863 
L 1178 4863 
L 1178 0 
L 603 0 
L 603 4863 
z
" transform="scale(0.015625)"/>
       <path id="DejaVuSans-6f" d="M 1959 3097 
Q 1497 3097 1228 2736 
Q 959 2375 959 1747 
Q 959 1119 1226 758 
Q 1494 397 1959 397 
Q 2419 397 2687 759 
Q 2956 1122 2956 1747 
Q 2956 2369 2687 2733 
Q 2419 3097 1959 3097 
z
M 1959 3584 
Q 2709 3584 3137 3096 
Q 3566 2609 3566 1747 
Q 3566 888 3137 398 
Q 2709 -91 1959 -91 
Q 1206 -91 779 398 
Q 353 888 353 1747 
Q 353 2609 779 3096 
Q 1206 3584 1959 3584 
z
" transform="scale(0.015625)"/>
       <path id="DejaVuSans-6e" d="M 3513 2113 
L 3513 0 
L 2938 0 
L 2938 2094 
Q 2938 2591 2744 2837 
Q 2550 3084 2163 3084 
Q 1697 3084 1428 2787 
Q 1159 2491 1159 1978 
L 1159 0 
L 581 0 
L 581 3500 
L 1159 3500 
L 1159 2956 
Q 1366 3272 1645 3428 
Q 1925 3584 2291 3584 
Q 2894 3584 3203 3211 
Q 3513 2838 3513 2113 
z
" transform="scale(0.015625)"/>
       <path id="DejaVuSans-3d" d="M 678 2906 
L 4684 2906 
L 4684 2381 
L 678 2381 
L 678 2906 
z
M 678 1631 
L 4684 1631 
L 4684 1100 
L 678 1100 
L 678 1631 
z
" transform="scale(0.015625)"/>
      </defs>
      <use xlink:href="#DejaVuSans-65"/>
      <use xlink:href="#DejaVuSans-70" x="61.523438"/>
      <use xlink:href="#DejaVuSans-73" x="125"/>
      <use xlink:href="#DejaVuSans-69" x="177.099609"/>
      <use xlink:href="#DejaVuSans-6c" x="204.882812"/>
      <use xlink:href="#DejaVuSans-6f" x="232.666016"/>
      <use xlink:href="#DejaVuSans-6e" x="293.847656"/>
      <use xlink:href="#DejaVuSans-20" x="357.226562"/>
      <use xlink:href="#DejaVuSans-3d" x="389.013672"/>
      <use xlink:href="#DejaVuSans-20" x="472.802734"/>
      <use xlink:href="#DejaVuSans-30" x="504.589844"/>
     </g>
    </g>
    <g id="line2d_19">
     <path d="M 516.33 349.370625 
L 528.33 349.370625 
L 540.33 349.370625 
" style="fill: none; stroke: #ff7f0e; stroke-width: 1.5; stroke-linecap: square"/>
    </g>
    <g id="text_19">
     <!-- epsilon = 0.1 -->
     <g transform="translate(549.93 353.570625) scale(0.12 -0.12)">
      <use xlink:href="#DejaVuSans-65"/>
      <use xlink:href="#DejaVuSans-70" x="61.523438"/>
      <use xlink:href="#DejaVuSans-73" x="125"/>
      <use xlink:href="#DejaVuSans-69" x="177.099609"/>
      <use xlink:href="#DejaVuSans-6c" x="204.882812"/>
      <use xlink:href="#DejaVuSans-6f" x="232.666016"/>
      <use xlink:href="#DejaVuSans-6e" x="293.847656"/>
      <use xlink:href="#DejaVuSans-20" x="357.226562"/>
      <use xlink:href="#DejaVuSans-3d" x="389.013672"/>
      <use xlink:href="#DejaVuSans-20" x="472.802734"/>
      <use xlink:href="#DejaVuSans-30" x="504.589844"/>
      <use xlink:href="#DejaVuSans-2e" x="568.212891"/>
      <use xlink:href="#DejaVuSans-31" x="600"/>
     </g>
    </g>
    <g id="line2d_20">
     <path d="M 516.33 366.984375 
L 528.33 366.984375 
L 540.33 366.984375 
" style="fill: none; stroke: #2ca02c; stroke-width: 1.5; stroke-linecap: square"/>
    </g>
    <g id="text_20">
     <!-- epsilon = 0.01 -->
     <g transform="translate(549.93 371.184375) scale(0.12 -0.12)">
      <use xlink:href="#DejaVuSans-65"/>
      <use xlink:href="#DejaVuSans-70" x="61.523438"/>
      <use xlink:href="#DejaVuSans-73" x="125"/>
      <use xlink:href="#DejaVuSans-69" x="177.099609"/>
      <use xlink:href="#DejaVuSans-6c" x="204.882812"/>
      <use xlink:href="#DejaVuSans-6f" x="232.666016"/>
      <use xlink:href="#DejaVuSans-6e" x="293.847656"/>
      <use xlink:href="#DejaVuSans-20" x="357.226562"/>
      <use xlink:href="#DejaVuSans-3d" x="389.013672"/>
      <use xlink:href="#DejaVuSans-20" x="472.802734"/>
      <use xlink:href="#DejaVuSans-30" x="504.589844"/>
      <use xlink:href="#DejaVuSans-2e" x="568.212891"/>
      <use xlink:href="#DejaVuSans-30" x="600"/>
      <use xlink:href="#DejaVuSans-31" x="663.623047"/>
     </g>
    </g>
   </g>
  </g>
 </g>
 <defs>
  <clipPath id="p539e91b67e">
   <rect x="90" y="51.84" width="558" height="332.64"/>
  </clipPath>
 </defs>
</svg>
